<svg width="178" height="209" viewBox="0 0 178 209" fill="none" xmlns="http://www.w3.org/2000/svg">
<path fill-rule="evenodd" clip-rule="evenodd" d="M36.8752 8.2599C31.7637 0.0110447 20.931 -2.47699 12.6796 2.70272C-8.83052 16.2055 -25.963 37.1086 -34.4482 63.1763C-53.5697 121.92 -21.7089 184.807 36.715 203.638C95.1389 222.47 158.002 190.114 177.123 131.37C180.143 122.094 175.112 112.165 165.887 109.191C156.662 106.218 146.737 111.327 143.717 120.602C130.634 160.796 87.6227 182.934 47.6485 170.049C7.67423 157.165 -14.1253 114.137 -1.04213 73.9437C4.77116 56.0844 16.4593 41.8216 31.19 32.5745C39.4414 27.3948 41.9867 16.5088 36.8752 8.2599Z" fill="#F35FB8"/>
</svg>
