<svg width="81" height="74" viewBox="0 0 81 74" fill="none" xmlns="http://www.w3.org/2000/svg">
<path fill-rule="evenodd" clip-rule="evenodd" d="M151.716 0C157.949 0 163.001 5.00041 163.001 11.1687V34.9954C163.001 68.4508 122.287 85.3781 98.1441 61.9602L78.9902 43.3812C67.5792 32.3129 48.9854 33.4969 39.1019 45.9213L20.1549 69.7394C16.2995 74.5861 9.20397 75.422 4.30662 71.6064C-0.590725 67.7909 -1.43536 60.7688 2.42008 55.9222L21.3671 32.1041C39.5595 9.23448 73.7853 7.05497 94.7894 27.4285L113.943 46.0075C123.803 55.5711 140.43 48.6582 140.43 34.9954V11.1687C140.43 5.00041 145.483 0 151.716 0Z" fill="#FFBD00"/>
</svg>
