<svg width="173" height="173" viewBox="0 0 173 173" fill="none" xmlns="http://www.w3.org/2000/svg">
<path fill-rule="evenodd" clip-rule="evenodd" d="M86.2818 21.8459C86.2557 21.8747 86.1979 21.9453 86.1289 22.0918L71.4501 53.252C67.8001 61.0002 61.5653 67.235 53.8171 70.885L22.0918 85.83C21.9494 85.897 21.8798 85.9536 21.8504 85.98C21.8191 86.0083 21.7971 86.0355 21.7778 86.067C21.7346 86.1376 21.6792 86.2783 21.6772 86.4764C21.6753 86.6745 21.7278 86.8163 21.7695 86.8877C21.7882 86.9197 21.8096 86.9473 21.8405 86.9762C21.8693 87.0032 21.9378 87.0611 22.0788 87.131L53.5961 102.757C60.8158 106.337 66.6632 112.184 70.2428 119.404L85.869 150.921C85.9389 151.062 85.9968 151.131 86.0238 151.16C86.0527 151.19 86.0803 151.212 86.1123 151.23C86.1837 151.272 86.3255 151.325 86.5236 151.323C86.7217 151.321 86.8624 151.265 86.933 151.222C86.9522 151.21 86.9698 151.198 86.9871 151.182C86.9981 151.173 87.009 151.162 87.02 151.15C87.0464 151.12 87.1029 151.051 87.17 150.908L102.115 119.183C105.765 111.435 112 105.2 119.748 101.55L150.908 86.8711C151.055 86.8021 151.125 86.7443 151.154 86.7182C151.185 86.6902 151.206 86.6636 151.225 86.6326C151.267 86.5627 151.323 86.4198 151.323 86.2174C151.323 86.015 151.267 85.8722 151.225 85.8023C151.206 85.7713 151.185 85.7447 151.154 85.7167C151.125 85.6906 151.055 85.6328 150.908 85.5638L119.748 70.885C112 67.2351 105.765 61.0002 102.115 53.252L87.4362 22.0918C87.3672 21.9453 87.3094 21.8747 87.2833 21.8459C87.2553 21.815 87.2286 21.7937 87.1976 21.775C87.1277 21.7327 86.9849 21.6772 86.7825 21.6772C86.5801 21.6772 86.4373 21.7327 86.3674 21.775C86.3364 21.7937 86.3098 21.815 86.2818 21.8459ZM66.5186 12.8539C74.5922 -4.28471 98.9729 -4.28458 107.046 12.8539L121.725 44.0141C123.228 47.2046 125.795 49.7719 128.986 51.2748L160.146 65.9536C177.285 74.0271 177.285 98.4078 160.146 106.481L128.986 121.16C125.795 122.663 123.228 125.23 121.725 128.421L106.78 160.146C98.7958 177.095 74.7702 177.336 66.4478 160.55L50.8216 129.033C49.3477 126.06 46.9399 123.652 43.9671 122.178L12.4498 106.552C-4.33613 98.2298 -4.09538 74.2041 12.854 66.2197L44.5792 51.2748C47.7696 49.7718 50.3369 47.2046 51.8399 44.0141L66.5186 12.8539Z" fill="#43F4FF"/>
</svg>
