<svg width="63" height="63" viewBox="0 0 63 63" fill="none" xmlns="http://www.w3.org/2000/svg">
    <path d="M41.9199 31.4431C41.9112 25.6557 37.2274 20.9719 31.4429 20.9611C25.656 20.9719 20.9717 25.6557 20.9614 31.4431C20.9717 37.2276 25.656 41.9111 31.4429 41.9202C37.2274 41.9111 41.9112 37.2272 41.9199 31.4431ZM31.4404 0C14.0763 0 0 14.0764 0 31.4407C0 41.7266 4.94054 50.8575 12.5763 56.5938V31.4431C12.5763 20.9615 21.0221 12.5809 31.4433 12.5763C41.8621 12.5809 50.3026 21.0218 50.3075 31.4431C50.3022 41.862 41.8621 50.3025 31.4433 50.3074C27.563 50.3058 23.9587 49.1313 20.961 47.1236V61.0853C24.2397 62.2445 27.7652 62.8813 31.4409 62.8813C48.805 62.8813 62.8813 48.8053 62.8813 31.4407C62.8805 14.0764 48.8046 0 31.4404 0Z" fill="white"/>
</svg>
