<svg width="180" height="180" viewBox="0 0 180 180" fill="none" xmlns="http://www.w3.org/2000/svg">
<g filter="url(#filter0_d_1_284)">
<path d="M37.8908 129.37C35.2505 126.767 35.2201 122.516 37.8228 119.876L118.881 37.6477C121.484 35.0074 125.734 34.9769 128.375 37.5797L142.239 51.2465C144.879 53.8492 144.909 58.0996 142.307 60.7399L61.2483 142.968C58.6456 145.609 54.3952 145.639 51.7549 143.036L37.8908 129.37Z" fill="white"/>
</g>
<path d="M70.5448 102.053C71.1042 101.486 71.7662 101.234 72.5308 101.298C73.2876 101.354 74.0042 101.716 74.6805 102.382C75.349 103.041 75.7207 103.745 75.7955 104.493C75.8626 105.234 75.6202 105.884 75.0685 106.443L73.8846 107.644C73.8539 107.676 73.8541 107.706 73.8852 107.737L77.4066 111.208C77.4844 111.285 77.4849 111.362 77.4083 111.44L76.8221 112.035C76.7455 112.112 76.6683 112.113 76.5905 112.036L68.6499 104.209C68.5721 104.132 68.5716 104.055 68.6482 103.977L70.5448 102.053ZM74.2543 105.917C74.5991 105.567 74.7389 105.145 74.6736 104.652C74.6083 104.158 74.3425 103.682 73.876 103.222C73.4096 102.762 72.9292 102.503 72.4348 102.445C71.9326 102.379 71.5091 102.521 71.1643 102.871L70.1183 103.932C70.0876 103.963 70.0879 103.994 70.119 104.024L73.1157 106.978C73.1468 107.009 73.1776 107.009 73.2083 106.978L74.2543 105.917Z" fill="url(#paint0_linear_1_284)"/>
<path d="M83.7359 105.208C83.1459 105.806 82.4804 106.108 81.7395 106.113C81.0062 106.111 80.3325 105.807 79.7184 105.202L75.4507 100.995C74.8366 100.389 74.523 99.72 74.5101 98.9868C74.5048 98.2459 74.7971 97.5761 75.3872 96.9776C75.9849 96.3712 76.6542 96.0654 77.3952 96.0601C78.1361 96.0548 78.8136 96.3548 79.4277 96.9602L83.6954 101.167C84.3017 101.765 84.6115 102.438 84.6245 103.187C84.6298 103.928 84.3336 104.601 83.7359 105.208ZM83.013 104.495C83.3655 104.137 83.5324 103.735 83.5138 103.287C83.495 102.824 83.2991 102.409 82.926 102.041L78.5767 97.7536C78.1958 97.3781 77.7776 97.1881 77.3222 97.1837C76.8666 97.1638 76.4626 97.3326 76.1101 97.6902C75.7653 98.04 75.6061 98.4425 75.6325 98.8977C75.6511 99.3453 75.8509 99.7568 76.2318 100.132L80.5811 104.42C80.9542 104.788 81.3686 104.981 81.8241 105.001C82.2719 105.013 82.6682 104.845 83.013 104.495Z" fill="url(#paint1_linear_1_284)"/>
<path d="M88.8171 100.053C88.25 100.628 87.5998 100.907 86.8664 100.889C86.133 100.871 85.4593 100.56 84.8451 99.9542L84.577 99.6898C84.4992 99.6132 84.4987 99.536 84.5753 99.4582L85.1385 98.8869C85.2152 98.8091 85.2923 98.8086 85.3701 98.8852L85.6033 99.1151C86.0153 99.5212 86.453 99.7458 86.9164 99.7888C87.3721 99.8241 87.7646 99.6747 88.0941 99.3404C88.416 99.0139 88.5637 98.6231 88.5373 98.1678C88.5109 97.7126 88.2994 97.2896 87.903 96.8988C87.6387 96.6383 87.3596 96.4705 87.0658 96.3954C86.7718 96.3049 86.4706 96.2762 86.1621 96.3092C85.8534 96.3269 85.3599 96.3845 84.6813 96.4819C84.0106 96.5871 83.463 96.6528 83.0387 96.679C82.6066 96.6975 82.1739 96.6388 81.7407 96.503C81.3151 96.3594 80.908 96.096 80.5193 95.7129C79.913 95.1152 79.6073 94.469 79.6024 93.7744C79.5896 93.0721 79.8591 92.4411 80.4108 91.8814C80.9932 91.2906 81.6512 91.0119 82.3847 91.0452C83.1181 91.0631 83.8035 91.3862 84.4409 92.0146L84.7324 92.3019C84.8102 92.3786 84.8107 92.4558 84.7341 92.5335L84.1594 93.1165C84.0827 93.1942 84.0056 93.1948 83.9278 93.1182L83.6246 92.8193C83.2127 92.4132 82.7788 92.1924 82.3232 92.1571C81.8674 92.1063 81.4709 92.252 81.1338 92.594C80.8273 92.905 80.6871 93.2726 80.7133 93.6969C80.7317 94.1136 80.943 94.5212 81.3473 94.9197C81.5882 95.1572 81.8442 95.3252 82.115 95.4236C82.3858 95.5065 82.6909 95.5391 83.0304 95.5212C83.3699 95.5034 83.8442 95.4498 84.4533 95.3605C85.2551 95.2313 85.876 95.1612 86.3159 95.1503C86.7556 95.124 87.1651 95.1751 87.5442 95.3036C87.9156 95.4245 88.28 95.6611 88.6376 96.0136C89.2751 96.642 89.608 97.3304 89.6366 98.0789C89.6573 98.8198 89.3841 99.4778 88.8171 100.053Z" fill="url(#paint2_linear_1_284)"/>
<path d="M87.2093 85.1714C87.2859 85.0936 87.3631 85.0931 87.4408 85.1697L87.9306 85.6525C88.0083 85.7291 88.0089 85.8063 87.9322 85.884L86.415 87.4232C86.3843 87.4543 86.3845 87.4851 86.4156 87.5158L93.6917 94.6883C93.7694 94.7649 93.77 94.8421 93.6933 94.9198L93.1071 95.5145C93.0305 95.5922 92.9533 95.5928 92.8756 95.5162L85.5995 88.3437C85.5684 88.313 85.5376 88.3132 85.5069 88.3443L84.0816 89.7902C84.005 89.8679 83.9278 89.8685 83.8501 89.7919L83.3603 89.3091C83.2826 89.2325 83.2821 89.1553 83.3587 89.0776L87.2093 85.1714Z" fill="url(#paint3_linear_1_284)"/>
<path d="M92.1858 80.2863C92.1544 80.2093 92.1732 80.1358 92.2421 80.0659L92.8398 79.4595C92.9165 79.3818 92.9936 79.3812 93.0714 79.4579L101 87.2741C101.078 87.3507 101.079 87.4279 101.002 87.5056L100.416 88.1003C100.339 88.178 100.262 88.1786 100.184 88.1019L93.9344 81.941C93.911 81.918 93.8917 81.9142 93.8764 81.9298C93.8687 81.9376 93.865 81.9569 93.8652 81.9878L95.1884 85.6832C95.2199 85.7602 95.2088 85.8259 95.1551 85.8803C95.0938 85.9425 95.0245 85.9584 94.9471 85.9281L91.2447 84.6695C91.2138 84.6697 91.1907 84.6776 91.1754 84.6931C91.1677 84.7009 91.1755 84.7163 91.1989 84.7393L97.4371 90.8888C97.5149 90.9654 97.5154 91.0426 97.4388 91.1203L96.8526 91.715C96.7759 91.7927 96.6988 91.7933 96.621 91.7166L88.692 83.9005C88.6143 83.8238 88.6137 83.7466 88.6904 83.6689L89.2881 83.0626C89.357 82.9926 89.4302 82.9728 89.5076 83.0031L93.5115 84.329C93.5347 84.3366 93.554 84.3326 93.5693 84.317C93.5846 84.3015 93.5884 84.2822 93.5805 84.2591L92.1858 80.2863Z" fill="url(#paint4_linear_1_284)"/>
<path d="M104.122 84.3169C104.046 84.3946 103.969 84.3952 103.891 84.3185L100.404 80.8817C100.373 80.8511 100.35 80.8358 100.335 80.8359L94.3876 78.1693L94.3295 78.1349C94.2673 78.0736 94.2707 78.008 94.3397 77.9381L94.9604 77.3084C95.0293 77.2384 95.1064 77.2224 95.1916 77.2604L99.7345 79.4856C99.7577 79.4931 99.777 79.4891 99.7923 79.4736C99.8076 79.458 99.8113 79.4387 99.8035 79.4156L97.5134 74.905C97.4742 74.8204 97.4891 74.7431 97.5581 74.6732L98.1788 74.0435C98.2171 74.0046 98.2595 73.9928 98.3059 74.0079C98.3522 74.0075 98.3871 74.0343 98.4107 74.0882L101.174 79.9847C101.174 80.0001 101.189 80.0232 101.221 80.0538L104.707 83.4906C104.785 83.5673 104.785 83.6445 104.709 83.7222L104.122 84.3169Z" fill="url(#paint5_linear_1_284)"/>
<path d="M101.321 70.8331C101.88 70.2656 102.542 70.0139 103.307 70.0779C104.063 70.1342 104.78 70.4957 105.456 71.1624C106.125 71.8214 106.496 72.525 106.571 73.2731C106.638 74.0136 106.396 74.6637 105.844 75.2234L104.66 76.4245C104.63 76.4555 104.63 76.4864 104.661 76.5171L108.182 79.9884C108.26 80.065 108.261 80.1422 108.184 80.2199L107.598 80.8146C107.521 80.8923 107.444 80.8929 107.366 80.8163L99.4256 72.9886C99.3479 72.9119 99.3473 72.8348 99.424 72.757L101.321 70.8331ZM105.03 74.6967C105.375 74.3469 105.515 73.9252 105.449 73.4317C105.384 72.9382 105.118 72.4615 104.652 72.0017C104.185 71.542 103.705 71.283 103.211 71.2248C102.708 71.1589 102.285 71.3009 101.94 71.6507L100.894 72.7118C100.863 72.7429 100.864 72.7737 100.895 72.8044L103.891 75.7584C103.922 75.7891 103.953 75.7889 103.984 75.7578L105.03 74.6967Z" fill="url(#paint6_linear_1_284)"/>
<path d="M114.512 73.9875C113.922 74.5861 113.256 74.888 112.515 74.8933C111.782 74.8909 111.108 74.587 110.494 73.9816L106.226 69.7746C105.612 69.1693 105.299 68.5 105.286 67.7668C105.281 67.0259 105.573 66.3561 106.163 65.7575C106.761 65.1512 107.43 64.8454 108.171 64.8401C108.912 64.8348 109.589 65.1348 110.203 65.7402L114.471 69.9471C115.077 70.5448 115.387 71.218 115.4 71.9666C115.406 72.7076 115.109 73.3812 114.512 73.9875ZM113.789 73.2749C114.141 72.9173 114.308 72.5147 114.29 72.0672C114.271 71.6042 114.075 71.1888 113.702 70.821L109.352 66.5336C108.972 66.1581 108.553 65.9681 108.098 65.9637C107.642 65.9438 107.238 66.1126 106.886 66.4702C106.541 66.82 106.382 67.2225 106.408 67.6777C106.427 68.1253 106.627 68.5368 107.008 68.9123L111.357 73.1997C111.73 73.5675 112.144 73.7614 112.6 73.7812C113.048 73.7935 113.444 73.6247 113.789 73.2749Z" fill="url(#paint7_linear_1_284)"/>
<path d="M119.593 68.833C119.026 69.4083 118.376 69.687 117.642 69.6691C116.909 69.6512 116.235 69.3395 115.621 68.7341L115.353 68.4698C115.275 68.3931 115.274 68.316 115.351 68.2382L115.914 67.6669C115.991 67.5891 116.068 67.5886 116.146 67.6652L116.379 67.8951C116.791 68.3012 117.229 68.5258 117.692 68.5688C118.148 68.6041 118.54 68.4547 118.87 68.1204C119.192 67.7939 119.339 67.403 119.313 66.9478C119.287 66.4926 119.075 66.0696 118.679 65.6788C118.414 65.4183 118.135 65.2505 117.842 65.1754C117.548 65.0849 117.246 65.0561 116.938 65.0892C116.629 65.1069 116.136 65.1645 115.457 65.2619C114.786 65.3671 114.239 65.4328 113.814 65.459C113.382 65.4775 112.95 65.4188 112.516 65.283C112.091 65.1394 111.684 64.876 111.295 64.4929C110.689 63.8952 110.383 63.249 110.378 62.5544C110.365 61.8521 110.635 61.2211 111.187 60.6614C111.769 60.0706 112.427 59.7918 113.16 59.8252C113.894 59.8431 114.579 60.1662 115.217 60.7946L115.508 61.0819C115.586 61.1586 115.586 61.2357 115.51 61.3135L114.935 61.8965C114.858 61.9742 114.781 61.9748 114.704 61.8982L114.4 61.5993C113.988 61.1932 113.555 60.9724 113.099 60.9371C112.643 60.8863 112.247 61.032 111.91 61.374C111.603 61.685 111.463 62.0526 111.489 62.4769C111.507 62.8936 111.719 63.3012 112.123 63.6996C112.364 63.9372 112.62 64.1052 112.891 64.2036C113.162 64.2865 113.467 64.3191 113.806 64.3012C114.146 64.2833 114.62 64.2298 115.229 64.1405C116.031 64.0113 116.652 63.9412 117.092 63.9303C117.531 63.904 117.941 63.9551 118.32 64.0836C118.691 64.2045 119.056 64.4411 119.413 64.7936C120.051 65.422 120.384 66.1104 120.412 66.8589C120.433 67.5998 120.16 68.2578 119.593 68.833Z" fill="url(#paint8_linear_1_284)"/>
<path d="M117.985 53.9513C118.062 53.8736 118.139 53.8731 118.217 53.9497L118.706 54.4325C118.784 54.5091 118.785 54.5863 118.708 54.664L117.191 56.2032C117.16 56.2343 117.16 56.2651 117.191 56.2958L124.467 63.4683C124.545 63.5449 124.546 63.6221 124.469 63.6998L123.883 64.2945C123.806 64.3722 123.729 64.3728 123.651 64.2962L116.375 57.1237C116.344 57.093 116.313 57.0932 116.283 57.1243L114.857 58.5702C114.781 58.6479 114.704 58.6485 114.626 58.5719L114.136 58.0891C114.058 58.0125 114.058 57.9353 114.134 57.8576L117.985 53.9513Z" fill="url(#paint9_linear_1_284)"/>
<path d="M63.5116 115.059C63.6971 114.87 63.6969 114.569 63.5109 114.386L63.2584 114.137C63.0725 113.954 62.7712 113.958 62.5857 114.146L61.493 115.254L58.6311 112.433C58.4452 112.25 58.1439 112.254 57.9582 112.442L57.7063 112.698C57.5206 112.886 57.5208 113.188 57.7068 113.371L60.5686 116.192L58.4671 118.324L55.6052 115.503C55.4192 115.319 55.118 115.324 54.9323 115.512L54.6802 115.768C54.4945 115.956 54.4947 116.257 54.6806 116.441L57.5425 119.262L56.4498 120.37C56.2641 120.559 56.2644 120.86 56.4503 121.043L56.7028 121.292C56.8888 121.475 57.19 121.471 57.3757 121.283L58.4684 120.174L60.7409 122.415L59.6482 123.523C59.4627 123.711 59.4633 124.013 59.6491 124.196L59.9014 124.445C60.0875 124.628 60.3888 124.624 60.5745 124.436L61.6672 123.327L64.5291 126.148C64.715 126.332 65.0163 126.328 65.202 126.139L65.4541 125.884C65.6398 125.695 65.6396 125.394 65.4536 125.211L62.5917 122.389L64.6929 120.258L67.5548 123.079C67.7407 123.262 68.042 123.258 68.2277 123.07L68.4796 122.814C68.6653 122.626 68.6651 122.325 68.4792 122.141L65.6173 119.32L66.71 118.212C66.8955 118.024 66.8953 117.722 66.7091 117.539L66.4568 117.29C66.2708 117.107 65.9694 117.111 65.7839 117.299L64.6912 118.407L62.4187 116.167L63.5116 115.059ZM63.7668 119.345L61.6654 121.477L59.393 119.237L61.4942 117.105L63.7668 119.345Z" fill="#F15F4F"/>
<defs>
<filter id="filter0_d_1_284" x="0.890625" y="0.647339" width="178.349" height="179.321" filterUnits="userSpaceOnUse" color-interpolation-filters="sRGB">
<feFlood flood-opacity="0" result="BackgroundImageFix"/>
<feColorMatrix in="SourceAlpha" type="matrix" values="0 0 0 0 0 0 0 0 0 0 0 0 0 0 0 0 0 0 127 0" result="hardAlpha"/>
<feOffset/>
<feGaussianBlur stdDeviation="17.5"/>
<feColorMatrix type="matrix" values="0 0 0 0 0.675278 0 0 0 0 0.76034 0 0 0 0 0.866667 0 0 0 0.5 0"/>
<feBlend mode="normal" in2="BackgroundImageFix" result="effect1_dropShadow_1_284"/>
<feBlend mode="normal" in="SourceGraphic" in2="effect1_dropShadow_1_284" result="shape"/>
</filter>
<linearGradient id="paint0_linear_1_284" x1="76.6927" y1="112.003" x2="126.647" y2="61.3269" gradientUnits="userSpaceOnUse">
<stop stop-color="#F7A293"/>
<stop offset="0.255208" stop-color="#FDDA9A"/>
<stop offset="0.526042" stop-color="#9CDBCD"/>
<stop offset="0.765625" stop-color="#91BDEB"/>
<stop offset="1" stop-color="#B393E1"/>
</linearGradient>
<linearGradient id="paint1_linear_1_284" x1="76.6927" y1="112.003" x2="126.647" y2="61.3269" gradientUnits="userSpaceOnUse">
<stop stop-color="#F7A293"/>
<stop offset="0.255208" stop-color="#FDDA9A"/>
<stop offset="0.526042" stop-color="#9CDBCD"/>
<stop offset="0.765625" stop-color="#91BDEB"/>
<stop offset="1" stop-color="#B393E1"/>
</linearGradient>
<linearGradient id="paint2_linear_1_284" x1="76.6927" y1="112.003" x2="126.647" y2="61.3269" gradientUnits="userSpaceOnUse">
<stop stop-color="#F7A293"/>
<stop offset="0.255208" stop-color="#FDDA9A"/>
<stop offset="0.526042" stop-color="#9CDBCD"/>
<stop offset="0.765625" stop-color="#91BDEB"/>
<stop offset="1" stop-color="#B393E1"/>
</linearGradient>
<linearGradient id="paint3_linear_1_284" x1="76.6927" y1="112.003" x2="126.647" y2="61.3269" gradientUnits="userSpaceOnUse">
<stop stop-color="#F7A293"/>
<stop offset="0.255208" stop-color="#FDDA9A"/>
<stop offset="0.526042" stop-color="#9CDBCD"/>
<stop offset="0.765625" stop-color="#91BDEB"/>
<stop offset="1" stop-color="#B393E1"/>
</linearGradient>
<linearGradient id="paint4_linear_1_284" x1="76.6927" y1="112.003" x2="126.647" y2="61.3269" gradientUnits="userSpaceOnUse">
<stop stop-color="#F7A293"/>
<stop offset="0.255208" stop-color="#FDDA9A"/>
<stop offset="0.526042" stop-color="#9CDBCD"/>
<stop offset="0.765625" stop-color="#91BDEB"/>
<stop offset="1" stop-color="#B393E1"/>
</linearGradient>
<linearGradient id="paint5_linear_1_284" x1="76.6927" y1="112.003" x2="126.647" y2="61.3269" gradientUnits="userSpaceOnUse">
<stop stop-color="#F7A293"/>
<stop offset="0.255208" stop-color="#FDDA9A"/>
<stop offset="0.526042" stop-color="#9CDBCD"/>
<stop offset="0.765625" stop-color="#91BDEB"/>
<stop offset="1" stop-color="#B393E1"/>
</linearGradient>
<linearGradient id="paint6_linear_1_284" x1="76.6927" y1="112.003" x2="126.647" y2="61.3269" gradientUnits="userSpaceOnUse">
<stop stop-color="#F7A293"/>
<stop offset="0.255208" stop-color="#FDDA9A"/>
<stop offset="0.526042" stop-color="#9CDBCD"/>
<stop offset="0.765625" stop-color="#91BDEB"/>
<stop offset="1" stop-color="#B393E1"/>
</linearGradient>
<linearGradient id="paint7_linear_1_284" x1="76.6927" y1="112.003" x2="126.647" y2="61.3269" gradientUnits="userSpaceOnUse">
<stop stop-color="#F7A293"/>
<stop offset="0.255208" stop-color="#FDDA9A"/>
<stop offset="0.526042" stop-color="#9CDBCD"/>
<stop offset="0.765625" stop-color="#91BDEB"/>
<stop offset="1" stop-color="#B393E1"/>
</linearGradient>
<linearGradient id="paint8_linear_1_284" x1="76.6927" y1="112.003" x2="126.647" y2="61.3269" gradientUnits="userSpaceOnUse">
<stop stop-color="#F7A293"/>
<stop offset="0.255208" stop-color="#FDDA9A"/>
<stop offset="0.526042" stop-color="#9CDBCD"/>
<stop offset="0.765625" stop-color="#91BDEB"/>
<stop offset="1" stop-color="#B393E1"/>
</linearGradient>
<linearGradient id="paint9_linear_1_284" x1="76.6927" y1="112.003" x2="126.647" y2="61.3269" gradientUnits="userSpaceOnUse">
<stop stop-color="#F7A293"/>
<stop offset="0.255208" stop-color="#FDDA9A"/>
<stop offset="0.526042" stop-color="#9CDBCD"/>
<stop offset="0.765625" stop-color="#91BDEB"/>
<stop offset="1" stop-color="#B393E1"/>
</linearGradient>
</defs>
</svg>
