<svg width="160" height="48" viewBox="0 0 160 48" fill="none" xmlns="http://www.w3.org/2000/svg">
    <path d="M80.7586 25.6722C79.7634 25.6768 78.7919 25.975 77.9667 26.529C77.1415 27.0831 76.4996 27.8681 76.122 28.7852C75.7444 29.7022 75.648 30.7101 75.845 31.6816C76.042 32.6531 76.5236 33.5447 77.229 34.2439C77.9344 34.9431 78.8319 35.4186 79.8084 35.6102C80.7848 35.8019 81.7964 35.7012 82.7154 35.3208C83.6344 34.9404 84.4197 34.2975 84.9721 33.473C85.5246 32.6486 85.8194 31.6797 85.8194 30.6885C85.8291 30.0251 85.7046 29.3666 85.4534 28.752C85.2022 28.1375 84.8294 27.5796 84.3572 27.1116C83.885 26.6435 83.323 26.2749 82.7048 26.0276C82.0866 25.7803 81.4247 25.6594 80.7586 25.6722V25.6722ZM80.7586 33.7338C80.1466 33.7764 79.5358 33.6347 79.0057 33.327C78.4756 33.0194 78.0507 32.56 77.7862 32.0087C77.5217 31.4573 77.4299 30.8395 77.5227 30.2355C77.6155 29.6315 77.8886 29.0692 78.3065 28.6218C78.7244 28.1744 79.2677 27.8626 79.8659 27.7268C80.4641 27.5911 81.0895 27.6377 81.6608 27.8606C82.2321 28.0835 82.7228 28.4724 83.0692 28.9767C83.4156 29.4811 83.6016 30.0775 83.6031 30.6885C83.6222 31.0757 83.5632 31.4628 83.4297 31.8269C83.2962 32.191 83.0909 32.5248 82.8258 32.8086C82.5607 33.0924 82.2412 33.3205 81.8862 33.4794C81.5311 33.6383 81.1478 33.7248 80.7586 33.7338ZM69.7246 25.6722C68.7289 25.6745 67.7562 25.9707 66.9294 26.5233C66.1026 27.0759 65.4588 27.8602 65.0794 28.777C64.7 29.6938 64.6019 30.7021 64.7976 31.6744C64.9933 32.6467 65.474 33.5394 66.1789 34.2398C66.8838 34.9402 67.7813 35.4168 68.7581 35.6094C69.7349 35.802 70.747 35.702 71.6667 35.3219C72.5864 34.9419 73.3724 34.299 73.9254 33.4743C74.4783 32.6496 74.7735 31.6802 74.7735 30.6885C74.7831 30.0251 74.6587 29.3666 74.4074 28.752C74.1562 28.1375 73.7834 27.5796 73.3112 27.1116C72.8391 26.6435 72.2771 26.2749 71.6589 26.0276C71.0407 25.7803 70.3788 25.6594 69.7127 25.6722H69.7246ZM69.7246 33.7338C69.1122 33.7788 68.5004 33.6392 67.9689 33.3331C67.4373 33.0271 67.0106 32.5687 66.7443 32.0177C66.4779 31.4667 66.3843 30.8487 66.4756 30.244C66.5669 29.6392 66.8389 29.0759 67.2562 28.6273C67.6735 28.1787 68.2167 27.8656 68.8151 27.7288C69.4136 27.592 70.0395 27.6377 70.6115 27.8601C71.1835 28.0825 71.675 28.4713 72.022 28.9757C72.369 29.4802 72.5555 30.077 72.5572 30.6885C72.5763 31.0757 72.5173 31.4628 72.3838 31.8269C72.2503 32.191 72.045 32.5248 71.7799 32.8086C71.5147 33.0924 71.1953 33.3205 70.8402 33.4794C70.4852 33.6383 70.1018 33.7248 69.7127 33.7338H69.7246ZM56.5809 27.2184V29.343H61.7009C61.6206 30.3437 61.2029 31.2879 60.5157 32.0223C60.0034 32.5419 59.3877 32.949 58.7079 33.2173C58.0282 33.4857 57.2996 33.6093 56.569 33.5804C55.0602 33.5804 53.6132 32.9834 52.5464 31.9209C51.4795 30.8584 50.8801 29.4174 50.8801 27.9148C50.8801 26.4122 51.4795 24.9711 52.5464 23.9086C53.6132 22.8461 55.0602 22.2492 56.569 22.2492C58.0123 22.2258 59.4061 22.7733 60.4446 23.7718L61.9498 22.2728C61.2487 21.5658 60.4123 21.0062 59.49 20.627C58.5678 20.2479 57.5785 20.057 56.5809 20.0656C55.5272 20.0248 54.4762 20.1962 53.4906 20.5696C52.5051 20.9429 51.6054 21.5106 50.8455 22.2386C50.0855 22.9665 49.4809 23.8398 49.068 24.806C48.655 25.7722 48.4421 26.8115 48.4421 27.8617C48.4421 28.9118 48.655 29.9511 49.068 30.9173C49.4809 31.8835 50.0855 32.7568 50.8455 33.4847C51.6054 34.2127 52.5051 34.7804 53.4906 35.1538C54.4762 35.5272 55.5272 35.6986 56.5809 35.6577C57.5953 35.7034 58.6078 35.5321 59.5503 35.1555C60.4927 34.7788 61.3432 34.2055 62.0446 33.4741C63.2863 32.1155 63.9492 30.3294 63.8935 28.4931C63.8973 28.0458 63.8576 27.5991 63.7749 27.1594L56.5809 27.2184ZM110.282 28.8708C109.973 27.9652 109.395 27.1745 108.624 26.6033C107.854 26.032 106.927 25.7074 105.968 25.6722C105.319 25.6709 104.678 25.8021 104.082 26.0576C103.487 26.3131 102.95 26.6875 102.506 27.1576C102.062 27.6278 101.719 28.1837 101.499 28.791C101.279 29.3984 101.186 30.0442 101.227 30.6885C101.212 31.3482 101.332 32.0041 101.577 32.6168C101.823 33.2296 102.191 33.7868 102.657 34.255C103.124 34.7232 103.681 35.093 104.295 35.3421C104.908 35.5912 105.566 35.7146 106.228 35.7049C107.057 35.7094 107.875 35.509 108.607 35.1218C109.339 34.7345 109.963 34.1724 110.424 33.4859L108.705 32.3056C108.449 32.7314 108.086 33.0837 107.652 33.3278C107.217 33.572 106.727 33.6996 106.228 33.6984C105.715 33.7179 105.208 33.5831 104.772 33.3115C104.337 33.04 103.993 32.6442 103.787 32.1758L110.531 29.402L110.282 28.8708ZM103.408 30.5469C103.384 30.1818 103.433 29.8156 103.553 29.4698C103.673 29.1239 103.861 28.8054 104.106 28.5328C104.351 28.2602 104.648 28.039 104.98 27.8822C105.312 27.7254 105.672 27.6362 106.039 27.6197C106.421 27.5946 106.802 27.6819 107.135 27.8708C107.468 28.0596 107.738 28.3417 107.911 28.682L103.408 30.5469ZM97.932 35.4099H100.148V20.6558H97.932V35.4099ZM94.3053 26.7935H94.2224C93.8883 26.4215 93.4791 26.1241 93.0216 25.9207C92.5641 25.7173 92.0686 25.6125 91.5675 25.6131C90.2724 25.6757 89.051 26.2321 88.1565 27.1671C87.2621 28.1021 86.7632 29.344 86.7632 30.6354C86.7632 31.9268 87.2621 33.1687 88.1565 34.1037C89.051 35.0387 90.2724 35.5952 91.5675 35.6577C92.0698 35.6661 92.5678 35.5648 93.0264 35.3609C93.4851 35.157 93.8933 34.8554 94.2224 34.4774H94.2935V35.1974C94.2935 37.1213 93.2624 38.1482 91.6031 38.1482C91.0505 38.1353 90.5142 37.959 90.0625 37.6416C89.6108 37.3242 89.2642 36.8801 89.0668 36.3659L87.1349 37.1685C87.4986 38.0495 88.1182 38.8022 88.9143 39.33C89.7104 39.8579 90.6467 40.1369 91.6031 40.1312C94.1987 40.1312 96.3438 38.6085 96.3438 34.9023V25.9672H94.3053V26.7935ZM91.769 33.7338C91.0045 33.6667 90.293 33.3168 89.7747 32.7531C89.2564 32.1895 88.9689 31.4529 88.9689 30.6885C88.9689 29.9242 89.2564 29.1876 89.7747 28.6239C90.293 28.0603 91.0045 27.7104 91.769 27.6433C92.1481 27.6627 92.5194 27.7574 92.8611 27.9219C93.2028 28.0864 93.5081 28.3173 93.7588 28.6011C94.0095 28.8849 94.2006 29.2158 94.321 29.5743C94.4413 29.9328 94.4884 30.3117 94.4594 30.6885C94.4917 31.0671 94.4466 31.4482 94.3268 31.8089C94.2071 32.1695 94.0151 32.5023 93.7625 32.7869C93.5099 33.0716 93.2019 33.3023 92.8572 33.465C92.5126 33.6278 92.1383 33.7192 91.7572 33.7338H91.769ZM120.664 20.6558H115.366V35.4099H117.582V29.8151H120.676C121.307 29.8603 121.942 29.7754 122.539 29.5657C123.136 29.3561 123.684 29.0261 124.147 28.5964C124.611 28.1667 124.98 27.6465 125.233 27.0683C125.486 26.49 125.616 25.8661 125.616 25.2354C125.616 24.6047 125.486 23.9808 125.233 23.4026C124.98 22.8243 124.611 22.3041 124.147 21.8745C123.684 21.4448 123.136 21.1148 122.539 20.9051C121.942 20.6955 121.307 20.6106 120.676 20.6558H120.664ZM120.664 27.7377H117.571V22.7095H120.711C121.385 22.7095 122.032 22.9763 122.509 23.4511C122.986 23.9259 123.253 24.5699 123.253 25.2413C123.253 25.9128 122.986 26.5568 122.509 27.0316C122.032 27.5064 121.385 27.7731 120.711 27.7731L120.664 27.7377ZM134.329 25.6131C133.522 25.5651 132.719 25.7529 132.018 26.1534C131.317 26.5539 130.748 27.1497 130.382 27.8676L132.35 28.682C132.544 28.3259 132.837 28.0337 133.195 27.8409C133.553 27.6481 133.959 27.5631 134.365 27.5961C134.646 27.5634 134.931 27.5868 135.203 27.6649C135.475 27.7431 135.729 27.8745 135.95 28.0513C136.17 28.2282 136.354 28.4471 136.488 28.6952C136.623 28.9433 136.707 29.2157 136.735 29.4964V29.6499C136.023 29.2745 135.229 29.0799 134.424 29.0833C132.302 29.0833 130.157 30.2636 130.157 32.4C130.178 32.8556 130.291 33.3023 130.488 33.7138C130.685 34.1253 130.963 34.4932 131.306 34.7958C131.648 35.0985 132.048 35.3296 132.482 35.4756C132.916 35.6216 133.375 35.6795 133.831 35.6459C134.389 35.6858 134.948 35.5754 135.448 35.3262C135.949 35.077 136.373 34.6982 136.676 34.2295H136.747V35.4099H138.88V29.7325C138.88 27.1476 136.913 25.6485 134.388 25.6485L134.329 25.6131ZM134.056 33.6984C133.333 33.6984 132.326 33.3325 132.326 32.4472C132.326 31.2669 133.582 30.8774 134.696 30.8774C135.4 30.8601 136.096 31.0313 136.711 31.3731C136.637 32.0122 136.334 32.603 135.857 33.0368C135.38 33.4706 134.761 33.7181 134.116 33.7338L134.056 33.6984ZM146.655 25.9672L144.119 32.3646H144.048L141.416 25.9672H139.046L142.993 34.9141L140.741 39.8833H143.052L149.12 25.9672H146.655ZM126.732 35.4099H128.948V20.6558H126.732V35.4099Z" fill="white"/>
    <path d="M12.8189 38.3718L27.2582 23.3954L12.831 8.4458C12.4456 8.67855 12.2072 9.21745 12.2072 9.92287V36.9091C12.2123 37.6145 12.4422 38.114 12.8189 38.3718V38.3718Z" fill="white"/>
    <path d="M27.7754 22.9818L32.0765 18.5202L14.5612 8.55858C14.2663 8.38084 13.9313 8.28695 13.5901 8.28644L27.7737 22.98L27.7754 22.9818Z" fill="white"/>
    <path d="M27.7754 23.8107L13.5469 38.5688C13.904 38.5749 14.2558 38.4782 14.563 38.2895L32.1127 28.301L27.7754 23.8107Z" fill="white"/>
    <path d="M38.4217 22.135L32.5931 18.8138L28.1746 23.3972L32.6259 28.0092L38.42 24.697C39.6521 23.9934 39.652 22.835 38.4217 22.135Z" fill="white"/>
    <path d="M49.9084 16.8433H49.0314V14.4826H49.778C50.1185 14.1233 50.3756 13.694 50.5312 13.2249C50.6869 12.7558 50.7372 12.2585 50.6788 11.7679V8.26231H55.4195V14.4708H56.2136V16.8315H55.3365V15.3443H49.9084V16.8433ZM51.5558 11.8033C51.6111 12.7554 51.3756 13.7018 50.8803 14.518H54.4358V9.13575H51.5558V11.8033ZM63.301 14.4236C62.6081 15.1098 61.6707 15.495 60.6936 15.495C59.7165 15.495 58.779 15.1098 58.0862 14.4236C57.4127 13.7137 57.0375 12.774 57.0375 11.7974C57.0375 10.8207 57.4127 9.8811 58.0862 9.17116C58.4277 8.82856 58.8339 8.55665 59.2814 8.3711C59.7289 8.18555 60.2088 8.09002 60.6936 8.09002C61.1783 8.09002 61.6583 8.18555 62.1058 8.3711C62.5533 8.55665 62.9595 8.82856 63.301 9.17116C63.9771 9.87975 64.3541 10.8199 64.3541 11.7974C64.3541 12.7749 63.9771 13.715 63.301 14.4236ZM58.7617 13.8335C59.2748 14.3423 59.9695 14.628 60.6936 14.628C61.4177 14.628 62.1123 14.3423 62.6254 13.8335C63.1318 13.2775 63.4123 12.5538 63.4123 11.8033C63.4123 11.0527 63.1318 10.329 62.6254 9.77313C62.1123 9.26426 61.4177 8.97856 60.6936 8.97856C59.9695 8.97856 59.2748 9.26426 58.7617 9.77313C58.2554 10.329 57.9749 11.0527 57.9749 11.8033C57.9749 12.5538 58.2554 13.2775 58.7617 13.8335ZM68.9543 15.4977C68.465 15.5074 67.9789 15.4184 67.5251 15.236C67.0712 15.0536 66.6592 14.7816 66.3137 14.4365C65.9682 14.0913 65.6965 13.6801 65.5148 13.2275C65.3331 12.775 65.2453 12.2905 65.2565 11.8033C65.2453 11.3161 65.3331 10.8316 65.5148 10.3791C65.6965 9.92652 65.9682 9.51528 66.3137 9.17011C66.6592 8.82494 67.0712 8.55298 67.5251 8.37059C67.9789 8.18821 68.465 8.09918 68.9543 8.10887C69.4502 8.09664 69.9425 8.19649 70.3941 8.40092C70.8457 8.60535 71.2449 8.90905 71.5617 9.28919L70.9217 9.90296C70.6876 9.60699 70.3858 9.37112 70.0415 9.21506C69.6972 9.059 69.3203 8.98729 68.9425 9.00591C68.5787 8.9965 68.2168 9.06068 67.8786 9.19458C67.5404 9.32848 67.2331 9.52932 66.9751 9.78493C66.4612 10.3442 66.1762 11.0747 66.1762 11.8328C66.1762 12.5909 66.4612 13.3214 66.9751 13.8807C67.2331 14.1363 67.5404 14.3371 67.8786 14.471C68.2168 14.6049 68.5787 14.6691 68.9425 14.6597C69.3596 14.656 69.7707 14.5598 70.1459 14.3781C70.5211 14.1964 70.8509 13.9337 71.1114 13.6092L71.7514 14.2466C71.4288 14.6362 71.0242 14.9505 70.5662 15.1672C70.0603 15.3954 69.5096 15.5083 68.9543 15.4977ZM75.4728 15.3443H74.5603V9.13575H72.5691V8.26231H77.4521V9.13575H75.4728V15.3443ZM83.7336 8.26231L81.0432 14.2348C80.9355 14.5881 80.7203 14.8993 80.4273 15.1256C80.1344 15.3518 79.7781 15.4818 79.4077 15.4977C79.1627 15.4946 78.9208 15.4424 78.6965 15.3443L78.9336 14.5062C79.0776 14.5898 79.241 14.6345 79.4077 14.6361C79.5819 14.6491 79.7558 14.6079 79.9054 14.518C80.0482 14.3977 80.1583 14.2434 80.2254 14.0695L80.4862 13.503L78.1158 8.27411H79.1943L80.9484 12.3344L82.6551 8.26231H83.7336ZM84.7647 15.3443V8.26231H89.9084V15.3443H88.9958V9.13575H85.6773V15.3443H84.7647ZM91.5321 15.3443V8.26231H92.4447V11.2957H96.0002V8.26231H96.9128V15.3443H96.0002V12.1456H92.4447V15.3443H91.5321ZM104.368 14.4236C103.675 15.1098 102.737 15.495 101.76 15.495C100.783 15.495 99.8457 15.1098 99.1528 14.4236C98.4794 13.7137 98.1042 12.774 98.1042 11.7974C98.1042 10.8207 98.4794 9.8811 99.1528 9.17116C99.4944 8.82856 99.9006 8.55665 100.348 8.3711C100.796 8.18555 101.276 8.09002 101.76 8.09002C102.245 8.09002 102.725 8.18555 103.172 8.3711C103.62 8.55665 104.026 8.82856 104.368 9.17116C105.044 9.87975 105.421 10.8199 105.421 11.7974C105.421 12.7749 105.044 13.715 104.368 14.4236ZM99.8284 13.8335C100.342 14.3423 101.036 14.628 101.76 14.628C102.484 14.628 103.179 14.3423 103.692 13.8335C104.198 13.2775 104.479 12.5538 104.479 11.8033C104.479 11.0527 104.198 10.329 103.692 9.77313C103.179 9.26426 102.484 8.97856 101.76 8.97856C101.036 8.97856 100.342 9.26426 99.8284 9.77313C99.322 10.329 99.0415 11.0527 99.0415 11.8033C99.0415 12.5538 99.322 13.2775 99.8284 13.8335ZM109.144 15.3443V8.26231H111.716C112.25 8.25226 112.767 8.44659 113.162 8.80526C113.36 8.97642 113.518 9.18884 113.624 9.42748C113.731 9.66612 113.783 9.92514 113.778 10.1862C113.784 10.5009 113.693 10.8097 113.517 11.0715C113.343 11.3258 113.101 11.5262 112.818 11.6498C113.162 11.7632 113.463 11.9771 113.683 12.2636C113.911 12.5528 114.032 12.9111 114.027 13.2787C114.033 13.5508 113.979 13.8209 113.868 14.0698C113.758 14.3187 113.593 14.5402 113.387 14.7187C112.974 15.0978 112.431 15.3048 111.87 15.2971L109.144 15.3443ZM110.057 11.2957H111.716C111.871 11.3022 112.025 11.2749 112.169 11.2158C112.312 11.1567 112.44 11.0671 112.545 10.9535C112.65 10.8587 112.735 10.7439 112.794 10.6158C112.854 10.4877 112.887 10.3491 112.891 10.2081C112.896 10.0671 112.871 9.92663 112.82 9.79512C112.769 9.66361 112.692 9.54373 112.593 9.44264C112.494 9.33106 112.371 9.24256 112.234 9.18341C112.097 9.12425 111.948 9.09589 111.799 9.10034H110.104L110.057 11.2957ZM110.057 14.4708H111.894C112.054 14.4762 112.214 14.4462 112.361 14.3829C112.509 14.3197 112.641 14.2247 112.747 14.1049C112.956 13.8891 113.075 13.6021 113.079 13.3023C113.079 12.9893 112.954 12.689 112.732 12.4677C112.509 12.2463 112.208 12.122 111.894 12.122H110.092L110.057 14.4708Z" fill="white"/>
    <path fill-rule="evenodd" clip-rule="evenodd" d="M60.6936 8.20805C60.2245 8.20805 59.76 8.3005 59.327 8.48006C58.8943 8.65944 58.5016 8.92222 58.1713 9.25328C57.5193 9.94118 57.156 10.8514 57.156 11.7974C57.156 12.7433 57.5192 13.6534 58.1711 14.3412C58.8416 15.0046 59.7484 15.3769 60.6936 15.3769C61.6388 15.3769 62.5457 15.0046 63.2162 14.3411C63.8707 13.6546 64.2356 12.7441 64.2356 11.7974C64.2356 10.8506 63.8706 9.93994 63.216 9.2534C62.8857 8.92229 62.4929 8.65947 62.0602 8.48006C61.6271 8.3005 61.1627 8.20805 60.6936 8.20805ZM59.2358 8.26213C59.6978 8.07059 60.1932 7.97198 60.6936 7.97198C61.194 7.97198 61.6894 8.07059 62.1513 8.26213C62.6133 8.45367 63.0326 8.73435 63.3851 9.088L63.3869 9.08983C64.084 9.82036 64.4726 10.7896 64.4726 11.7974C64.4726 12.8051 64.084 13.7744 63.3869 14.5049L63.3846 14.5073C62.6695 15.2155 61.702 15.613 60.6936 15.613C59.6851 15.613 58.7177 15.2155 58.0026 14.5073L58 14.5047C57.3057 13.7729 56.919 12.8042 56.919 11.7974C56.919 10.7906 57.3058 9.82196 58 9.0901L58.002 9.08798C58.3546 8.73433 58.7739 8.45367 59.2358 8.26213ZM101.76 8.20805C101.291 8.20805 100.827 8.3005 100.394 8.48006C99.961 8.65943 99.5683 8.92219 99.238 9.25322C98.586 9.94113 98.2227 10.8513 98.2227 11.7974C98.2227 12.7433 98.5859 13.6534 99.2377 14.3412C99.9083 15.0046 100.815 15.3769 101.76 15.3769C102.706 15.3769 103.612 15.0045 104.283 14.341C104.937 13.6545 105.302 12.744 105.302 11.7974C105.302 10.8506 104.937 9.93997 104.283 9.25343C103.952 8.9223 103.56 8.65947 103.127 8.48006C102.694 8.3005 102.229 8.20805 101.76 8.20805ZM100.303 8.26213C100.764 8.07059 101.26 7.97198 101.76 7.97198C102.261 7.97198 102.756 8.07059 103.218 8.26213C103.68 8.45367 104.099 8.73435 104.452 9.088L104.454 9.08983C105.151 9.82037 105.539 10.7896 105.539 11.7974C105.539 12.8051 105.151 13.7744 104.454 14.5049L104.451 14.5073C103.736 15.2155 102.769 15.613 101.76 15.613C100.752 15.613 99.7844 15.2155 99.0693 14.5073L99.0667 14.5047C98.3724 13.7729 97.9857 12.8042 97.9857 11.7974C97.9857 10.7906 98.3725 9.82195 99.0667 9.0901L99.0687 9.08798C99.4212 8.73433 99.8406 8.45367 100.303 8.26213ZM70.345 8.50837C69.9097 8.31132 69.4353 8.21507 68.9573 8.22686L68.952 8.22699C68.4787 8.21762 68.0084 8.30362 67.5694 8.48005C67.1304 8.65647 66.7318 8.91955 66.3976 9.25344C66.0635 9.58733 65.8006 9.98513 65.6248 10.4229C65.4491 10.8606 65.3641 11.3293 65.375 11.8006L65.3752 11.806C65.3642 12.2773 65.4491 12.746 65.6248 13.1837C65.8006 13.6215 66.0635 14.0193 66.3976 14.3531C66.7318 14.687 67.1304 14.9501 67.5694 15.1265C68.0084 15.303 68.4787 15.3891 68.952 15.3797L68.9543 15.4977L68.9566 15.3797C69.4939 15.39 70.0267 15.2808 70.5163 15.0602C70.9258 14.8662 71.2911 14.5915 71.5902 14.253L71.1191 13.7838C70.8622 14.0758 70.5491 14.314 70.1977 14.4842C69.807 14.6734 69.379 14.7737 68.9445 14.7777C68.5651 14.7874 68.1875 14.7204 67.8348 14.5807C67.4817 14.4409 67.1608 14.2312 66.8915 13.9643L66.8875 13.9604C66.3537 13.3794 66.0577 12.6203 66.0577 11.8328C66.0577 11.0453 66.3538 10.2862 66.8876 9.70525L66.8914 9.70116C67.1607 9.43429 67.4817 9.2247 67.8348 9.0849C68.1865 8.94565 68.5628 8.87861 68.9411 8.88781C69.3363 8.86904 69.7304 8.94439 70.0906 9.10763C70.4124 9.2535 70.6989 9.46579 70.9313 9.72988L71.3988 9.28154C71.1058 8.9538 70.7469 8.6903 70.345 8.50837ZM68.9544 15.6158C68.4499 15.6254 67.9486 15.5335 67.4807 15.3454C67.0121 15.1571 66.5865 14.8762 66.2298 14.5198C65.873 14.1633 65.5924 13.7387 65.4047 13.2714C65.2175 12.8049 65.1267 12.3055 65.138 11.8033C65.1267 11.301 65.2175 10.8017 65.4047 10.3352C65.5924 9.86791 65.873 9.44324 66.2298 9.08679C66.5865 8.73034 67.0121 8.44948 67.4807 8.26114C67.9485 8.07312 68.4497 7.98117 68.954 7.9908C69.467 7.97855 69.976 8.08202 70.4431 8.29347C70.911 8.50528 71.3247 8.81994 71.6529 9.21381L71.7232 9.29817L70.9096 10.0784L70.8286 9.976C70.6062 9.69483 70.3195 9.47075 69.9924 9.32249C69.6653 9.17424 69.3073 9.10611 68.9483 9.1238L68.9394 9.12424C68.5916 9.11524 68.2456 9.17626 67.9224 9.30426C67.6 9.43192 67.3068 9.62323 67.0606 9.86666C66.5679 10.4039 66.2947 11.1052 66.2947 11.8328C66.2947 12.5604 66.5679 13.2617 67.0606 13.7989C67.3068 14.0424 67.6 14.2337 67.9224 14.3613C68.2456 14.4893 68.5916 14.5507 68.9394 14.5417L68.9414 14.5417C69.341 14.5381 69.7347 14.446 70.0941 14.2719C70.4534 14.0979 70.7693 13.8463 71.0188 13.5355L71.1015 13.4325L71.9113 14.2389L71.8428 14.3217C71.5092 14.7246 71.0907 15.0497 70.617 15.2738L70.6151 15.2748C70.0938 15.5099 69.5265 15.6264 68.9544 15.6158ZM113.082 8.89242C112.71 8.55414 112.222 8.37085 111.718 8.38032L111.716 8.38034H109.262V15.2242L111.868 15.179L111.872 15.179C112.403 15.1864 112.916 14.9906 113.307 14.6319L113.309 14.6296C113.502 14.4624 113.656 14.255 113.76 14.022C113.863 13.789 113.914 13.5361 113.908 13.2813L113.908 13.2769C113.914 12.9364 113.801 12.6044 113.59 12.3365L113.589 12.3353C113.384 12.0676 113.102 11.8678 112.781 11.7619L112.488 11.6653L112.77 11.5418C113.033 11.4271 113.257 11.2413 113.419 11.0056C113.581 10.7639 113.665 10.4788 113.66 10.1883V10.1839C113.664 9.94012 113.615 9.69825 113.516 9.47541C113.416 9.25258 113.269 9.05423 113.084 8.8944L113.082 8.89242ZM113.241 8.71714C112.824 8.33896 112.278 8.13397 111.715 8.14427H109.025V15.4644L111.868 15.4151L111.87 15.4151C112.461 15.4228 113.032 15.2051 113.466 14.8066C113.685 14.617 113.859 14.3817 113.977 14.1175C114.094 13.8535 114.152 13.567 114.145 13.2783L114.145 13.2805L114.027 13.2787L114.145 13.2761L114.145 13.2783C114.151 12.8847 114.021 12.5011 113.777 12.1913C113.596 11.9553 113.362 11.7656 113.097 11.6359C113.301 11.5077 113.478 11.3384 113.615 11.138L113.616 11.137C113.804 10.8558 113.902 10.5242 113.897 10.1863L113.897 10.1886L113.778 10.1862L113.897 10.1842L113.897 10.1863C113.902 9.90869 113.846 9.6333 113.732 9.37954C113.619 9.12557 113.451 8.89946 113.241 8.71714ZM50.5602 8.14427H55.538V14.3528H56.3321V16.9495H55.218V15.4623H50.0269V16.9613H48.9128V14.3646H49.7264C50.0378 14.0255 50.2738 13.6246 50.4187 13.1879C50.5689 12.7352 50.6175 12.2552 50.5611 11.7818L50.5602 11.7749V8.14427ZM50.7973 8.38034V11.761C50.8565 12.2664 50.8041 12.7787 50.6438 13.262C50.4827 13.7474 50.2166 14.1918 49.8642 14.5636L49.8291 14.6007H49.1499V16.7253H49.7899V15.2262H55.4551V16.7135H56.0951V14.5889H55.301V8.38034H50.7973ZM72.4506 8.14427H77.5706V9.25378H75.5914V15.4623H74.4417V9.25378H72.4506V8.14427ZM72.6877 8.38034V9.01772H74.6788V15.2262H75.3543V9.01772H77.3336V8.38034H72.6877ZM82.5761 8.14427H83.9167L81.1544 14.2763C81.0388 14.65 80.8103 14.9792 80.5 15.2189C80.1876 15.4601 79.8077 15.5987 79.4128 15.6156L79.4061 15.6159C79.1453 15.6126 78.8877 15.5569 78.6489 15.4523L78.5545 15.411L78.861 14.3276L78.9932 14.4042C79.1195 14.4775 79.2627 14.5167 79.4088 14.5181L79.4166 14.5181C79.5631 14.5291 79.7095 14.4956 79.8361 14.4218C79.9602 14.3151 80.056 14.1796 80.1148 14.0271L80.1175 14.0202L80.356 13.5026L77.9323 8.15608H79.2724L80.9467 12.032L82.5761 8.14427ZM82.734 8.38034L80.9501 12.6369L79.1163 8.39214H78.2994L80.6164 13.5033L80.3347 14.1154C80.2603 14.3064 80.139 14.4758 79.982 14.6081L79.9748 14.6142L79.9666 14.6191C79.7971 14.721 79.6001 14.7681 79.4027 14.7541C79.2672 14.7523 79.1337 14.7252 79.0091 14.6745L78.8394 15.2745C79.0207 15.3412 79.2122 15.3768 79.4059 15.3796C79.7505 15.3642 80.082 15.2429 80.3547 15.0323C80.6283 14.821 80.8292 14.5304 80.9298 14.2005L80.932 14.1933L83.5505 8.38034H82.734ZM84.6462 8.14427H90.0269V15.4623H88.8773V9.25378H85.7958V15.4623H84.6462V8.14427ZM84.8832 8.38034V15.2262H85.5588V9.01772H89.1143V15.2262H89.7899V8.38034H84.8832ZM91.4136 8.14427H92.5632V11.1777H95.8817V8.14427H97.0314V15.4623H95.8817V12.2636H92.5632V15.4623H91.4136V8.14427ZM91.6506 8.38034V15.2262H92.3262V12.0276H96.1188V15.2262H96.7943V8.38034H96.1188V11.4138H92.3262V8.38034H91.6506ZM58.6781 9.68949C59.2134 9.1586 59.9381 8.86053 60.6936 8.86053C61.4491 8.86053 62.1738 9.1586 62.7091 9.68949L62.7133 9.69372C63.2395 10.2713 63.5308 11.0234 63.5308 11.8033C63.5308 12.5832 63.2394 13.3351 62.7132 13.9128L62.7092 13.9172C62.1739 14.4481 61.4491 14.7461 60.6936 14.7461C59.9381 14.7461 59.2134 14.448 58.6781 13.9171L58.7617 13.8335L58.674 13.9128C58.1478 13.3351 57.8564 12.5832 57.8564 11.8033C57.8564 11.0234 58.1478 10.2715 58.674 9.69382L58.6781 9.68949ZM58.8475 13.7519C59.3382 14.2374 60.0018 14.51 60.6936 14.51C61.3854 14.51 62.049 14.2374 62.5397 13.7519C63.025 13.218 63.2938 12.5235 63.2938 11.8033C63.2938 11.0831 63.025 10.3886 62.5397 9.85465C62.049 9.36914 61.3854 9.09659 60.6936 9.09659C60.0018 9.09659 59.3382 9.36914 58.8475 9.85465C58.3622 10.3886 58.0934 11.0831 58.0934 11.8033C58.0934 12.5235 58.3622 13.218 58.8475 13.7519ZM99.7448 9.68949C100.28 9.1586 101.005 8.86053 101.76 8.86053C102.516 8.86053 103.24 9.1586 103.776 9.68949L103.78 9.69372C104.306 10.2713 104.597 11.0234 104.597 11.8033C104.597 12.5832 104.306 13.3351 103.78 13.9128L103.776 13.9172C103.241 14.4481 102.516 14.7461 101.76 14.7461C101.005 14.7461 100.28 14.448 99.7448 13.9171L99.8284 13.8335L99.7406 13.9128C99.2145 13.3351 98.923 12.5832 98.923 11.8033C98.923 11.0234 99.2145 10.2715 99.7406 9.69382L99.7448 9.68949ZM99.9142 13.7519C100.405 14.2375 101.068 14.51 101.76 14.51C102.452 14.51 103.116 14.2375 103.606 13.7519C104.092 13.218 104.36 12.5235 104.36 11.8033C104.36 11.083 104.092 10.3885 103.606 9.85464C103.116 9.36913 102.452 9.09659 101.76 9.09659C101.068 9.09659 100.405 9.36913 99.9142 9.85464C99.4289 10.3885 99.1601 11.083 99.1601 11.8033C99.1601 12.5235 99.4289 13.218 99.9142 13.7519ZM111.797 8.98231C111.963 8.97762 112.129 9.00929 112.281 9.07508C112.434 9.14075 112.57 9.23883 112.68 9.3624C112.789 9.47443 112.874 9.60703 112.931 9.75241C112.988 9.89869 113.015 10.0549 113.01 10.2118C113.005 10.3686 112.968 10.5228 112.902 10.6653C112.837 10.8061 112.744 10.9326 112.629 11.0373C112.513 11.1617 112.371 11.2598 112.214 11.3248C112.055 11.3902 111.885 11.4205 111.713 11.4138H109.935L109.988 8.98231H111.797ZM112.187 9.29173C112.066 9.23945 111.934 9.21439 111.802 9.21832L111.799 9.21837H110.22L110.178 11.1777H111.721C111.858 11.1834 111.996 11.1593 112.123 11.1067C112.251 11.0542 112.365 10.9746 112.458 10.8736L112.462 10.8696L112.466 10.866C112.559 10.7819 112.634 10.68 112.687 10.5663C112.74 10.4526 112.769 10.3295 112.773 10.2044C112.777 10.0792 112.755 9.95457 112.71 9.83783C112.664 9.7211 112.596 9.61469 112.508 9.52495L112.504 9.5209C112.416 9.4223 112.308 9.344 112.187 9.29173ZM51.4373 9.01772H54.5543V14.6361H50.6701L50.7788 14.457C51.2618 13.6612 51.4914 12.7384 51.4375 11.8101L51.4371 11.8033L51.4373 9.01772ZM51.6743 9.25378V11.7999C51.7263 12.7058 51.5214 13.6065 51.0852 14.4H54.3173V9.25378H51.6743ZM109.975 12.0039H111.894C112.239 12.0039 112.571 12.1407 112.815 12.3842C113.06 12.6277 113.197 12.958 113.197 13.3023L113.197 13.304C113.193 13.6329 113.063 13.9479 112.834 14.1851C112.716 14.317 112.571 14.4216 112.408 14.4913C112.245 14.5612 112.069 14.5945 111.892 14.5889H109.936L109.975 12.0039ZM110.209 12.24L110.177 14.3528H111.898C112.041 14.3576 112.183 14.3309 112.314 14.2745C112.446 14.2181 112.563 14.1335 112.658 14.0267L112.662 14.0229C112.849 13.8289 112.956 13.571 112.96 13.3014C112.96 13.02 112.848 12.7502 112.648 12.5512C112.448 12.3519 112.176 12.24 111.894 12.24H110.209Z" fill="white"/>
</svg>
