<svg width="160" height="48" viewBox="0 0 160 48" fill="none" xmlns="http://www.w3.org/2000/svg">
    <path d="M38.0597 22.7956C38.027 19.171 41.0398 17.4076 41.1776 17.3255C39.4713 14.8479 36.8266 14.5094 35.8972 14.4824C33.676 14.2496 31.5214 15.8061 30.3898 15.8061C29.2358 15.8061 27.4933 14.5049 25.6154 14.5431C23.1988 14.5803 20.938 15.9737 19.6981 18.1374C17.1392 22.5493 19.0476 29.0328 21.4993 32.599C22.7256 34.3455 24.1586 36.2956 26.0343 36.227C27.8694 36.1517 28.5548 35.0619 30.7693 35.0619C32.9634 35.0619 33.6071 36.227 35.52 36.1832C37.4895 36.1517 38.7294 34.4287 39.9128 32.6665C41.33 30.6646 41.8992 28.6932 41.9218 28.5919C41.8755 28.5762 38.097 27.1401 38.0597 22.7956Z" fill="white"/>
    <path d="M34.4461 12.1364C35.4331 10.9072 36.1084 9.2349 35.9209 7.53784C34.4924 7.60082 32.7059 8.52189 31.6772 9.72411C30.767 10.7835 29.9539 12.5199 30.164 14.1529C31.7686 14.2721 33.4162 13.3465 34.4461 12.1364Z" fill="white"/>
    <path d="M64.6161 35.9761H62.0516L60.6468 31.5799H55.7639L54.4257 35.9761H51.929L56.7667 21.0096H59.7547L64.6161 35.9761ZM60.2233 29.7355L58.9529 25.8275C58.8185 25.4282 58.5667 24.488 58.1952 23.008H58.15C58.0021 23.6446 57.7638 24.5848 57.4363 25.8275L56.1885 29.7355H60.2233V29.7355Z" fill="white"/>
    <path d="M77.0567 30.4474C77.0567 32.2828 76.5587 33.7336 75.5627 34.7986C74.6706 35.7467 73.5628 36.2201 72.2405 36.2201C70.8131 36.2201 69.7878 35.7096 69.1633 34.6884H69.1181V40.3734H66.7105V28.7369C66.7105 27.583 66.6801 26.3988 66.6213 25.1842H68.7387L68.8731 26.8948H68.9182C69.7211 25.6059 70.9396 24.9626 72.5747 24.9626C73.8531 24.9626 74.9202 25.4654 75.7739 26.4719C76.6299 27.4796 77.0567 28.8044 77.0567 30.4474ZM74.604 30.5352C74.604 29.4848 74.3669 28.6188 73.8903 27.9373C73.3697 27.2265 72.6707 26.8711 71.7944 26.8711C71.2004 26.8711 70.6607 27.0691 70.1785 27.4593C69.6952 27.8529 69.379 28.3669 69.231 29.0034C69.1565 29.3003 69.1192 29.5432 69.1192 29.7344V31.5338C69.1192 32.3188 69.3609 32.9812 69.8442 33.5222C70.3275 34.0631 70.9554 34.333 71.7278 34.333C72.6346 34.333 73.3404 33.9844 73.8452 33.2894C74.3511 32.5932 74.604 31.6755 74.604 30.5352Z" fill="white"/>
    <path d="M89.5206 30.4474C89.5206 32.2828 89.0226 33.7336 88.0255 34.7986C87.1345 35.7467 86.0267 36.2201 84.7043 36.2201C83.277 36.2201 82.2516 35.7096 81.6282 34.6884H81.5831V40.3734H79.1755V28.7369C79.1755 27.583 79.145 26.3988 79.0863 25.1842H81.2037L81.338 26.8948H81.3832C82.185 25.6059 83.4034 24.9626 85.0397 24.9626C86.3169 24.9626 87.384 25.4654 88.24 26.4719C89.0926 27.4796 89.5206 28.8044 89.5206 30.4474ZM87.0679 30.5352C87.0679 29.4848 86.8296 28.6188 86.353 27.9373C85.8324 27.2265 85.1357 26.8711 84.2583 26.8711C83.6632 26.8711 83.1245 27.0691 82.6412 27.4593C82.1579 27.8529 81.8428 28.3669 81.6949 29.0034C81.6215 29.3003 81.5831 29.5432 81.5831 29.7344V31.5338C81.5831 32.3188 81.8247 32.9812 82.3058 33.5222C82.7891 34.062 83.417 34.333 84.1917 34.333C85.0984 34.333 85.8042 33.9844 86.309 33.2894C86.8149 32.5932 87.0679 31.6755 87.0679 30.5352Z" fill="white"/>
    <path d="M103.456 31.779C103.456 33.0521 103.012 34.0879 102.121 34.8875C101.142 35.7613 99.7788 36.1977 98.0274 36.1977C96.4103 36.1977 95.1139 35.8873 94.1326 35.2654L94.6904 33.2669C95.7474 33.9035 96.9071 34.2229 98.1708 34.2229C99.0776 34.2229 99.7833 34.0182 100.29 33.6111C100.795 33.2039 101.047 32.6574 101.047 31.9759C101.047 31.3686 100.839 30.8569 100.422 30.4419C100.008 30.0269 99.3158 29.6411 98.3492 29.2846C95.718 28.3073 94.4036 26.8757 94.4036 24.9931C94.4036 23.7627 94.8643 22.7539 95.7869 21.969C96.7061 21.1828 97.9325 20.7903 99.466 20.7903C100.834 20.7903 101.97 21.0276 102.876 21.5011L102.274 23.4557C101.428 22.9969 100.47 22.7674 99.3983 22.7674C98.5513 22.7674 97.8896 22.9755 97.4153 23.3894C97.0144 23.7594 96.8134 24.2103 96.8134 24.7445C96.8134 25.3361 97.0426 25.8253 97.5034 26.2099C97.9043 26.5653 98.6326 26.9499 99.6896 27.3649C100.983 27.8833 101.932 28.4895 102.543 29.1845C103.152 29.8773 103.456 30.7444 103.456 31.779Z" fill="white"/>
    <path d="M111.416 26.9836H108.762V32.2232C108.762 33.5559 109.229 34.2217 110.167 34.2217C110.597 34.2217 110.954 34.1846 111.236 34.1104L111.303 35.9311C110.828 36.1077 110.204 36.1965 109.43 36.1965C108.48 36.1965 107.737 35.9075 107.2 35.3306C106.666 34.7525 106.397 33.7831 106.397 32.4212V26.9814H104.816V25.182H106.397V23.206L108.762 22.4952V25.182H111.416V26.9836Z" fill="white"/>
    <path d="M123.389 30.4915C123.389 32.1503 122.913 33.5122 121.962 34.5772C120.965 35.6737 119.641 36.2203 117.991 36.2203C116.401 36.2203 115.135 35.6951 114.191 34.6447C113.247 33.5943 112.775 32.2684 112.775 30.6703C112.775 28.998 113.261 27.6282 114.235 26.5631C115.208 25.497 116.52 24.9639 118.17 24.9639C119.76 24.9639 121.039 25.4891 122.005 26.5407C122.928 27.5607 123.389 28.8776 123.389 30.4915ZM120.891 30.5691C120.891 29.5738 120.678 28.7202 120.245 28.0083C119.741 27.1468 119.019 26.7172 118.084 26.7172C117.116 26.7172 116.381 27.1479 115.876 28.0083C115.444 28.7213 115.23 29.5884 115.23 30.614C115.23 31.6093 115.444 32.4629 115.876 33.1737C116.397 34.0351 117.124 34.4647 118.062 34.4647C118.982 34.4647 119.703 34.0261 120.224 33.1512C120.668 32.4258 120.891 31.5632 120.891 30.5691Z" fill="white"/>
    <path d="M131.215 27.2929C130.976 27.249 130.722 27.2265 130.456 27.2265C129.609 27.2265 128.954 27.5448 128.493 28.1824C128.092 28.7448 127.891 29.4555 127.891 30.3136V35.9761H125.485L125.507 28.5828C125.507 27.339 125.477 26.2065 125.417 25.1853H127.514L127.602 27.2501H127.669C127.923 26.5405 128.324 25.9692 128.873 25.5407C129.409 25.155 129.988 24.9626 130.613 24.9626C130.835 24.9626 131.036 24.9784 131.215 25.0065V27.2929Z" fill="white"/>
    <path d="M141.982 30.0697C141.982 30.4993 141.954 30.8614 141.894 31.1572H134.671C134.7 32.2233 135.048 33.0387 135.719 33.601C136.328 34.1037 137.115 34.3556 138.082 34.3556C139.151 34.3556 140.127 34.1858 141.004 33.845L141.381 35.5095C140.356 35.9548 139.145 36.1764 137.748 36.1764C136.068 36.1764 134.749 35.6838 133.789 34.6997C132.832 33.7157 132.352 32.3943 132.352 30.7366C132.352 29.1092 132.798 27.7541 133.691 26.6733C134.626 25.5194 135.89 24.9425 137.48 24.9425C139.041 24.9425 140.224 25.5194 141.027 26.6733C141.662 27.5899 141.982 28.7235 141.982 30.0697ZM139.686 29.4477C139.702 28.737 139.545 28.1229 139.219 27.6045C138.802 26.9376 138.162 26.6047 137.3 26.6047C136.513 26.6047 135.873 26.9297 135.384 27.582C134.983 28.1005 134.745 28.7224 134.671 29.4466H139.686V29.4477Z" fill="white"/>
    <path d="M60.5601 17.3522H59.3078V15.4918H54.3037V17.3522H53.0305L52.9888 14.442H53.5993C53.9019 14.151 54.1437 13.7284 54.3246 13.1741C54.5055 12.6163 54.622 11.9858 54.6742 11.2825L54.8725 7.92548H59.6626V14.442H60.6279L60.5601 17.3522ZM55.0916 14.442H58.3477V8.98559H56.13L56.0048 11.1162C55.9109 12.5401 55.6065 13.6487 55.0916 14.442Z" fill="white"/>
    <path d="M61.7936 12.6284C61.7936 12.0776 61.9032 11.5822 62.1224 11.1422C62.3415 10.6987 62.6494 10.3592 63.046 10.1236C63.4425 9.8846 63.8982 9.76508 64.4131 9.76508C65.1749 9.76508 65.7924 10.0093 66.2655 10.4978C66.7421 10.9863 66.9995 11.6341 67.0377 12.4413L67.043 12.7376C67.043 13.2919 66.9351 13.7873 66.7194 14.2238C66.5072 14.6603 66.2011 14.9981 65.8011 15.2371C65.4045 15.4762 64.9453 15.5957 64.4235 15.5957C63.6269 15.5957 62.9886 15.3324 62.5085 14.8058C62.0319 14.2758 61.7936 13.5707 61.7936 12.6908V12.6284ZM63.0616 12.7376C63.0616 13.3161 63.1816 13.7699 63.4217 14.0991C63.6617 14.4247 63.9956 14.5876 64.4235 14.5876C64.8514 14.5876 65.1836 14.4213 65.4202 14.0887C65.6602 13.7561 65.7802 13.2693 65.7802 12.6284C65.7802 12.0603 65.6567 11.6099 65.4097 11.2773C65.1662 10.9447 64.834 10.7784 64.4131 10.7784C63.9991 10.7784 63.6704 10.943 63.4269 11.2721C63.1834 11.5978 63.0616 12.0862 63.0616 12.7376Z" fill="white"/>
    <path d="M70.969 14.5876C71.2855 14.5876 71.5482 14.4957 71.7569 14.3121C71.9656 14.1285 72.0769 13.9016 72.0909 13.6314H73.2858C73.2719 13.9813 73.1623 14.3087 72.957 14.6135C72.7518 14.9149 72.4735 15.154 72.1222 15.3307C71.7708 15.5074 71.3916 15.5957 70.9846 15.5957C70.195 15.5957 69.5688 15.3411 69.1062 14.8318C68.6435 14.3225 68.4122 13.6192 68.4122 12.722V12.592C68.4122 11.7363 68.6418 11.0521 69.1009 10.5394C69.5601 10.0232 70.1863 9.76508 70.9794 9.76508C71.6508 9.76508 72.197 9.96082 72.6179 10.3523C73.0423 10.7403 73.2649 11.2513 73.2858 11.8853H72.0909C72.0769 11.5631 71.9656 11.2981 71.7569 11.0902C71.5517 10.8824 71.289 10.7784 70.969 10.7784C70.5585 10.7784 70.2419 10.9274 70.0193 11.2253C69.7967 11.5198 69.6836 11.9685 69.6801 12.5713V12.7739C69.6801 13.3837 69.7897 13.8392 70.0089 14.1406C70.2315 14.4386 70.5515 14.5876 70.969 14.5876Z" fill="white"/>
    <path d="M79.2207 10.872H77.3892V15.4918H76.1212V10.872H74.3106V9.86901H79.2207V10.872Z" fill="white"/>
    <path d="M82.6406 13.6833L83.7886 9.86901H85.1401L82.8963 16.344C82.5519 17.2898 81.9675 17.7627 81.1431 17.7627C80.9587 17.7627 80.7552 17.7315 80.5326 17.6692V16.6922L80.7726 16.7078C81.0926 16.7078 81.3327 16.6489 81.4927 16.5311C81.6562 16.4168 81.7849 16.2228 81.8788 15.9491L82.0614 15.4658L80.0786 9.86901H81.4457L82.6406 13.6833Z" fill="white"/>
    <path d="M91.195 15.4918H89.9271V10.8876H87.7251V15.4918H86.4571V9.86901H91.195V15.4918Z" fill="white"/>
    <path d="M97.8605 15.4918H96.5925V13.2208H94.3958V15.4918H93.1278V9.86901H94.3958V12.2127H96.5925V9.86901H97.8605V15.4918Z" fill="white"/>
    <path d="M99.5115 12.6284C99.5115 12.0776 99.6211 11.5822 99.8402 11.1422C100.059 10.6987 100.367 10.3592 100.764 10.1236C101.16 9.8846 101.616 9.76508 102.131 9.76508C102.893 9.76508 103.51 10.0093 103.983 10.4978C104.46 10.9863 104.717 11.6341 104.756 12.4413L104.761 12.7376C104.761 13.2919 104.653 13.7873 104.437 14.2238C104.225 14.6603 103.919 14.9981 103.519 15.2371C103.122 15.4762 102.663 15.5957 102.141 15.5957C101.345 15.5957 100.706 15.3324 100.226 14.8058C99.7498 14.2758 99.5115 13.5707 99.5115 12.6908V12.6284ZM100.779 12.7376C100.779 13.3161 100.899 13.7699 101.14 14.0991C101.38 14.4247 101.713 14.5876 102.141 14.5876C102.569 14.5876 102.901 14.4213 103.138 14.0887C103.378 13.7561 103.498 13.2693 103.498 12.6284C103.498 12.0603 103.375 11.6099 103.128 11.2773C102.884 10.9447 102.552 10.7784 102.131 10.7784C101.717 10.7784 101.388 10.943 101.145 11.2721C100.901 11.5978 100.779 12.0862 100.779 12.7376Z" fill="white"/>
    <path d="M109.659 15.4918V9.86901H111.95C112.722 9.86901 113.31 10.0041 113.714 10.2744C114.117 10.5411 114.319 10.9257 114.319 11.428C114.319 11.6878 114.237 11.9217 114.074 12.1295C113.914 12.3339 113.676 12.4916 113.359 12.6024C113.728 12.6787 114.02 12.8328 114.236 13.0649C114.451 13.2971 114.559 13.5707 114.559 13.886C114.559 14.4091 114.364 14.8075 113.975 15.0812C113.589 15.3549 113.032 15.4918 112.305 15.4918H109.659ZM110.927 13.0961V14.494H112.315C112.966 14.494 113.291 14.2619 113.291 13.7977C113.291 13.33 112.961 13.0961 112.3 13.0961H110.927ZM110.927 12.1919H111.971C112.691 12.1919 113.051 11.9806 113.051 11.5579C113.051 11.1145 112.71 10.8858 112.028 10.872H110.927V12.1919Z" fill="white"/>
</svg>
