<svg width="1800" height="1000" viewBox="0 0 1800 1000" fill="none" xmlns="http://www.w3.org/2000/svg">
    <path fill-rule="evenodd" clip-rule="evenodd" d="M699.569 881.962C704.697 883.333 708.531 887.619 709.334 892.883L714.669 927.834L766.983 858.326C771.429 852.42 779.804 851.247 785.691 855.707C791.578 860.167 792.747 868.57 788.302 874.476L716.916 969.324C713.68 973.623 708.193 975.56 702.986 974.241C697.78 972.922 693.867 968.602 693.054 963.277L687.552 927.231L633.806 994.947C629.211 1000.74 620.807 1001.69 615.037 997.082C609.266 992.472 608.313 984.041 612.909 978.252L685.683 886.564C688.989 882.398 694.44 880.592 699.569 881.962Z" fill="#FFBD00"/>
    <path fill-rule="evenodd" clip-rule="evenodd" d="M1592.11 276.132C1592.13 270.5 1596.72 265.964 1602.35 266C1617.04 266.096 1631.82 271.18 1643.9 281.454C1671.12 304.607 1674.47 345.373 1651.4 372.508C1628.32 399.643 1587.54 402.871 1560.32 379.718C1556.02 376.063 1555.49 369.626 1559.13 365.342C1562.78 361.057 1569.22 360.547 1573.51 364.203C1592.14 380.044 1620.04 377.836 1635.83 359.27C1651.62 340.704 1649.32 312.811 1630.7 296.97C1622.42 289.931 1612.34 286.461 1602.28 286.396C1596.65 286.359 1592.09 281.764 1592.11 276.132Z" fill="#43D2FF"/>
    <path fill-rule="evenodd" clip-rule="evenodd" d="M184.504 326.024C179.859 324.369 174.762 326.764 173.119 331.373L166.773 349.179C157.863 374.181 183.694 397.644 207.922 386.555L227.144 377.758C238.595 372.517 252.135 378.34 256.191 390.25L263.966 413.082C265.548 417.727 270.613 420.237 275.279 418.686C279.945 417.135 282.444 412.112 280.862 407.466L273.087 384.634C265.621 362.712 240.697 351.993 219.619 361.64L200.398 370.438C190.503 374.966 179.954 365.384 183.593 355.174L189.939 337.368C191.582 332.758 189.148 327.679 184.504 326.024Z" fill="#6867FC"/>
</svg>
