<svg width="1800" height="1000" viewBox="0 0 1800 1000" fill="none" xmlns="http://www.w3.org/2000/svg">
    <path fill-rule="evenodd" clip-rule="evenodd" d="M1145 870.692C1115.9 870.692 1092.32 894.28 1092.32 923.376C1092.32 952.473 1115.9 976.061 1145 976.061C1174.1 976.061 1197.68 952.473 1197.68 923.376C1197.68 894.28 1174.1 870.692 1145 870.692ZM1068 923.376C1068 880.851 1102.47 846.376 1145 846.376C1187.53 846.376 1222 880.851 1222 923.376C1222 965.902 1187.53 1000.38 1145 1000.38C1102.47 1000.38 1068 965.902 1068 923.376Z" fill="#F2339A"/>
    <path fill-rule="evenodd" clip-rule="evenodd" d="M308.394 957.38C295.338 980.042 262.682 980.042 249.626 957.38L230.59 924.34C217.553 901.712 233.832 873.376 259.974 873.376L298.045 873.376C324.187 873.376 340.467 901.712 327.43 924.34L308.394 957.38ZM263.489 949.393C270.391 961.371 287.629 961.371 294.53 949.393L313.566 916.353C320.486 904.341 311.819 889.376 298.045 889.376L259.974 889.376C246.201 889.376 237.533 904.341 244.454 916.353L263.489 949.393Z" fill="#43F4FF"/>
    <path fill-rule="evenodd" clip-rule="evenodd" d="M326.636 319.248C329.495 322.107 329.513 326.726 326.675 329.564L315.712 340.528C300.318 355.921 273.849 345.029 273.547 323.177L273.308 305.841C273.165 295.513 264.089 287.526 253.838 288.708L234.186 290.975C230.187 291.436 226.547 288.565 226.055 284.562C225.564 280.56 228.407 276.941 232.406 276.48L252.059 274.214C270.928 272.038 287.634 286.738 287.897 305.749L288.136 323.086C288.26 332.01 299.069 336.458 305.356 330.172L316.319 319.209C319.157 316.37 323.776 316.388 326.636 319.248Z" fill="#226AFF"/>
</svg>
