<svg width="1800" height="1000" viewBox="0 0 1800 1000" fill="none" xmlns="http://www.w3.org/2000/svg">
    <path fill-rule="evenodd" clip-rule="evenodd" d="M1566 537.619C1570.44 547.636 1582.16 552.096 1592.18 547.58C1618.32 535.807 1640.71 515.079 1654.23 487.235C1684.7 424.489 1658.83 349.217 1596.44 319.11C1534.06 289.003 1458.78 315.462 1428.31 378.208C1423.49 388.115 1427.58 400.001 1437.43 404.754C1447.28 409.508 1459.17 405.33 1463.98 395.423C1484.83 352.492 1536.33 334.388 1579.02 354.988C1621.71 375.587 1639.41 427.089 1618.56 470.02C1609.29 489.096 1594.02 503.24 1576.12 511.303C1566.1 515.819 1561.56 527.601 1566 537.619Z" fill="#FF5968"/>
    <path fill-rule="evenodd" clip-rule="evenodd" d="M718.35 110.365C725.969 106.739 729.154 97.6343 725.463 90.0286C715.843 70.2016 699.407 53.4481 677.68 43.6615C628.72 21.6073 571.311 43.1213 549.456 91.7143C527.6 140.307 549.573 197.578 598.534 219.632C606.264 223.115 615.329 219.718 618.78 212.045C622.231 204.373 618.761 195.33 611.031 191.848C577.531 176.758 562.497 137.572 577.451 104.325C592.405 71.0768 631.684 56.3567 665.183 71.4464C680.068 78.1513 691.283 89.5811 697.872 103.159C701.562 110.765 710.731 113.991 718.35 110.365Z" fill="#43D2FF"/>
    <path fill-rule="evenodd" clip-rule="evenodd" d="M303.912 752.015C315.544 794.705 276.705 833.544 234.015 821.912L171.776 804.953C129.15 793.338 114.551 740.015 145.643 708.923L190.923 663.643C222.015 632.551 275.338 647.15 286.953 689.776L303.912 752.015ZM240.931 795.85C263.495 801.998 283.998 781.495 277.85 758.931L260.891 696.692C254.725 674.065 226.481 666.438 210.1 682.82L164.82 728.1C148.438 744.481 156.065 772.725 178.692 778.891L240.931 795.85Z" fill="#F35FB8"/>
    <path fill-rule="evenodd" clip-rule="evenodd" d="M1481.19 949.612C1486.19 953.021 1487.51 959.81 1484.12 964.777L1471.05 983.964C1452.7 1010.91 1410.72 1002.27 1404.18 970.213L1398.98 944.778C1395.89 929.625 1380.31 920.411 1365.56 925.012L1337.27 933.831C1331.52 935.626 1325.36 932.419 1323.52 926.668C1321.68 920.918 1324.86 914.801 1330.61 913.007L1358.89 904.187C1386.04 895.719 1414.73 912.679 1420.42 940.571L1425.61 966.006C1428.29 979.099 1445.43 982.624 1452.93 971.622L1466 952.435C1469.38 947.468 1476.18 946.204 1481.19 949.612Z" fill="#FFBD00"/>
</svg>
