<svg width="1800" height="1000" viewBox="0 0 1800 1000" fill="none" xmlns="http://www.w3.org/2000/svg">
    <path fill-rule="evenodd" clip-rule="evenodd" d="M1631.71 359.391C1594.4 377.886 1569.37 414.701 1561.71 430.547C1559.79 434.525 1555.01 436.193 1551.03 434.271C1547.05 432.35 1545.38 427.567 1547.31 423.589C1555.88 405.832 1583.02 365.667 1624.6 345.056C1628.56 343.093 1633.36 344.712 1635.32 348.67C1637.28 352.629 1635.66 357.428 1631.71 359.391Z" fill="#F2339A"/>
    <path fill-rule="evenodd" clip-rule="evenodd" d="M1570.31 339.041C1607.53 320.371 1632.39 283.438 1639.96 267.557C1641.87 263.569 1646.64 261.879 1650.63 263.782C1654.62 265.684 1656.31 270.459 1654.4 274.447C1645.91 292.244 1618.96 332.536 1577.48 353.343C1573.53 355.324 1568.72 353.728 1566.74 349.779C1564.76 345.83 1566.36 341.022 1570.31 339.041Z" fill="#F2339A"/>
    <path fill-rule="evenodd" clip-rule="evenodd" d="M209.723 366.019C205.182 361.477 197.818 361.477 193.277 366.019L155.019 404.277C150.477 408.818 150.477 416.182 155.019 420.723L193.277 458.981C197.818 463.523 205.182 463.523 209.723 458.981L247.981 420.723C252.523 416.182 252.523 408.818 247.981 404.277L209.723 366.019ZM181.53 354.272C192.559 343.243 210.441 343.243 221.47 354.272L259.728 392.53C270.757 403.559 270.757 421.441 259.728 432.47L221.47 470.728C210.441 481.757 192.559 481.757 181.53 470.728L143.272 432.47C132.243 421.441 132.243 403.559 143.272 392.53L181.53 354.272Z" fill="#FFBD00"/>
    <path fill-rule="evenodd" clip-rule="evenodd" d="M767.773 900.936C775.735 901.612 781.632 908.588 780.946 916.518C779.156 937.191 770.301 957.41 754.411 973.235C718.604 1008.9 660.579 1008.93 624.808 973.301C589.038 937.676 589.068 879.888 624.875 844.226C630.529 838.595 639.691 838.591 645.339 844.216C650.987 849.841 650.982 858.965 645.328 864.596C620.828 888.996 620.808 928.535 645.282 952.91C669.757 977.285 709.458 977.265 733.958 952.865C744.844 942.023 750.887 928.229 752.113 914.071C752.799 906.141 759.811 900.26 767.773 900.936Z" fill="#7FC746"/>
</svg>
