<svg width="1800" height="1000" viewBox="0 0 1800 1000" fill="none" xmlns="http://www.w3.org/2000/svg">
    <path fill-rule="evenodd" clip-rule="evenodd" d="M677.282 848.846C677.256 848.875 677.198 848.945 677.129 849.092L662.45 880.252C658.8 888 652.565 894.235 644.817 897.885L613.092 912.83C612.949 912.897 612.88 912.954 612.85 912.98C612.819 913.008 612.797 913.035 612.778 913.067C612.735 913.138 612.679 913.278 612.677 913.476C612.675 913.674 612.728 913.816 612.77 913.888C612.788 913.92 612.81 913.947 612.84 913.976C612.869 914.003 612.938 914.061 613.079 914.131L644.596 929.757C651.816 933.337 657.663 939.184 661.243 946.404L676.869 977.921C676.939 978.062 676.997 978.131 677.024 978.16C677.053 978.19 677.08 978.212 677.112 978.23C677.184 978.272 677.326 978.325 677.524 978.323C677.722 978.321 677.862 978.265 677.933 978.222C677.952 978.21 677.97 978.198 677.987 978.182C677.998 978.173 678.009 978.162 678.02 978.15C678.046 978.12 678.103 978.051 678.17 977.908L693.115 946.183C696.765 938.435 703 932.2 710.748 928.55L741.908 913.871C742.055 913.802 742.125 913.744 742.154 913.718C742.185 913.69 742.206 913.664 742.225 913.633C742.267 913.563 742.323 913.42 742.323 913.217C742.323 913.015 742.267 912.872 742.225 912.802C742.206 912.771 742.185 912.745 742.154 912.717C742.125 912.691 742.055 912.633 741.908 912.564L710.748 897.885C703 894.235 696.765 888 693.115 880.252L678.436 849.092C678.367 848.945 678.309 848.875 678.283 848.846C678.255 848.815 678.229 848.794 678.198 848.775C678.128 848.733 677.985 848.677 677.783 848.677C677.58 848.677 677.437 848.733 677.367 848.775C677.336 848.794 677.31 848.815 677.282 848.846ZM657.519 839.854C665.592 822.715 689.973 822.715 698.046 839.854L712.725 871.014C714.228 874.205 716.795 876.772 719.986 878.275L751.146 892.954C768.285 901.027 768.285 925.408 751.146 933.481L719.986 948.16C716.795 949.663 714.228 952.23 712.725 955.421L697.78 987.146C689.796 1004.1 665.77 1004.34 657.448 987.55L641.822 956.033C640.348 953.06 637.94 950.652 634.967 949.178L603.45 933.552C586.664 925.23 586.905 901.204 603.854 893.22L635.579 878.275C638.77 876.772 641.337 874.205 642.84 871.014L657.519 839.854Z" fill="#43F4FF"/>
    <path fill-rule="evenodd" clip-rule="evenodd" d="M207.5 364.263C188.039 364.263 172.263 380.039 172.263 399.5C172.263 418.961 188.039 434.737 207.5 434.737C226.961 434.737 242.737 418.961 242.737 399.5C242.737 380.039 226.961 364.263 207.5 364.263ZM156 399.5C156 371.057 179.057 348 207.5 348C235.943 348 259 371.057 259 399.5C259 427.943 235.943 451 207.5 451C179.057 451 156 427.943 156 399.5Z" fill="#0551EF"/>
    <path fill-rule="evenodd" clip-rule="evenodd" d="M1684.71 312C1690.95 312 1696 317 1696 323.169V346.995C1696 380.451 1655.29 397.378 1631.14 373.96L1611.99 355.381C1600.58 344.313 1581.98 345.497 1572.1 357.921L1553.15 381.739C1549.3 386.586 1542.2 387.422 1537.31 383.606C1532.41 379.791 1531.56 372.769 1535.42 367.922L1554.37 344.104C1572.56 321.234 1606.78 319.055 1627.79 339.429L1646.94 358.007C1656.8 367.571 1673.43 360.658 1673.43 346.995V323.169C1673.43 317 1678.48 312 1684.71 312Z" fill="#FFBD00"/>
</svg>
