<svg width="1800" height="1000" viewBox="0 0 1800 1000" fill="none" xmlns="http://www.w3.org/2000/svg">
    <path fill-rule="evenodd" clip-rule="evenodd" d="M653.821 278.291C656.893 279.109 659.189 281.668 659.67 284.81L662.866 305.677L694.2 264.18C696.862 260.654 701.879 259.954 705.405 262.616C708.931 265.279 709.631 270.295 706.969 273.821L664.212 330.446C662.274 333.013 658.987 334.169 655.868 333.382C652.75 332.594 650.406 330.015 649.92 326.836L646.624 305.317L614.432 345.743C611.68 349.199 606.647 349.77 603.191 347.018C599.734 344.266 599.164 339.233 601.916 335.776L645.504 281.038C647.485 278.551 650.749 277.473 653.821 278.291Z" fill="#43F4FF"/>
    <path fill-rule="evenodd" clip-rule="evenodd" d="M257.68 819.53C257.674 819.559 257.663 819.628 257.673 819.751L259.861 845.941C260.405 852.454 258.664 858.952 254.937 864.32L239.675 886.299C239.606 886.397 239.582 886.461 239.572 886.49C239.562 886.52 239.558 886.547 239.557 886.575C239.556 886.638 239.573 886.752 239.647 886.884C239.722 887.016 239.81 887.089 239.865 887.121C239.89 887.134 239.914 887.145 239.946 887.152C239.975 887.159 240.042 887.171 240.162 887.163L266.95 885.465C273.086 885.076 279.181 886.709 284.3 890.114L306.65 904.979C306.75 905.045 306.814 905.068 306.843 905.077C306.874 905.086 306.9 905.09 306.929 905.09C306.992 905.09 307.106 905.071 307.236 904.994C307.366 904.917 307.438 904.827 307.468 904.772C307.476 904.756 307.483 904.741 307.488 904.725C307.492 904.714 307.495 904.703 307.498 904.69C307.504 904.661 307.515 904.593 307.505 904.474L305.277 877.809C304.733 871.296 306.474 864.798 310.201 859.43L325.191 837.843C325.262 837.741 325.286 837.676 325.296 837.648C325.305 837.618 325.309 837.592 325.31 837.564C325.311 837.502 325.293 837.386 325.216 837.253C325.139 837.119 325.048 837.046 324.993 837.016C324.969 837.002 324.945 836.993 324.913 836.986C324.884 836.98 324.816 836.969 324.693 836.979L298.503 839.167C291.99 839.711 285.492 837.97 280.124 834.243L258.537 819.253C258.435 819.182 258.37 819.157 258.342 819.148C258.312 819.139 258.286 819.135 258.258 819.134C258.196 819.133 258.08 819.151 257.947 819.228C257.813 819.305 257.74 819.396 257.71 819.451C257.696 819.475 257.687 819.499 257.68 819.53ZM241.19 821.128C239.987 806.723 256.097 797.422 267.971 805.667L289.558 820.657C291.768 822.192 294.444 822.909 297.125 822.685L323.315 820.497C337.72 819.293 347.022 835.403 338.777 847.277L323.787 868.864C322.252 871.074 321.535 873.75 321.759 876.431L323.987 903.096C325.177 917.342 309.393 926.667 297.49 918.75L275.141 903.886C273.033 902.484 270.523 901.811 267.996 901.972L241.209 903.67C226.942 904.575 217.935 888.607 226.089 876.865L241.351 854.886C242.886 852.676 243.603 850 243.379 847.318L241.19 821.128Z" fill="#226AFF"/>
    <path fill-rule="evenodd" clip-rule="evenodd" d="M1082.63 949.124C1055.47 923.337 1066.52 877.967 1102.52 867.475L1155 852.177C1190.94 841.701 1224.92 873.881 1216.07 910.201L1203.18 963.095C1194.34 999.416 1149.34 1012.47 1122.22 986.722L1082.63 949.124ZM1108.96 889.432C1089.93 894.977 1084.09 918.928 1098.45 932.558L1138.05 970.156C1152.44 983.824 1176.23 976.832 1180.89 957.696L1193.77 904.801C1198.44 885.665 1180.52 868.573 1161.44 874.134L1108.96 889.432Z" fill="#F2339A"/>
</svg>
