<svg width="244" height="63" viewBox="0 0 244 63" fill="none" xmlns="http://www.w3.org/2000/svg">
    <path d="M84.0951 30.799V24.5513H87.6569C88.1824 24.5513 88.6884 24.5903 89.175 24.6681C89.6616 24.746 90.0898 24.9017 90.4596 25.1352C90.8294 25.3493 91.1214 25.6607 91.3354 26.0695C91.569 26.4782 91.6858 27.0134 91.6858 27.6752C91.6858 28.3369 91.569 28.8722 91.3354 29.2809C91.1214 29.6896 90.8294 30.0108 90.4596 30.2443C90.0898 30.4584 89.6616 30.6044 89.175 30.6823C88.6884 30.7601 88.1824 30.799 87.6569 30.799H84.0951ZM79.5115 20.9896V41.8347H84.0951V34.3608H88.9123C90.2163 34.3608 91.3257 34.1759 92.2405 33.8061C93.1553 33.4169 93.8949 32.9108 94.4593 32.288C95.0432 31.6652 95.4617 30.9548 95.7147 30.1568C95.9872 29.3393 96.1234 28.5121 96.1234 27.6752C96.1234 26.8188 95.9872 25.9916 95.7147 25.1936C95.4617 24.3956 95.0432 23.6852 94.4593 23.0624C93.8949 22.4396 93.1553 21.9433 92.2405 21.5735C91.3257 21.1842 90.2163 20.9896 88.9123 20.9896H79.5115ZM102.225 34.3024C102.225 33.6991 102.283 33.1054 102.4 32.5215C102.517 31.9376 102.711 31.4219 102.984 30.9742C103.276 30.5266 103.655 30.1665 104.123 29.894C104.59 29.6021 105.174 29.4561 105.874 29.4561C106.575 29.4561 107.159 29.6021 107.626 29.894C108.113 30.1665 108.492 30.5266 108.765 30.9742C109.057 31.4219 109.261 31.9376 109.378 32.5215C109.494 33.1054 109.553 33.6991 109.553 34.3024C109.553 34.9058 109.494 35.4994 109.378 36.0833C109.261 36.6478 109.057 37.1635 108.765 37.6307C108.492 38.0783 108.113 38.4384 107.626 38.7109C107.159 38.9833 106.575 39.1196 105.874 39.1196C105.174 39.1196 104.59 38.9833 104.123 38.7109C103.655 38.4384 103.276 38.0783 102.984 37.6307C102.711 37.1635 102.517 36.6478 102.4 36.0833C102.283 35.4994 102.225 34.9058 102.225 34.3024ZM98.0792 34.3024C98.0792 35.5092 98.2641 36.5991 98.6339 37.5723C99.0037 38.5454 99.5293 39.3823 100.21 40.083C100.892 40.7642 101.709 41.2897 102.663 41.6595C103.617 42.0293 104.687 42.2143 105.874 42.2143C107.062 42.2143 108.132 42.0293 109.086 41.6595C110.059 41.2897 110.886 40.7642 111.567 40.083C112.248 39.3823 112.774 38.5454 113.144 37.5723C113.514 36.5991 113.699 35.5092 113.699 34.3024C113.699 33.0957 113.514 32.0058 113.144 31.0326C112.774 30.04 112.248 29.2031 111.567 28.5218C110.886 27.8212 110.059 27.2859 109.086 26.9161C108.132 26.5269 107.062 26.3322 105.874 26.3322C104.687 26.3322 103.617 26.5269 102.663 26.9161C101.709 27.2859 100.892 27.8212 100.21 28.5218C99.5293 29.2031 99.0037 30.04 98.6339 31.0326C98.2641 32.0058 98.0792 33.0957 98.0792 34.3024ZM119.605 36.93H115.664C115.703 37.9421 115.927 38.7887 116.336 39.4699C116.764 40.1317 117.299 40.6669 117.941 41.0756C118.603 41.4844 119.352 41.7763 120.189 41.9515C121.026 42.1267 121.883 42.2143 122.758 42.2143C123.615 42.2143 124.452 42.1267 125.269 41.9515C126.106 41.7958 126.846 41.5136 127.488 41.1048C128.13 40.6961 128.646 40.1609 129.035 39.4991C129.444 38.8179 129.648 37.981 129.648 36.9884C129.648 36.2877 129.512 35.7038 129.24 35.2367C128.967 34.7501 128.607 34.3511 128.16 34.0397C127.712 33.7088 127.196 33.4461 126.612 33.2514C126.048 33.0568 125.464 32.8913 124.861 32.7551C124.277 32.6189 123.702 32.4924 123.138 32.3756C122.574 32.2588 122.068 32.1323 121.62 31.996C121.192 31.8403 120.841 31.6457 120.569 31.4121C120.296 31.1786 120.16 30.8769 120.16 30.5071C120.16 30.1957 120.238 29.9524 120.394 29.7772C120.549 29.5826 120.734 29.4366 120.948 29.3393C121.182 29.242 121.435 29.1836 121.707 29.1641C121.98 29.1252 122.233 29.1057 122.467 29.1057C123.206 29.1057 123.848 29.2517 124.393 29.5437C124.938 29.8162 125.24 30.3514 125.298 31.1494H129.24C129.162 30.2152 128.919 29.4464 128.51 28.843C128.121 28.2202 127.624 27.7239 127.021 27.3541C126.418 26.9842 125.727 26.7215 124.948 26.5658C124.189 26.4101 123.401 26.3322 122.583 26.3322C121.766 26.3322 120.968 26.4101 120.189 26.5658C119.411 26.702 118.71 26.9551 118.087 27.3249C117.464 27.6752 116.958 28.1618 116.569 28.7846C116.199 29.4074 116.014 30.2054 116.014 31.1786C116.014 31.8403 116.151 32.4048 116.423 32.8719C116.696 33.3195 117.056 33.6991 117.503 34.0105C117.951 34.3024 118.457 34.5457 119.022 34.7404C119.605 34.9155 120.199 35.0712 120.802 35.2075C122.282 35.5189 123.43 35.8303 124.247 36.1417C125.084 36.4531 125.503 36.9202 125.503 37.5431C125.503 37.9129 125.415 38.2243 125.24 38.4773C125.065 38.7109 124.841 38.9055 124.569 39.0612C124.316 39.1974 124.024 39.3045 123.693 39.3823C123.381 39.4407 123.08 39.4699 122.788 39.4699C122.379 39.4699 121.98 39.4213 121.591 39.324C121.221 39.2266 120.89 39.0807 120.598 38.886C120.306 38.6719 120.063 38.4092 119.868 38.0978C119.693 37.7669 119.605 37.3776 119.605 36.93ZM137.33 26.741V22.2157L133.184 22.2157V26.741H130.674V29.5145H133.184V38.4189C133.184 39.178 133.311 39.7911 133.564 40.2582C133.817 40.7253 134.157 41.0854 134.586 41.3384C135.033 41.5914 135.539 41.7569 136.104 41.8347C136.688 41.932 137.301 41.9807 137.943 41.9807C138.352 41.9807 138.77 41.971 139.198 41.9515C139.627 41.932 140.016 41.8931 140.366 41.8347V38.6233C140.172 38.6622 139.967 38.6914 139.753 38.7109C139.539 38.7303 139.315 38.7401 139.082 38.7401C138.381 38.7401 137.914 38.6233 137.68 38.3897C137.447 38.1562 137.33 37.689 137.33 36.9884V29.5145L140.366 29.5145V26.741L137.33 26.741ZM142.455 26.741V41.8347H146.601V33.0762C146.601 32.3366 146.708 31.743 146.922 31.2954C147.136 30.8282 147.389 30.4779 147.681 30.2443C147.993 29.9913 148.304 29.8259 148.616 29.748C148.946 29.6507 149.209 29.6021 149.404 29.6021C150.066 29.6021 150.562 29.7188 150.893 29.9524C151.243 30.1665 151.486 30.4584 151.623 30.8282C151.778 31.198 151.866 31.6068 151.885 32.0544C151.905 32.4826 151.915 32.9205 151.915 33.3682V41.8347H156.06V33.4266C156.06 32.9595 156.089 32.5021 156.148 32.0544C156.226 31.5873 156.362 31.1786 156.557 30.8282C156.771 30.4584 157.053 30.1665 157.403 29.9524C157.773 29.7188 158.25 29.6021 158.834 29.6021C159.418 29.6021 159.875 29.6994 160.206 29.894C160.556 30.0886 160.819 30.3514 160.994 30.6823C161.169 31.0131 161.276 31.4024 161.315 31.8501C161.354 32.2977 161.374 32.7746 161.374 33.2806V41.8347H165.519V31.7333C165.519 30.7601 165.383 29.9329 165.111 29.2517C164.838 28.551 164.459 27.9866 163.972 27.5584C163.486 27.1302 162.902 26.8188 162.22 26.6242C161.539 26.4295 160.8 26.3322 160.002 26.3322C158.951 26.3322 158.036 26.5853 157.257 27.0913C156.498 27.5973 155.895 28.1812 155.447 28.843C155.038 27.9088 154.435 27.2567 153.637 26.8869C152.859 26.5171 151.992 26.3322 151.039 26.3322C150.046 26.3322 149.161 26.5463 148.382 26.9745C147.623 27.4027 146.971 28.0061 146.426 28.7846H146.368V26.741H142.455ZM176.241 43.7032L182.547 26.741L178.256 26.741L174.957 37.0759H174.898L171.482 26.741H167.074L172.358 40.9005C172.475 41.1924 172.534 41.5038 172.534 41.8347C172.534 42.2824 172.397 42.6911 172.125 43.0609C171.872 43.4307 171.473 43.6448 170.928 43.7032C170.519 43.7227 170.11 43.7129 169.702 43.674C169.293 43.6351 168.894 43.5961 168.505 43.5572V46.973C168.933 47.0119 169.351 47.0411 169.76 47.0606C170.188 47.0995 170.616 47.119 171.045 47.119C172.465 47.119 173.575 46.8562 174.373 46.3307C175.171 45.8052 175.794 44.9294 176.241 43.7032ZM191.556 39.1196C190.894 39.1196 190.329 38.9833 189.862 38.7109C189.395 38.4384 189.016 38.088 188.724 37.6598C188.451 37.2122 188.247 36.6964 188.111 36.1125C187.994 35.5286 187.935 34.935 187.935 34.3316C187.935 33.7088 187.994 33.1054 188.111 32.5215C188.227 31.9376 188.422 31.4219 188.694 30.9742C188.986 30.5266 189.356 30.1665 189.804 29.894C190.271 29.6021 190.845 29.4561 191.526 29.4561C192.188 29.4561 192.743 29.6021 193.19 29.894C193.658 30.1665 194.037 30.5363 194.329 31.0034C194.621 31.4511 194.825 31.9668 194.942 32.5507C195.078 33.1346 195.147 33.7283 195.147 34.3316C195.147 34.935 195.088 35.5286 194.971 36.1125C194.855 36.6964 194.65 37.2122 194.358 37.6598C194.086 38.088 193.716 38.4384 193.249 38.7109C192.801 38.9833 192.237 39.1196 191.556 39.1196ZM183.936 26.741V47.119L188.081 47.119V39.9662H188.14C188.646 40.7058 189.288 41.2703 190.067 41.6595C190.865 42.0293 191.731 42.2143 192.665 42.2143C193.774 42.2143 194.738 42.0002 195.555 41.572C196.392 41.1438 197.083 40.5696 197.628 39.8495C198.193 39.1293 198.611 38.3021 198.883 37.3679C199.156 36.4337 199.292 35.4605 199.292 34.4484C199.292 33.3779 199.156 32.3561 198.883 31.3829C198.611 30.3903 198.193 29.5242 197.628 28.7846C197.064 28.045 196.353 27.4514 195.497 27.0037C194.641 26.5561 193.619 26.3322 192.431 26.3322C191.497 26.3322 190.641 26.5171 189.862 26.8869C189.084 27.2567 188.441 27.8504 187.935 28.6678H187.877V26.741H183.936ZM205.462 34.3024C205.462 33.6991 205.52 33.1054 205.637 32.5215C205.754 31.9376 205.949 31.4219 206.221 30.9742C206.513 30.5266 206.892 30.1665 207.36 29.894C207.827 29.6021 208.411 29.4561 209.111 29.4561C209.812 29.4561 210.396 29.6021 210.863 29.894C211.35 30.1665 211.729 30.5266 212.002 30.9742C212.294 31.4219 212.498 31.9376 212.615 32.5215C212.731 33.1054 212.79 33.6991 212.79 34.3024C212.79 34.9058 212.731 35.4994 212.615 36.0833C212.498 36.6478 212.294 37.1635 212.002 37.6307C211.729 38.0783 211.35 38.4384 210.863 38.7109C210.396 38.9833 209.812 39.1196 209.111 39.1196C208.411 39.1196 207.827 38.9833 207.36 38.7109C206.892 38.4384 206.513 38.0783 206.221 37.6307C205.949 37.1635 205.754 36.6478 205.637 36.0833C205.52 35.4994 205.462 34.9058 205.462 34.3024ZM201.316 34.3024C201.316 35.5092 201.501 36.5991 201.871 37.5723C202.241 38.5454 202.766 39.3823 203.447 40.083C204.129 40.7642 204.946 41.2897 205.9 41.6595C206.854 42.0293 207.924 42.2143 209.111 42.2143C210.299 42.2143 211.369 42.0293 212.323 41.6595C213.296 41.2897 214.123 40.7642 214.804 40.083C215.485 39.3823 216.011 38.5454 216.381 37.5723C216.751 36.5991 216.936 35.5092 216.936 34.3024C216.936 33.0957 216.751 32.0058 216.381 31.0326C216.011 30.04 215.485 29.2031 214.804 28.5218C214.123 27.8212 213.296 27.2859 212.323 26.9161C211.369 26.5269 210.299 26.3322 209.111 26.3322C207.924 26.3322 206.854 26.5269 205.9 26.9161C204.946 27.2859 204.129 27.8212 203.447 28.5218C202.766 29.2031 202.241 30.04 201.871 31.0326C201.501 32.0058 201.316 33.0957 201.316 34.3024ZM222.842 36.93L218.901 36.93C218.94 37.9421 219.164 38.7887 219.573 39.4699C220.001 40.1317 220.536 40.6669 221.178 41.0756C221.84 41.4844 222.589 41.7763 223.426 41.9515C224.263 42.1267 225.12 42.2143 225.995 42.2143C226.852 42.2143 227.689 42.1267 228.506 41.9515C229.343 41.7958 230.083 41.5136 230.725 41.1048C231.367 40.6961 231.883 40.1609 232.272 39.4991C232.681 38.8179 232.885 37.981 232.885 36.9884C232.885 36.2877 232.749 35.7038 232.477 35.2367C232.204 34.7501 231.844 34.3511 231.397 34.0397C230.949 33.7088 230.433 33.4461 229.849 33.2514C229.285 33.0568 228.701 32.8913 228.098 32.7551C227.514 32.6189 226.939 32.4924 226.375 32.3756C225.811 32.2588 225.305 32.1323 224.857 31.996C224.429 31.8403 224.078 31.6457 223.806 31.4121C223.533 31.1786 223.397 30.8769 223.397 30.5071C223.397 30.1957 223.475 29.9524 223.631 29.7772C223.786 29.5826 223.971 29.4366 224.185 29.3393C224.419 29.242 224.672 29.1836 224.944 29.1641C225.217 29.1252 225.47 29.1057 225.704 29.1057C226.443 29.1057 227.085 29.2517 227.63 29.5437C228.175 29.8162 228.477 30.3514 228.535 31.1494H232.477C232.399 30.2152 232.156 29.4464 231.747 28.843C231.358 28.2202 230.861 27.7239 230.258 27.3541C229.655 26.9842 228.964 26.7215 228.185 26.5658C227.426 26.4101 226.638 26.3322 225.82 26.3322C225.003 26.3322 224.205 26.4101 223.426 26.5658C222.648 26.702 221.947 26.9551 221.324 27.3249C220.701 27.6752 220.195 28.1618 219.806 28.7846C219.436 29.4074 219.251 30.2054 219.251 31.1786C219.251 31.8403 219.388 32.4048 219.66 32.8719C219.933 33.3195 220.293 33.6991 220.74 34.0105C221.188 34.3024 221.694 34.5457 222.259 34.7404C222.842 34.9155 223.436 35.0712 224.039 35.2075C225.519 35.5189 226.667 35.8303 227.484 36.1417C228.321 36.4531 228.74 36.9202 228.74 37.5431C228.74 37.9129 228.652 38.2243 228.477 38.4773C228.302 38.7109 228.078 38.9055 227.806 39.0612C227.553 39.1974 227.261 39.3045 226.93 39.3823C226.618 39.4407 226.317 39.4699 226.025 39.4699C225.616 39.4699 225.217 39.4213 224.828 39.324C224.458 39.2266 224.127 39.0807 223.835 38.886C223.543 38.6719 223.3 38.4092 223.105 38.0978C222.93 37.7669 222.842 37.3776 222.842 36.93ZM240.567 26.741V22.2157L236.421 22.2157V26.741H233.911V29.5145H236.421V38.4189C236.421 39.178 236.548 39.7911 236.801 40.2582C237.054 40.7253 237.394 41.0854 237.823 41.3384C238.27 41.5914 238.776 41.7569 239.341 41.8347C239.925 41.932 240.538 41.9807 241.18 41.9807C241.589 41.9807 242.007 41.971 242.435 41.9515C242.864 41.932 243.253 41.8931 243.603 41.8347V38.6233C243.409 38.6622 243.204 38.6914 242.99 38.7109C242.776 38.7303 242.552 38.7401 242.319 38.7401C241.618 38.7401 241.151 38.6233 240.917 38.3897C240.684 38.1562 240.567 37.689 240.567 36.9884V29.5145H243.603V26.741H240.567Z" fill="white"/>
    <path d="M41.9199 31.4431C41.9112 25.6557 37.2274 20.9719 31.4429 20.9611C25.656 20.9719 20.9717 25.6557 20.9614 31.4431C20.9717 37.2276 25.656 41.9111 31.4429 41.9202C37.2274 41.9111 41.9112 37.2272 41.9199 31.4431ZM31.4404 0C14.0763 0 0 14.0764 0 31.4407C0 41.7266 4.94054 50.8575 12.5763 56.5938L12.5763 31.4431C12.5763 20.9615 21.0221 12.5809 31.4433 12.5763C41.8621 12.5809 50.3026 21.0218 50.3075 31.4431C50.3022 41.862 41.8621 50.3025 31.4433 50.3074C27.563 50.3058 23.9587 49.1313 20.961 47.1236L20.961 61.0853C24.2397 62.2445 27.7652 62.8813 31.4409 62.8813C48.805 62.8813 62.8813 48.8053 62.8813 31.4407C62.8805 14.0764 48.8046 0 31.4404 0Z" fill="white"/>
</svg>
