<svg width="803" height="535" viewBox="0 0 803 535" fill="none" xmlns="http://www.w3.org/2000/svg">
    <path d="M582.695 479.702C541.521 529.707 474.717 547.742 415.432 524.857L126.683 413.395C76.3473 393.964 39.8208 348.156 30.8011 293.15L15.1309 197.585C7.43185 150.632 37.3336 105.842 82.3889 96.8384L420.916 29.1903C466.8 20.0212 514.225 24.6624 557.605 42.5668L763.434 127.521C803.426 144.027 815.866 196.517 787.85 230.543L582.695 479.702Z" fill="#226AFF"/>
    <path d="M212.917 59.3495C252.822 7.02407 319.151 -13.1865 378.993 8.74646L670.452 115.572C721.26 134.194 758.926 180.213 769.326 236.371L787.393 333.938C796.269 381.874 767.503 428.562 722.688 438.953L385.969 517.029C340.329 527.611 292.802 524.076 248.986 506.839L41.0865 425.051C0.692539 409.161 -13.0626 355.67 14.0896 320.066L212.917 59.3495Z" fill="#0C0C0C"/>
</svg>
