<svg width="967" height="627" viewBox="0 0 967 627" fill="none" xmlns="http://www.w3.org/2000/svg">
    <path d="M180.157 448.811C191.303 565.665 303.957 647.146 420.478 622.632L692.583 565.386C749.855 553.337 798.626 516.978 825.818 466.058L944.186 244.408C972.098 192.142 935.522 128.673 875.42 125.08L240.964 87.1538C190.488 84.1365 149.359 125.931 154.082 175.443L180.157 448.811Z" fill="#0C0C0C"/>
    <path d="M748.714 89.3421C707.37 21.0163 629.052 -12.8691 552.624 4.49989L180.376 89.0967C115.485 103.844 62.7492 153.225 41.9453 218.72L5.80166 332.509C-11.9563 388.415 16.5599 448.373 69.9432 467.372L471.043 610.122C525.408 629.471 584.114 632.247 640.244 618.124L906.574 551.111C958.32 538.091 982.85 476.273 954.718 429.782L748.714 89.3421Z" fill="#226AFF"/>
</svg>
