<?xml version="1.0" encoding="utf-8"?><svg viewBox="0 0 26 26" xmlns="http://www.w3.org/2000/svg" xmlns:xlink="http://www.w3.org/1999/xlink"><style>:root>svg{display:none}:root>svg:target{display:block}</style><svg fill="none" viewBox="0 0 24 24" id="ico-a" xmlns="http://www.w3.org/2000/svg"><path d="M6 19l6.002-14L18 19M8.182 14h7.636M4 19h4M20 19h-4" stroke="currentColor" stroke-linecap="round" stroke-linejoin="round"/></svg><svg fill="none" viewBox="0 0 24 24" id="ico-analytics" xmlns="http://www.w3.org/2000/svg"><path d="M20 12v8M14.7 14.67V20M4 17v3M9.3 13.6V20M15.939 8.508a1.75 1.75 0 11-2.475 2.475 1.75 1.75 0 012.475-2.475M21.342 4.005a1.75 1.75 0 11-2.475 2.475 1.75 1.75 0 012.475-2.475M5.132 9.402a1.75 1.75 0 11-2.475 2.475 1.75 1.75 0 012.475-2.475M10.536 4.9a1.75 1.75 0 11-2.475 2.475 1.75 1.75 0 012.475-2.474M18.77 6.36l-2.73 2.27M13.24 8.78l-2.49-1.67M5.24 9.53l2.72-2.27" stroke="currentColor" stroke-linecap="round" stroke-linejoin="round"/></svg><svg fill="none" viewBox="0 0 24 24" id="ico-archive" xmlns="http://www.w3.org/2000/svg"><path clip-rule="evenodd" d="M21 7H3a1 1 0 01-1-1V4a1 1 0 011-1h18a1 1 0 011 1v2a1 1 0 01-1 1z" stroke="currentColor" stroke-linecap="round" stroke-linejoin="round"/><path d="M20.667 7v12a2 2 0 01-2 2H5.333a2 2 0 01-2-2V7" stroke="currentColor" stroke-linecap="round" stroke-linejoin="round"/><path clip-rule="evenodd" d="M15 14H9a1 1 0 01-1-1v-1a1 1 0 011-1h6a1 1 0 011 1v1a1 1 0 01-1 1z" stroke="currentColor" stroke-linecap="round" stroke-linejoin="round"/></svg><svg fill="none" viewBox="0 0 24 24" id="ico-arrow-bottom" xmlns="http://www.w3.org/2000/svg"><path d="M8 10l4 4 4-4" stroke="currentColor" stroke-linecap="round" stroke-linejoin="round"/></svg><svg fill="none" viewBox="0 0 24 24" id="ico-arrow-left" xmlns="http://www.w3.org/2000/svg"><path d="M14 8l-4 4 4 4" stroke="currentColor" stroke-linecap="round" stroke-linejoin="round"/></svg><svg fill="none" viewBox="0 0 24 24" id="ico-arrow-right" xmlns="http://www.w3.org/2000/svg"><path d="M10 16l4-4-4-4" stroke="currentColor" stroke-linecap="round" stroke-linejoin="round"/></svg><svg fill="none" viewBox="0 0 24 24" id="ico-arrow-top" xmlns="http://www.w3.org/2000/svg"><path d="M16 14l-4-4-4 4" stroke="currentColor" stroke-linecap="round" stroke-linejoin="round"/></svg><svg fill="none" viewBox="0 0 24 24" id="ico-attachment" xmlns="http://www.w3.org/2000/svg"><path d="M13.879 8.375l-5.486 5.486a2.116 2.116 0 000 2.992v0a2.116 2.116 0 002.992 0l7.232-7.232a3.879 3.879 0 000-5.486v0a3.879 3.879 0 00-5.486 0l-7.232 7.232a5.642 5.642 0 000 7.98v0a5.642 5.642 0 007.98 0l4.389-4.389" stroke="currentColor" stroke-linecap="round" stroke-linejoin="round"/></svg><svg fill="none" viewBox="0 0 24 24" id="ico-bell" xmlns="http://www.w3.org/2000/svg"><path d="M13.6 20h-3.2" stroke="currentColor" stroke-linecap="round" stroke-linejoin="round"/><path clip-rule="evenodd" d="M17 10.032V10v0a5 5 0 00-5-5v0a5 5 0 00-5 5v2.504a.855.855 0 01-.472.764l-.503.251A1.857 1.857 0 005 15.178v0c0 1.024.83 1.854 1.854 1.854h10.292c1.024 0 1.854-.83 1.854-1.854v0c0-.702-.397-1.344-1.025-1.658l-.503-.251a.857.857 0 01-.472-.765v-2.472z" stroke="currentColor" stroke-linecap="round" stroke-linejoin="round"/></svg><svg fill="none" viewBox="0 0 24 24" id="ico-bell-off" xmlns="http://www.w3.org/2000/svg"><path d="M13.6 20h-3.2M8 17.032h9.146a1.854 1.854 0 00.829-3.512l-.503-.251a.857.857 0 01-.472-.765V10c0-.523-.08-1.026-.229-1.5M14.5 5.67A5 5 0 007 10v2.504a.855.855 0 01-.472.764l-.503.251c-.348.175-.626.45-.803.78M20.94 4L4 20.94" stroke="currentColor" stroke-linecap="round" stroke-linejoin="round"/></svg><svg fill="none" viewBox="0 0 24 24" id="ico-calendar" xmlns="http://www.w3.org/2000/svg"><path d="M7.498 2.996v3.001M16.502 2.996v3.001M2.996 9.5h18.008" stroke="currentColor" stroke-linecap="round" stroke-linejoin="round"/><rect x="2.996" y="4.497" width="18.008" height="16.507" rx="3" stroke="currentColor" stroke-linecap="round" stroke-linejoin="round"/></svg><svg fill="none" viewBox="0 0 24 24" id="ico-certificate" xmlns="http://www.w3.org/2000/svg"><path d="M9 5.5h6M18 9H6M6 14.5h3M17.121 12.879a3 3 0 11-4.242 4.242 3 3 0 014.242-4.242" stroke="currentColor" stroke-linecap="round" stroke-linejoin="round"/><path d="M17 17.221V22l-2-1-2 1v-4.779" stroke="currentColor" stroke-linecap="round" stroke-linejoin="round"/><path d="M17 19h3a2 2 0 002-2V4a2 2 0 00-2-2H4a2 2 0 00-2 2v13a2 2 0 002 2h9" stroke="currentColor" stroke-linecap="round" stroke-linejoin="round"/></svg><svg fill="none" viewBox="0 0 24 24" id="ico-chain" xmlns="http://www.w3.org/2000/svg"><path d="M18.021 12.019l1.731-1.73a4.272 4.272 0 10-6.04-6.041L10.01 7.949a4.27 4.27 0 000 6.04l-.01.012c.344.338.744.614 1.183.817" stroke="currentColor" stroke-linecap="round" stroke-linejoin="round"/><path d="M12.806 9.192c.439.203.84.48 1.184.819a4.27 4.27 0 010 6.04l-3.702 3.702a4.272 4.272 0 01-6.04-6.04l1.73-1.731" stroke="currentColor" stroke-linecap="round" stroke-linejoin="round"/></svg><svg fill="none" viewBox="0 0 24 24" id="ico-check" xmlns="http://www.w3.org/2000/svg"><path d="M18 9l-6.25 6.25L8 11.5" stroke="currentColor" stroke-linecap="round" stroke-linejoin="round"/></svg><svg fill="none" viewBox="0 0 24 24" id="ico-check-list" xmlns="http://www.w3.org/2000/svg"><path d="M11 5h10M11 12h10M11 19h10" stroke="currentColor" stroke-linecap="round" stroke-linejoin="round"/><path clip-rule="evenodd" d="M6 7H4a1 1 0 01-1-1V4a1 1 0 011-1h2a1 1 0 011 1v2a1 1 0 01-1 1zM6 14H4a1 1 0 01-1-1v-2a1 1 0 011-1h2a1 1 0 011 1v2a1 1 0 01-1 1zM6 21H4a1 1 0 01-1-1v-2a1 1 0 011-1h2a1 1 0 011 1v2a1 1 0 01-1 1z" stroke="currentColor" stroke-linecap="round" stroke-linejoin="round"/></svg><svg fill="none" viewBox="0 0 24 24" id="ico-circle" xmlns="http://www.w3.org/2000/svg"><path fill-rule="evenodd" clip-rule="evenodd" d="M18.364 5.636a9 9 0 010 12.728 9 9 0 110-12.728" fill="currentColor"/></svg><svg fill="none" viewBox="0 0 24 24" id="ico-click" xmlns="http://www.w3.org/2000/svg"><path d="M5.25 5.25A4.25 4.25 0 019.5 1v0a4.25 4.25 0 014.25 4.25M14 12v-1.75a1.5 1.5 0 00-1.5-1.5v0a1.5 1.5 0 00-1.5 1.5M14 11.25a1.5 1.5 0 011.5-1.5v0a1.5 1.5 0 011.5 1.5V13" stroke="currentColor" stroke-linecap="round" stroke-linejoin="round"/><path d="M11 12V5.25a1.5 1.5 0 00-1.5-1.5v0A1.5 1.5 0 008 5.25V14l-1.884-1.884a1.579 1.579 0 00-2.232 0v0a1.525 1.525 0 00-.191 1.924l3.526 5.288A6 6 0 0012.211 22H14a6 6 0 006-6v-3.75a1.5 1.5 0 00-1.5-1.5v0a1.5 1.5 0 00-1.5 1.5" stroke="currentColor" stroke-linecap="round" stroke-linejoin="round"/></svg><svg fill="none" viewBox="0 0 24 24" id="ico-comment" xmlns="http://www.w3.org/2000/svg"><path clip-rule="evenodd" d="M13.75 19.206l3.651 1.807v-3.297C19.58 16.227 21 13.865 21 11.182 21 6.643 16.952 3 12 3s-9 3.643-9 8.182c0 4.539 4.048 8.182 9 8.182a9.87 9.87 0 001.75-.158z" stroke="currentColor" stroke-linecap="round" stroke-linejoin="round"/></svg><svg fill="none" viewBox="0 0 24 24" id="ico-comment-off" xmlns="http://www.w3.org/2000/svg"><path d="M19 6.037c1.25 1.403 2 3.19 2 5.145 0 2.683-1.42 5.045-3.599 6.534v3.297l-3.651-1.807a9.87 9.87 0 01-1.75.158 9.614 9.614 0 01-5-1.378m8.5-14.344A9.756 9.756 0 0012 3c-4.952 0-9 3.643-9 8.182 0 1.28.322 2.49.896 3.566M20.94 4L4 20.94" stroke="currentColor" stroke-linecap="round" stroke-linejoin="round"/></svg><svg fill="none" viewBox="0 0 26 26" id="ico-copy" xmlns="http://www.w3.org/2000/svg"><rect width="14.006" height="14.006" rx="2" transform="matrix(-1 0 0 1 18.002 7.998)" stroke="currentColor" stroke-linecap="round" stroke-linejoin="round"/><path d="M18.002 18.002h2.001a2 2 0 002-2V5.996a2 2 0 00-2-2H9.999a2 2 0 00-2.001 2v2" stroke="currentColor" stroke-linecap="round" stroke-linejoin="round"/></svg><svg fill="none" viewBox="0 0 24 24" id="ico-create-square" xmlns="http://www.w3.org/2000/svg"><path clip-rule="evenodd" d="M8.999 15.001l3.151-.389a1 1 0 00.585-.285l7.634-7.63a2.166 2.166 0 000-3.062v0a2.166 2.166 0 00-3.062 0L9.744 11.2a1 1 0 00-.283.566L8.999 15z" stroke="currentColor" stroke-linecap="round" stroke-linejoin="round"/><path d="M13 3.997H6.998a4.002 4.002 0 00-4.002 4.001v9.004a4.002 4.002 0 004.002 4.002h9.004a4.002 4.002 0 004.001-4.002V11" stroke="currentColor" stroke-linecap="round" stroke-linejoin="round"/></svg><svg fill="none" viewBox="0 0 24 24" id="ico-cursor" xmlns="http://www.w3.org/2000/svg"><path fill-rule="evenodd" clip-rule="evenodd" d="M19.369 17.008h-5.846l-3.745 3.715A1.63 1.63 0 017 19.564V4.632A1.63 1.63 0 019.784 3.48l10.739 10.745a1.632 1.632 0 01-1.154 2.784z" fill="currentColor"/></svg><svg fill="none" viewBox="0 0 24 24" id="ico-device-desktop" xmlns="http://www.w3.org/2000/svg"><path clip-rule="evenodd" d="M18.432 17.002H5.568a2.572 2.572 0 01-2.572-2.572V5.568a2.572 2.572 0 012.572-2.572h12.863a2.572 2.572 0 012.573 2.572v8.861a2.572 2.572 0 01-2.572 2.573z" stroke="currentColor" stroke-linecap="round" stroke-linejoin="round"/><path d="M14 17.002l.501 4.002M10 17.002l-.501 4.002M8.141 21.004h7.718" stroke="currentColor" stroke-linecap="round" stroke-linejoin="round"/></svg><svg fill="none" viewBox="0 0 24 24" id="ico-device-handset" xmlns="http://www.w3.org/2000/svg"><path d="M9.499 2.996v1.801a.557.557 0 00.5.6h4.002a.557.557 0 00.5-.6v-1.8" stroke="currentColor" stroke-linecap="round" stroke-linejoin="round"/><path clip-rule="evenodd" d="M16.002 21.004H7.998a2 2 0 01-2-2.001V4.997a2 2 0 012-2h8.004a2 2 0 012 2v14.006a2 2 0 01-2 2z" stroke="currentColor" stroke-linecap="round" stroke-linejoin="round"/></svg><svg fill="none" viewBox="0 0 24 24" id="ico-discussion" xmlns="http://www.w3.org/2000/svg"><path d="M18.503 18.567v1.936a.5.5 0 01-.854.353l-2.29-2.29M18.003 9.499h.503a2.497 2.497 0 012.498 2.497v4.073a2.497 2.497 0 01-2.498 2.498v0" stroke="currentColor" stroke-linecap="round" stroke-linejoin="round"/><path d="M15.363 18.567h-2.866a2.497 2.497 0 01-2.498-2.498v-1.068" stroke="currentColor" stroke-linecap="round" stroke-linejoin="round"/><path clip-rule="evenodd" d="M8.705 12L6.35 14.354A.5.5 0 015.497 14v-2h-.003a2.497 2.497 0 01-2.498-2.498V5.494a2.498 2.498 0 012.498-2.498h7.01A2.498 2.498 0 0115 5.494v4.008A2.498 2.498 0 0112.504 12h-3.8z" stroke="currentColor" stroke-linecap="round" stroke-linejoin="round"/><path d="M6.998 5.997h3.001M6.998 8.999h1M15.001 15.001h2.001" stroke="currentColor" stroke-linecap="round" stroke-linejoin="round"/></svg><svg fill="none" viewBox="0 0 24 24" id="ico-download" xmlns="http://www.w3.org/2000/svg"><path d="M12 17V3M20 21H4M17 12l-5.001 5.001-5-5.001" stroke="currentColor" stroke-linecap="round" stroke-linejoin="round"/></svg><svg fill="none" viewBox="0 0 24 24" id="ico-edit-meta" xmlns="http://www.w3.org/2000/svg"><path d="M21 10.713v8.276C21 20.1 20.129 21 19.054 21H4.946C3.871 21 3 20.1 3 18.99V7.01C3 5.9 3.871 5 4.946 5h5.351" stroke="currentColor" stroke-linecap="round" stroke-linejoin="round"/><path clip-rule="evenodd" d="M18.062 3.505a1.72 1.72 0 012.434 0v0a1.72 1.72 0 01-.001 2.434l-5.774 5.769a.998.998 0 01-.706.292H12V9.985a1 1 0 01.293-.707l5.769-5.773v0z" stroke="currentColor" stroke-linecap="round" stroke-linejoin="round"/><path d="M8 12H6M6 16h12M19.43 7L17 4.57" stroke="currentColor" stroke-linecap="round" stroke-linejoin="round"/></svg><svg fill="none" viewBox="0 0 24 24" id="ico-emoji-activity" xmlns="http://www.w3.org/2000/svg"><path d="M18.364 5.636A9 9 0 115.636 18.364 9 9 0 0118.364 5.636M15.685 10.816l1.895-.616" stroke="currentColor" stroke-linecap="round" stroke-linejoin="round"/><path d="M20.946 12.8l-3.364-2.604 1.192-4.083M12 8.144V6.145M15.516 3.746L12 6.141 8.484 3.746M14.274 15.136l1.174 1.62M14.013 20.762l1.437-4.003 4.251-.13M8.315 10.816L6.42 10.2M3.054 12.8l3.364-2.604-1.192-4.083M9.726 15.136l-1.174 1.62M9.987 20.762L8.55 16.76l-4.251-.13" stroke="currentColor" stroke-linecap="round" stroke-linejoin="round"/><path clip-rule="evenodd" d="M12 8.14l3.68 2.675-1.405 4.325h-4.55L8.32 10.816 12 8.14z" stroke="currentColor" stroke-linecap="round" stroke-linejoin="round"/></svg><svg fill="none" viewBox="0 0 24 24" id="ico-emoji-animal" xmlns="http://www.w3.org/2000/svg"><path d="M9.5 11.5c0 .33-.09.605-.209.783-.121.182-.234.217-.291.217-.057 0-.17-.035-.291-.217A1.437 1.437 0 018.5 11.5c0-.33.09-.605.209-.783.121-.182.234-.217.291-.217.057 0 .17.035.291.217.12.178.209.454.209.783zM15.5 11.5c0 .33-.09.605-.209.783-.121.182-.234.217-.291.217-.057 0-.17-.035-.291-.217a1.438 1.438 0 01-.209-.783c0-.33.09-.605.209-.783.121-.182.234-.217.291-.217.057 0 .17.035.291.217.12.178.209.454.209.783z" fill="#000" stroke="currentColor"/><path d="M12 5C9.154 5 6.114 6.983 5.455 9.8a3.815 3.815 0 01-1.065 1.81C3.554 12.397 3 13.396 3 14.6c0 2.328 2.045 3.2 4.5 4.4.746.365 1.226.932 1.636 1.2 1.228.8 1.822.8 2.864.8M12 5c2.846 0 5.886 1.983 6.546 4.8a3.815 3.815 0 001.064 1.81c.836.787 1.39 1.786 1.39 2.99 0 2.328-2.046 3.2-4.5 4.4-.746.365-1.226.932-1.636 1.2-1.228.8-1.822.8-2.864.8" stroke="currentColor" stroke-linecap="round" stroke-linejoin="round"/><path d="M14 14.8c0 .667-.94 1.2-2 1.2s-2-.533-2-1.2c0-.533 1.36-.8 2-.8.64 0 2 .267 2 .8z" fill="currentColor"/><path d="M10 17s.8 1 2 1 2-1 2-1" stroke="currentColor" stroke-linecap="round" stroke-linejoin="round"/><path d="M9 4.905A3.114 3.114 0 006.113 3C4.393 3 3 4.365 3 6.048 3 7.468 3.992 8.662 5.335 9M15 4.905A3.114 3.114 0 0117.887 3C19.607 3 21 4.365 21 6.048c0 1.42-.992 2.614-2.335 2.952" stroke="currentColor" stroke-linecap="round"/></svg><svg fill="none" viewBox="0 0 24 24" id="ico-emoji-apple" xmlns="http://www.w3.org/2000/svg"><path clip-rule="evenodd" d="M11.592 9.168c-.656 0-1.678-.764-2.74-.764-1.412 0-2.704.863-3.432 2.129-1.464 2.542-.377 6.298 1.051 8.364.701 1.006 1.527 2.138 2.623 2.102 1.051-.045 1.446-.683 2.722-.683 1.267 0 1.626.683 2.74.656 1.132-.018 1.851-1.024 2.542-2.04a9.015 9.015 0 001.15-2.362c-.027-.01-2.201-.844-2.228-3.36-.018-2.102 1.716-3.108 1.797-3.153-.988-1.446-2.506-1.608-3.036-1.644-1.384-.108-2.542.755-3.189.755v0z" stroke="currentColor" stroke-linecap="round" stroke-linejoin="round"/><path d="M13.65 2.954c.87-.323 1.438.154 1.27 1.066-.167.912-1.008 1.913-1.877 2.237-.869.323-1.437-.154-1.27-1.066.168-.912 1.009-1.913 1.878-2.237" stroke="currentColor" stroke-linecap="round" stroke-linejoin="round"/></svg><svg fill="none" viewBox="0 0 24 24" id="ico-emoji-facebook" xmlns="http://www.w3.org/2000/svg"><path clip-rule="evenodd" d="M12 21a9 9 0 100-18 9 9 0 000 18z" stroke="currentColor" stroke-linecap="round" stroke-linejoin="round"/><path d="M10.1 12.9h5.4M15.5 8.4h-.945a2.655 2.655 0 00-2.655 2.655V21" stroke="currentColor" stroke-linecap="round" stroke-linejoin="round"/></svg><svg fill="none" viewBox="0 0 24 24" id="ico-emoji-flag" xmlns="http://www.w3.org/2000/svg"><path d="M5 21V3.93M19 14.02V4M5 14s.875-.727 3.5-.727S12.875 15 15.5 15s3.5-.977 3.5-.977M5 3.932S5.875 3 8.5 3s4.375 1.727 7 1.727S19 4 19 4" stroke="currentColor" stroke-linecap="round" stroke-linejoin="round"/></svg><svg fill="none" viewBox="0 0 24 24" id="ico-emoji-food" xmlns="http://www.w3.org/2000/svg"><path d="M14 15v-1a3 3 0 00-3-3H6a3 3 0 00-3 3v1" stroke="currentColor" stroke-linecap="round" stroke-linejoin="round"/><path clip-rule="evenodd" d="M12 21H5a2 2 0 01-2-2v-1h11v1a2 2 0 01-2 2z" stroke="currentColor" stroke-linecap="round" stroke-linejoin="round"/><path d="M2 15h13M10.684 11l-.381-2.868A1 1 0 0111.295 7H20a1 1 0 01.99 1.141l-1.714 12a1.001 1.001 0 01-.99.859h-2.133" stroke="currentColor" stroke-linecap="round" stroke-linejoin="round"/><path d="M19.153 3h-2.137a1 1 0 00-.989.853L15.559 7" stroke="currentColor" stroke-linecap="round" stroke-linejoin="round"/></svg><svg fill="none" viewBox="0 0 24 24" id="ico-emoji-google" xmlns="http://www.w3.org/2000/svg"><path d="M8.4 3l1.35 1.35M15.6 3l-1.35 1.35" stroke="currentColor" stroke-linecap="round" stroke-linejoin="round"/><path clip-rule="evenodd" d="M16.4 18.3H7.6a1 1 0 01-1-1v-8h10.8v8a1 1 0 01-1 1z" stroke="currentColor" stroke-linecap="round" stroke-linejoin="round"/><path d="M17.4 9.3v0A5.4 5.4 0 0012 3.9v0a5.4 5.4 0 00-5.4 5.4v0M20 9.25v5.5M4 9.25v5.5M9.3 18.3V21M14.7 18.3V21" stroke="currentColor" stroke-linecap="round" stroke-linejoin="round"/></svg><svg fill="none" viewBox="0 0 24 24" id="ico-emoji-object" xmlns="http://www.w3.org/2000/svg"><path d="M12 15.002v-4.59M9.881 10.411h4.237" stroke="currentColor" stroke-linecap="round" stroke-linejoin="round"/><path clip-rule="evenodd" d="M15.001 15.264v2.739a3.001 3.001 0 01-3.001 3v0a3.001 3.001 0 01-3.001-3v-2.739a6.503 6.503 0 116.002 0v0z" stroke="currentColor" stroke-linecap="round" stroke-linejoin="round"/><path d="M15.457 15.002H8.543" stroke="currentColor" stroke-linecap="round" stroke-linejoin="round"/></svg><svg fill="none" viewBox="0 0 24 24" id="ico-emoji-recent" xmlns="http://www.w3.org/2000/svg"><path d="M7.947 12.606h4.652" stroke="currentColor" stroke-linecap="round" stroke-linejoin="round"/><circle r="9.004" transform="matrix(-1 0 0 1 11.996 12.004)" stroke="currentColor" stroke-linecap="round" stroke-linejoin="round"/><path d="M12.599 12.606V7.002" stroke="currentColor" stroke-linecap="round" stroke-linejoin="round"/></svg><svg fill="none" viewBox="0 0 24 24" id="ico-emoji-smile" xmlns="http://www.w3.org/2000/svg"><path d="M3 12a9 9 0 019-9 9 9 0 019 9M21 12a9 9 0 01-9 9 9 9 0 01-9-9M8.5 9v1M15.5 9v1" stroke="currentColor" stroke-linecap="round" stroke-linejoin="round"/><path d="M15.5 14.688S14.187 16 12 16c-2.188 0-3.5-1.312-3.5-1.312" stroke="currentColor" stroke-linecap="round" stroke-linejoin="round"/></svg><svg fill="none" viewBox="0 0 24 24" id="ico-emoji-symbol" xmlns="http://www.w3.org/2000/svg"><path d="M14 17c.552 0 1-.672 1-1.5s-.448-1.5-1-1.5-1 .672-1 1.5.448 1.5 1 1.5zM19 21c.552 0 1-.672 1-1.5s-.448-1.5-1-1.5-1 .672-1 1.5.448 1.5 1 1.5zM19 14l-5 7M3 6h9M3 3h9M7 6v5M15.198 10.972c1.099-.16 1.901-.948 1.792-1.76-.11-.814-1.089-1.343-2.188-1.184-1.1.16-1.902.948-1.792 1.76.11.814 1.089 1.343 2.188 1.184zM17 9V3l2.108 1.125s1.686.75.422 2.625M10 20.598L5.6 16.2s-.8-.8-.8-1.6S5.6 13 6.4 13s1.6.8 1.6 1.6-.8 1.6-1.6 2c-1.186.592-2.4.8-2.4 2.399 0 1.6 1.571 2.032 2.8 2 .985-.027 2.4-.8 2.8-2.4l.4-1.6" stroke="currentColor" stroke-linecap="round" stroke-linejoin="round"/></svg><svg fill="none" viewBox="0 0 24 24" id="ico-emoji-travel" xmlns="http://www.w3.org/2000/svg"><path d="M8.95 7.5h3.4M9.3 12H6.6v6.3" stroke="currentColor" stroke-linecap="round" stroke-linejoin="round"/><path d="M6.6 18.3H3V8.006a1.7 1.7 0 01.875-1.486l5.95-3.306a1.7 1.7 0 011.651 0l5.95 3.306c.54.3.874.868.874 1.486V9.3M21 17.22a1.8 1.8 0 00-1.8-1.8H12a1.8 1.8 0 00-1.8 1.8" stroke="currentColor" stroke-linecap="round" stroke-linejoin="round"/><path d="M10.2 17.22v2.88a.9.9 0 00.9.9h.891a.9.9 0 00.9-.9v-.595h5.418v.595a.9.9 0 00.9.9h.891a.9.9 0 00.9-.9v-2.88M19.655 15.363L21 14.691M11.55 15.363l-1.35-.672M13.411 12a1.35 1.35 0 00-1.31 1.04l-.57 2.439.57-2.44A1.35 1.35 0 0113.41 12h4.378a1.35 1.35 0 011.31 1.04l.571 2.439" stroke="currentColor" stroke-linecap="round" stroke-linejoin="round"/></svg><svg fill="none" viewBox="0 0 24 24" id="ico-emoji-twitter" xmlns="http://www.w3.org/2000/svg"><path d="M19.931 10.02a1 1 0 00-2 0h2zM5.27 15.86a1 1 0 00-1.615 1.18l1.615-1.18zm-.964-.397a1 1 0 10.312 1.975l-.312-1.975zm2.568.184l.318.948a1 1 0 00.393-1.652l-.711.704zM6.069 6l.88-.473a1 1 0 00-1.693-.11L6.069 6zm4.823 4.02l-.236.971a1 1 0 001.236-.939l-1-.033zm7.235-2.412l-.834.55a1 1 0 00.834.45v-1zm2.412 0l.832.554a1 1 0 00-.832-1.554v1zm-2.44 1.857a1 1 0 101.664 1.11L18.1 9.464zm-.168.554c0 2.63-.75 4.787-2.06 6.272-1.298 1.47-3.223 2.375-5.783 2.375v2c3.068 0 5.564-1.105 7.282-3.051 1.704-1.932 2.561-4.598 2.561-7.596h-2zm-7.843 8.647c-1.415 0-2.336-.363-3.02-.848-.715-.506-1.233-1.182-1.8-1.957l-1.614 1.18c.556.761 1.244 1.692 2.258 2.41 1.045.74 2.376 1.215 4.176 1.215v-2zm-5.47-1.228a.965.965 0 00.148-.035l.033-.01.085-.028a134.192 134.192 0 001.11-.37l.823-.275.271-.09.076-.026.02-.007.005-.002h.001l-.317-.948-.318-.949-.002.001-.005.002-.02.006-.075.026-.271.09-.822.276-.827.275c-.113.038-.207.07-.273.09l-.074.025-.01.003h-.002.003l.008-.003.022-.006.028-.007c.008-.002.035-.008.07-.013l.312 1.975zm2.966-2.495c-2.336-2.36-2.509-5.837-.702-8.36L5.256 5.417c-2.363 3.3-2.129 7.864.906 10.932l1.422-1.407zm-2.396-8.47c1.086 2.022 3.136 3.95 5.468 4.518l.473-1.943c-1.645-.4-3.288-1.863-4.18-3.521l-1.76.946zm6.704 3.58c.03-.943.362-1.7.866-2.215.498-.509 1.22-.838 2.154-.838V5c-1.434 0-2.684.52-3.584 1.44-.895.914-1.39 2.167-1.435 3.547l1.999.065zM14.912 7c.676 0 1.148.128 1.495.314.346.184.63.458.886.845l1.669-1.102c-.4-.606-.917-1.136-1.613-1.508C16.656 5.18 15.847 5 14.912 5v2zm3.215 1.608h2.412v-2h-2.412v2zm1.58-1.555l-1.608 2.412 1.664 1.11 1.608-2.413-1.664-1.109z" fill="currentColor"/></svg><svg fill="none" viewBox="0 0 24 24" id="ico-eye" xmlns="http://www.w3.org/2000/svg"><path clip-rule="evenodd" d="M3.118 12.467a.987.987 0 010-.935C5.01 8.033 8.505 5 12 5s6.99 3.033 8.882 6.533a.987.987 0 010 .935C18.99 15.967 15.495 19 12 19s-6.99-3.033-8.882-6.533z" stroke="currentColor" stroke-linecap="round" stroke-linejoin="round"/><path d="M14.121 9.879A3 3 0 119.88 14.12 3 3 0 0114.12 9.88" stroke="currentColor" stroke-linecap="round" stroke-linejoin="round"/></svg><svg fill="none" viewBox="0 0 24 24" id="ico-eye-off" xmlns="http://www.w3.org/2000/svg"><path d="M12 19c-.842 0-1.685-.178-2.504-.495M20.882 12.468C18.99 15.967 15.495 19 12 19M19.08 8.92a15.135 15.135 0 011.802 2.613.987.987 0 010 .935M5 19L19 5M9.773 14.227a3.15 3.15 0 014.455-4.455" stroke="currentColor" stroke-linecap="round" stroke-linejoin="round"/><path d="M17.044 6.956C15.497 5.759 13.748 5 12 5c-3.495 0-6.99 3.033-8.882 6.533a.987.987 0 000 .935c.946 1.749 2.292 3.381 3.838 4.577" stroke="currentColor" stroke-linecap="round" stroke-linejoin="round"/></svg><svg fill="none" viewBox="0 0 24 24" id="ico-facebook" xmlns="http://www.w3.org/2000/svg"><path d="M13.49 22v-9.123h2.95l.44-3.555h-3.39v-2.27c0-1.03.276-1.731 1.697-1.731L17 5.32V2.14A23.4 23.4 0 0014.359 2c-2.614 0-4.403 1.657-4.403 4.7v2.622H7v3.555h2.956V22h3.535z" fill="currentColor"/></svg><svg fill="none" viewBox="0 0 24 24" id="ico-filter" xmlns="http://www.w3.org/2000/svg"><path d="M14.5 13.5l5.207-5.207A1 1 0 0020 7.586V5a1 1 0 00-1-1H5a1 1 0 00-1 1v2.586c0 .265.105.52.293.707L9.5 13.5M9.5 13.5v6.249c0 .813.764 1.41 1.553 1.213l2.5-.625a1.25 1.25 0 00.947-1.213V13.5" stroke="currentColor" stroke-linecap="round" stroke-linejoin="round"/></svg><svg fill="none" viewBox="0 0 24 24" id="ico-gear" xmlns="http://www.w3.org/2000/svg"><path d="M14.121 9.879A3 3 0 119.88 14.12 3 3 0 0114.12 9.88" stroke="currentColor" stroke-linecap="round" stroke-linejoin="round"/><path clip-rule="evenodd" d="M16.18 18.725v0a1.29 1.29 0 001.823 0l.722-.722a1.29 1.29 0 000-1.823v0a1.324 1.324 0 01-.284-1.453 7.63 7.63 0 00.065-.16 1.217 1.217 0 011.137-.766h.067c.712 0 1.289-.577 1.289-1.289v-1.021c0-.712-.577-1.289-1.289-1.289h-.067c-.5 0-.954-.301-1.137-.766a7.63 7.63 0 00-.065-.16 1.324 1.324 0 01.284-1.453v0a1.29 1.29 0 000-1.823l-.722-.722a1.29 1.29 0 00-1.823 0v0a1.324 1.324 0 01-1.453.284l-.16-.065a1.227 1.227 0 01-.767-1.141v-.067C13.8 3.577 13.223 3 12.511 3H11.49a1.29 1.29 0 00-1.29 1.289v.067c0 .5-.301.954-.766 1.137-.054.022-.107.043-.16.066a1.324 1.324 0 01-1.453-.284v0a1.29 1.29 0 00-1.823 0l-.723.722a1.29 1.29 0 000 1.823v0c.382.382.494.955.284 1.453a5.419 5.419 0 00-.065.161 1.22 1.22 0 01-1.138.766h-.067C3.577 10.2 3 10.777 3 11.489v1.021c0 .713.577 1.29 1.289 1.29h.067c.5 0 .954.301 1.137.766l.065.16c.21.498.098 1.071-.284 1.453v0a1.29 1.29 0 000 1.823l.722.722a1.29 1.29 0 001.823 0v0a1.324 1.324 0 011.453-.284l.16.065c.466.183.766.637.766 1.137v.067c0 .712.577 1.289 1.289 1.289h1.021c.712 0 1.289-.577 1.289-1.289v-.067c0-.5.301-.954.766-1.137l.16-.065a1.332 1.332 0 011.457.285v0z" stroke="currentColor" stroke-linecap="round" stroke-linejoin="round"/></svg><svg fill="none" viewBox="0 0 24 24" id="ico-goto" xmlns="http://www.w3.org/2000/svg"><path d="M16.95 7.05l-9.9 9.9M10 7l6.95.049L17 14" stroke="currentColor" stroke-linecap="round" stroke-linejoin="round"/></svg><svg fill="none" viewBox="0 0 24 24" id="ico-hamburger" xmlns="http://www.w3.org/2000/svg"><path d="M5.498 12h13.005M5.498 17.002h13.005M5.497 6.998h13.005" stroke="currentColor" stroke-linecap="round" stroke-linejoin="round"/></svg><svg fill="none" viewBox="0 0 24 24" id="ico-hamburger-lg" xmlns="http://www.w3.org/2000/svg"><path d="M0 4a1 1 0 011-1h22a1 1 0 110 2H1a1 1 0 01-1-1zM0 12a1 1 0 011-1h22a1 1 0 110 2H1a1 1 0 01-1-1zM1 19a1 1 0 100 2h22a1 1 0 100-2H1z" fill="currentColor"/></svg><svg fill="none" viewBox="0 0 24 24" id="ico-hashtag" xmlns="http://www.w3.org/2000/svg"><path d="M9.5 5l-1 14M15.5 5l-1 14M4.5 15h14M5.5 9h14" stroke="currentColor" stroke-linecap="round" stroke-linejoin="round"/></svg><svg fill="none" viewBox="0 0 24 24" id="ico-health" xmlns="http://www.w3.org/2000/svg"><path clip-rule="evenodd" d="M12 5.711C12.689 4.905 13.881 4 15.696 4 18.87 4 21 6.98 21 9.755 21 15.556 13.778 20 12 20c-1.778 0-9-4.444-9-10.245C3 6.98 5.13 4 8.304 4c1.815 0 3.007.905 3.696 1.711z" stroke="currentColor" stroke-linecap="round" stroke-linejoin="round"/><path d="M14.889 10.056l-3.611 3.611L9.111 11.5" stroke="currentColor" stroke-linecap="round" stroke-linejoin="round"/></svg><svg fill="none" viewBox="0 0 24 24" id="ico-heart" xmlns="http://www.w3.org/2000/svg"><path clip-rule="evenodd" d="M15.7 4C18.87 4 21 6.98 21 9.76 21 15.39 12.16 20 12 20c-.16 0-9-4.61-9-10.24C3 6.98 5.13 4 8.3 4c1.82 0 3.01.91 3.7 1.71.69-.8 1.88-1.71 3.7-1.71z" stroke="currentColor" stroke-linecap="round" stroke-linejoin="round"/></svg><svg fill="none" viewBox="0 0 24 24" id="ico-heart-fill" xmlns="http://www.w3.org/2000/svg"><path fill-rule="evenodd" clip-rule="evenodd" d="M15.7 4C18.87 4 21 6.98 21 9.76 21 15.39 12.16 20 12 20c-.16 0-9-4.61-9-10.24C3 6.98 5.13 4 8.3 4c1.82 0 3.01.91 3.7 1.71.69-.8 1.88-1.71 3.7-1.71z" stroke="currentColor" stroke-linecap="round" stroke-linejoin="round" fill="currentColor"/></svg><svg fill="none" viewBox="0 0 24 24" id="ico-history" xmlns="http://www.w3.org/2000/svg"><path d="M6.375 12l-2.25 2.25L1.875 12M4.125 12c0 .694.086 1.366.235 2.015M22.125 12a9 9 0 00-9-9 9 9 0 00-9 9M13.125 21a9 9 0 009-9M5.754 17.155A8.982 8.982 0 0013.125 21" stroke="currentColor" stroke-linecap="round" stroke-linejoin="round"/><path d="M16.496 14.871l-3.652-2.173V7.985" stroke="currentColor" stroke-linecap="round" stroke-linejoin="round"/></svg><svg fill="none" viewBox="0 0 24 24" id="ico-igtv" xmlns="http://www.w3.org/2000/svg"><path clip-rule="evenodd" d="M15.953 21H8.047A4.547 4.547 0 013.5 16.453V9.547A4.547 4.547 0 018.047 5h7.905A4.548 4.548 0 0120.5 9.547v6.905A4.548 4.548 0 0115.953 21z" stroke="currentColor" stroke-linecap="round" stroke-linejoin="round"/><path d="M14 2l-2 3-2-3M7.992 14.451l3.281-2.46 1.389 2.068 3.346-2.509" stroke="currentColor" stroke-linecap="round" stroke-linejoin="round"/></svg><svg fill="none" viewBox="0 0 24 24" id="ico-image" xmlns="http://www.w3.org/2000/svg"><path d="M20.491 12.5l-.791-.794a2.411 2.411 0 00-3.41 0l-4.295 4.295" stroke="currentColor" stroke-linecap="round" stroke-linejoin="round"/><path d="M16.493 20.496l-5.794-5.79a2.411 2.411 0 00-3.41 0L4 17.996" stroke="currentColor" stroke-linecap="round" stroke-linejoin="round"/><path d="M6.922 3.26c3.524-.343 6.442-.34 10.1.01a4.068 4.068 0 013.65 3.561c.435 3.612.427 6.577-.028 10.304-.228 1.864-1.68 3.321-3.502 3.54-3.581.432-6.523.429-10.242-.011-1.847-.219-3.32-1.693-3.546-3.58-.459-3.815-.47-6.78-.04-10.302A4.031 4.031 0 016.921 3.26z" stroke="currentColor"/><circle cx="8.497" cy="8.502" r="1.5" stroke="currentColor" stroke-linecap="round" stroke-linejoin="round"/></svg><svg fill="none" viewBox="0 0 24 24" id="ico-instagram" xmlns="http://www.w3.org/2000/svg"><path clip-rule="evenodd" d="M7.496 3h9.009A4.495 4.495 0 0121 7.496v9.009A4.495 4.495 0 0116.504 21H7.496A4.495 4.495 0 013 16.504V7.496A4.495 4.495 0 017.496 3v0z" stroke="currentColor" stroke-linecap="round" stroke-linejoin="round"/><path d="M16.949 6.713a.338.338 0 10.002.674.338.338 0 00-.002-.674M14.546 9.454a3.6 3.6 0 11-5.092 5.092 3.6 3.6 0 015.091-5.092" stroke="currentColor" stroke-linecap="round" stroke-linejoin="round"/></svg><svg fill="none" viewBox="0 0 24 24" id="ico-instagram-facebook" xmlns="http://www.w3.org/2000/svg"><path clip-rule="evenodd" d="M12.247 9h6.507A3.247 3.247 0 0122 12.247v6.507A3.247 3.247 0 0118.753 22h-6.506A3.247 3.247 0 019 18.753v-6.506A3.247 3.247 0 0112.247 9v0z" stroke="currentColor" stroke-linecap="round" stroke-linejoin="round"/><path d="M19.074 11.682a.244.244 0 10.002.487.244.244 0 00-.002-.487M17.339 13.661a2.6 2.6 0 11-3.678 3.677 2.6 2.6 0 013.678-3.677M12 9V4.498A2.498 2.498 0 009.502 2H4.5A2.5 2.5 0 002 4.5v5.002A2.498 2.498 0 004.498 12H9M5.5 7.5h3" stroke="currentColor" stroke-linecap="round" stroke-linejoin="round"/><path d="M8.5 5h-.525C7.161 5 6.5 5.66 6.5 6.475V12" stroke="currentColor" stroke-linecap="round" stroke-linejoin="round"/></svg><svg fill="none" viewBox="0 0 24 24" id="ico-instagram-gallery" xmlns="http://www.w3.org/2000/svg"><path d="M17.292 14.954v-8.57A2.367 2.367 0 0014.908 4H6.383A2.367 2.367 0 004 6.383v8.571a2.367 2.367 0 002.383 2.383h8.571c1.284-.045 2.338-1.1 2.338-2.383zm2.016-6.737v7.379a3.775 3.775 0 01-3.758 3.758H8.17c-.274 0-.412.321-.228.504.458.505 1.1.825 1.879.825h6.142a4.714 4.714 0 004.72-4.72V9.82c0-.733-.32-1.421-.825-1.88-.229-.183-.55 0-.55.276z" fill="currentColor"/></svg><svg fill="none" viewBox="0 0 24 24" id="ico-instagram-reels" xmlns="http://www.w3.org/2000/svg"><path d="M12.787 3.002l2.588 4.32H10.35L8.1 3.04c.261-.033.524-.046.787-.038h3.9zm-6.075.263l2.175 4.057H3.15a4.909 4.909 0 011.387-2.82 4.5 4.5 0 012.176-1.237zm7.575-.263h.6c2.25 0 3.488.45 4.575 1.542a4.691 4.691 0 011.388 2.778h-3.975l-2.588-4.32zm.638 10.898l-4.2-2.441a.647.647 0 00-.975.543v4.905a.671.671 0 00.938.6l.037-.037 4.2-2.441a.637.637 0 00.037-1.092l-.037-.037-4.2-2.441 4.2 2.44zM3 8.627h18v6.29c0 2.25-.45 3.494-1.538 4.582-1.05 1.016-2.25 1.5-4.387 1.5h-6c-2.25 0-3.487-.45-4.575-1.542-1.013-1.05-1.5-2.25-1.5-4.395V8.627z" fill="currentColor"/></svg><svg fill="none" viewBox="0 0 24 24" id="ico-instagram-tv" xmlns="http://www.w3.org/2000/svg"><path d="M18.622 6.714c-.842-.804-1.876-1.34-4.057-1.34h-.804l.689-.766c.344-.382.344-.995-.038-1.34-.383-.344-.996-.344-1.34.039L12 4.455l-1.072-1.148a.925.925 0 00-1.34-.038.925.925 0 00-.038 1.34l.69.765h-.805c-2.22 0-3.215.536-4.095 1.378C4.536 7.594 4 8.628 4 10.809v5.13c0 2.22.536 3.215 1.378 4.095.842.804 1.876 1.34 4.057 1.34h5.13c2.22 0 3.215-.536 4.095-1.378.804-.842 1.34-1.876 1.34-4.057v-5.13c0-2.22-.536-3.253-1.378-4.095zm-2.143 6.966l-4.326 1.34c-.038 0-.115.038-.153.038a.617.617 0 01-.345-.115.546.546 0 01-.23-.459v-1.493l-3.597 1.11a.606.606 0 01-.728-.383.606.606 0 01.383-.727l4.326-1.34c.191-.038.344-.038.497.077.153.115.23.268.23.46v1.53l3.598-1.11a.606.606 0 01.727.383c.115.306-.076.613-.383.69z" fill="currentColor"/></svg><svg fill="none" viewBox="0 0 24 24" id="ico-instagram-video" xmlns="http://www.w3.org/2000/svg"><path d="M6.175 20.922a2.26 2.26 0 01-1.087-.3C4.412 20.209 4 19.534 4 18.709V6.222c0-.788.412-1.5 1.088-1.913.712-.412 1.537-.412 2.212 0l11.287 6.6c.563.338.863.9.863 1.538 0 .637-.337 1.2-.863 1.537L7.3 20.622c-.337.187-.75.3-1.125.3z" fill="currentColor"/></svg><svg fill="none" viewBox="0 0 24 24" id="ico-lamp" xmlns="http://www.w3.org/2000/svg"><path d="M14.69 15.816H9.313" stroke="currentColor" stroke-linecap="round" stroke-linejoin="round"/><path clip-rule="evenodd" d="M9.069 15.566a5.084 5.084 0 115.86.002.873.873 0 00-.386.708v2.345a2.118 2.118 0 01-2.12 2.118h-.847a2.118 2.118 0 01-2.118-2.118v-2.342a.88.88 0 00-.389-.713z" stroke="currentColor" stroke-linecap="round" stroke-linejoin="round"/><path d="M18.366 5.369l-.636.636M6.27 17.465l-.637.637M21.004 11.735h-.9M3.897 11.735h-.9M18.366 18.102l-.636-.637M6.27 6.005l-.637-.636M12 3.632v-.9" stroke="currentColor" stroke-linecap="round" stroke-linejoin="round"/></svg><svg fill="none" viewBox="0 0 24 24" id="ico-lightning" xmlns="http://www.w3.org/2000/svg"><path clip-rule="evenodd" d="M18.823 11.575l-6.011 8.683c-.551.795-1.798.406-1.798-.562v-5.723H5.989a.987.987 0 01-.811-1.549l6.011-8.683c.551-.795 1.798-.406 1.798.562v5.723h5.025a.987.987 0 01.811 1.549z" stroke="currentColor" stroke-linecap="round" stroke-linejoin="round"/></svg><svg fill="none" viewBox="0 0 24 24" id="ico-link" xmlns="http://www.w3.org/2000/svg"><path d="M15.964 6.036a3.535 3.535 0 015 0v0a3.535 3.535 0 010 5l-5.879 5.879a3.535 3.535 0 01-5 0v0a3.535 3.535 0 010-5l.879-.879" stroke="currentColor" stroke-linecap="round" stroke-linejoin="round"/><path d="M8.036 18.964a3.535 3.535 0 01-5 0v0a3.535 3.535 0 010-5l5.879-5.879a3.535 3.535 0 015 0v0a3.535 3.535 0 010 5L13 14" stroke="currentColor" stroke-linecap="round" stroke-linejoin="round"/></svg><svg fill="none" viewBox="0 0 24 24" id="ico-loading" xmlns="http://www.w3.org/2000/svg"><path d="M17.884 5.197A8.996 8.996 0 0112 21.004v0a8.971 8.971 0 01-6.803-3.12" stroke="currentColor" stroke-linecap="round" stroke-linejoin="round"><animateTransform attributeName="transform" attributeType="XML" type="rotate" dur="1s" from="0 12 12" to="360 12 12" repeatCount="indefinite"/></path><path d="M17.468 14.467a6.014 6.014 0 10-3.001 3.001" stroke="currentColor" stroke-linecap="round" stroke-linejoin="round"><animateTransform attributeName="transform" attributeType="XML" type="rotate" dur=".9s" from="0 12 12" to="-360 12 12" repeatCount="indefinite"/></path></svg><svg fill="none" viewBox="0 0 24 24" id="ico-location" xmlns="http://www.w3.org/2000/svg"><path clip-rule="evenodd" d="M12 13v0a3 3 0 01-3-3v0a3 3 0 013-3v0a3 3 0 013 3v0a3 3 0 01-3 3z" stroke="currentColor" stroke-linecap="round" stroke-linejoin="round"/><path clip-rule="evenodd" d="M12 21s-7-5.75-7-11a7 7 0 1114 0c0 5.25-7 11-7 11z" stroke="currentColor" stroke-linecap="round" stroke-linejoin="round"/></svg><svg fill="none" viewBox="0 0 24 24" id="ico-logout" xmlns="http://www.w3.org/2000/svg"><path d="M5.997 15.002v3A3.001 3.001 0 009 21.005h9.004a3.001 3.001 0 003-3.001V5.998a3.001 3.001 0 00-3-3.001H8.999a3.001 3.001 0 00-3.002 3V9" stroke="currentColor" stroke-linecap="round" stroke-linejoin="round"/><path d="M12 15.002L15.001 12 12 9M2.996 12h12.005" stroke="currentColor" stroke-linecap="round" stroke-linejoin="round"/></svg><svg fill="none" viewBox="0 0 24 24" id="ico-loupe" xmlns="http://www.w3.org/2000/svg"><circle cx="11.059" cy="11.059" r="7.062" stroke="currentColor" stroke-linecap="round" stroke-linejoin="round"/><path d="M20.003 20.003l-3.951-3.951" stroke="currentColor" stroke-linecap="round" stroke-linejoin="round"/></svg><svg fill="none" viewBox="0 0 24 24" id="ico-loupe-plus" xmlns="http://www.w3.org/2000/svg"><circle cx="10.999" cy="11" r="7.503" stroke="currentColor" stroke-linecap="round" stroke-linejoin="round"/><path d="M20.503 20.504l-4.198-4.2M8 11h6M11 14V8" stroke="currentColor" stroke-linecap="round" stroke-linejoin="round"/></svg><svg fill="none" viewBox="0 0 24 24" id="ico-maximize" xmlns="http://www.w3.org/2000/svg"><path d="M15 5h4v4M14 10l5-5M9 19H5v-4M10 14l-5 5" stroke="currentColor" stroke-linecap="round" stroke-linejoin="round"/></svg><svg fill="none" viewBox="0 0 24 24" id="ico-menu-left-arrow-left" xmlns="http://www.w3.org/2000/svg"><path d="M11.043 3v18" stroke="currentColor" stroke-linecap="round" stroke-linejoin="round"/><path clip-rule="evenodd" d="M19 21.004H5a2 2 0 01-2-2v-14a2 2 0 012-2h14a2 2 0 012 2v14a2 2 0 01-2 2z" stroke="currentColor" stroke-linecap="round" stroke-linejoin="round"/><path d="M8.003 6.498h-2M8.003 9.496h-2M8.003 12.495h-2M14.5 11.496l2.5-2.5M17 13.996l-2.5-2.5" stroke="currentColor" stroke-linecap="round" stroke-linejoin="round"/></svg><svg fill="none" viewBox="0 0 24 24" id="ico-menu-left-arrow-right" xmlns="http://www.w3.org/2000/svg"><path d="M11.043 3v18" stroke="currentColor" stroke-linecap="round" stroke-linejoin="round"/><path clip-rule="evenodd" d="M19 21.004H5a2 2 0 01-2-2v-14a2 2 0 012-2h14a2 2 0 012 2v14a2 2 0 01-2 2z" stroke="currentColor" stroke-linecap="round" stroke-linejoin="round"/><path d="M8.003 6.498h-2M8.003 9.496h-2M8.003 12.495h-2M17.5 11.5L15 9M15 14l2.5-2.5" stroke="currentColor" stroke-linecap="round" stroke-linejoin="round"/></svg><svg fill="none" viewBox="0 0 24 24" id="ico-menu-right-arrow-left" xmlns="http://www.w3.org/2000/svg"><path d="M12.957 3v18" stroke="currentColor" stroke-linecap="round" stroke-linejoin="round"/><path clip-rule="evenodd" d="M5 21.004h14a2 2 0 002-2v-14a2 2 0 00-2-2H5a2 2 0 00-2 2v14a2 2 0 002 2z" stroke="currentColor" stroke-linecap="round" stroke-linejoin="round"/><path d="M15.997 6.498h2M15.997 9.496h2M15.997 12.495h2M6.5 11.5L9 9M9 14l-2.5-2.5" stroke="currentColor" stroke-linecap="round" stroke-linejoin="round"/></svg><svg fill="none" viewBox="0 0 24 24" id="ico-menu-right-arrow-right" xmlns="http://www.w3.org/2000/svg"><path d="M12.957 3v18" stroke="currentColor" stroke-linecap="round" stroke-linejoin="round"/><path clip-rule="evenodd" d="M5 21.004h14a2 2 0 002-2v-14a2 2 0 00-2-2H5a2 2 0 00-2 2v14a2 2 0 002 2z" stroke="currentColor" stroke-linecap="round" stroke-linejoin="round"/><path d="M15.997 6.498h2M15.997 9.496h2M15.997 12.495h2M9.5 11.5L7 9M7 14l2.5-2.5" stroke="currentColor" stroke-linecap="round" stroke-linejoin="round"/></svg><svg fill="none" viewBox="0 0 24 24" id="ico-messenger-profile" xmlns="http://www.w3.org/2000/svg"><path d="M10.091 8.159a2.25 2.25 0 11-3.182 3.182 2.25 2.25 0 013.182-3.182" stroke="currentColor" stroke-linecap="round" stroke-linejoin="round"/><path clip-rule="evenodd" d="M2 18.5V5.541C2 4.414 2.914 3.5 4.041 3.5H20a2 2 0 012 2v13a2 2 0 01-2 2H4a2 2 0 01-2-2z" stroke="currentColor" stroke-linecap="round" stroke-linejoin="round"/><path d="M15 9.5h4M17.4 13.5H15M12.095 16.5a3.17 3.17 0 00-.792-1.154v0a3.172 3.172 0 00-2.157-.846H7.854c-.8 0-1.57.302-2.157.846v0a3.17 3.17 0 00-.792 1.154" stroke="currentColor" stroke-linecap="round" stroke-linejoin="round"/></svg><svg fill="none" viewBox="0 0 24 24" id="ico-minimize" xmlns="http://www.w3.org/2000/svg"><path d="M6 14h4v4M5 19l5-5M17 11h-4V7M18 6l-5 5" stroke="currentColor" stroke-linecap="round" stroke-linejoin="round"/></svg><svg fill="none" viewBox="0 0 24 24" id="ico-odnoklassniki" xmlns="http://www.w3.org/2000/svg"><path d="M12 4.176c1.22 0 2.214 1.007 2.214 2.244 0 1.237-.994 2.243-2.214 2.243S9.787 7.657 9.787 6.42c0-1.237.993-2.244 2.213-2.244zm0 7.662c2.949 0 5.347-2.43 5.347-5.418C17.347 3.431 14.949 1 12 1 9.05 1 6.653 3.431 6.653 6.42c0 2.988 2.398 5.418 5.347 5.418zm2.163 4.42a9.936 9.936 0 003.105-1.302 1.605 1.605 0 00.072-2.64 1.556 1.556 0 00-1.17-.27c-.203.035-.397.11-.57.222a6.713 6.713 0 01-7.2 0 1.55 1.55 0 00-2.16.499 1.606 1.606 0 00-.201 1.197c.092.41.341.768.693.992a9.944 9.944 0 003.104 1.303l-2.99 3.03a1.6 1.6 0 00.001 2.246 1.556 1.556 0 002.216 0l2.936-2.978 2.939 2.978a1.563 1.563 0 001.107.465 1.546 1.546 0 001.107-.465 1.587 1.587 0 00.46-1.123 1.603 1.603 0 00-.46-1.122l-2.989-3.031z" fill="currentColor"/></svg><svg fill="none" viewBox="0 0 24 24" id="ico-past-img" xmlns="http://www.w3.org/2000/svg"><path d="M11 20.003H4.996a2 2 0 01-2-2V8.499a2 2 0 012-2.001h14.006a2 2 0 012 2V11.5M15.601 6.498V4.497a1.5 1.5 0 00-1.5-1.5H9.899a1.5 1.5 0 00-1.5 1.5v2" stroke="currentColor" stroke-linecap="round" stroke-linejoin="round"/><path d="M21.004 10l-4.474 1.039c-2.98.693-6.08.693-9.06 0l-4.474-1.04" stroke="currentColor" stroke-linecap="round" stroke-linejoin="round"/><path clip-rule="evenodd" d="M20.222 14h-4.444c-.982 0-1.778.796-1.778 1.778v4.444c0 .982.796 1.778 1.778 1.778h4.444c.982 0 1.778-.796 1.778-1.778v-4.444c0-.982-.796-1.778-1.778-1.778z" stroke="currentColor" stroke-linecap="round" stroke-linejoin="round"/><path d="M16.677 16.324a.25.25 0 11-.354.353.25.25 0 01.354-.353M22 18.04a3.547 3.547 0 00-.5-.04 3.5 3.5 0 00-3.5 3.5v0c.001.167.015.334.04.5" stroke="currentColor" stroke-linecap="round" stroke-linejoin="round"/></svg><svg fill="none" viewBox="0 0 24 24" id="ico-pencil" xmlns="http://www.w3.org/2000/svg"><path clip-rule="evenodd" d="M5.293 15.619L15.619 5.293a1 1 0 011.413 0l1.676 1.676a1 1 0 010 1.413L8.381 18.707a.995.995 0 01-.706.293H5v-2.675c0-.265.105-.519.293-.706z" stroke="currentColor" stroke-linecap="round" stroke-linejoin="round"/><path d="M13.75 7.16l3.09 3.09" stroke="currentColor" stroke-linecap="round" stroke-linejoin="round"/></svg><svg fill="none" viewBox="0 0 24 24" id="ico-pixta-1.91:1" xmlns="http://www.w3.org/2000/svg"><path clip-rule="evenodd" d="M18.23 7.5H5.77C4.24 7.5 3 8.595 3 9.947v4.106C3 15.405 4.24 16.5 5.77 16.5h12.46c1.53 0 2.77-1.095 2.77-2.447V9.947C21 8.595 19.76 7.5 18.23 7.5z" stroke="currentColor" stroke-linecap="round" stroke-linejoin="round"/></svg><svg fill="none" viewBox="0 0 24 24" id="ico-pixta-1:1" xmlns="http://www.w3.org/2000/svg"><path clip-rule="evenodd" d="M5.77 21h12.46c1.53 0 2.77-1.095 2.77-2.447V5.447C21 4.095 19.76 3 18.23 3H5.77C4.24 3 3 4.095 3 5.447v13.106C3 19.905 4.24 21 5.77 21z" stroke="currentColor" stroke-linecap="round" stroke-linejoin="round"/></svg><svg fill="none" viewBox="0 0 24 24" id="ico-pixta-4:5" xmlns="http://www.w3.org/2000/svg"><path clip-rule="evenodd" d="M5 5.77v12.46C5 19.76 6.095 21 7.447 21h9.106C17.905 21 19 19.76 19 18.23V5.77C19 4.24 17.905 3 16.553 3H7.447C6.095 3 5 4.24 5 5.77z" stroke="currentColor" stroke-linecap="round" stroke-linejoin="round"/></svg><svg fill="none" viewBox="0 0 24 24" id="ico-pixta-5:4" xmlns="http://www.w3.org/2000/svg"><path clip-rule="evenodd" d="M5.77 19h12.46c1.53 0 2.77-1.095 2.77-2.447V7.447C21 6.095 19.76 5 18.23 5H5.77C4.24 5 3 6.095 3 7.447v9.106C3 17.905 4.24 19 5.77 19z" stroke="currentColor" stroke-linecap="round" stroke-linejoin="round"/></svg><svg fill="none" viewBox="0 0 24 24" id="ico-pixta-9:16" xmlns="http://www.w3.org/2000/svg"><path clip-rule="evenodd" d="M7 5.77v12.46C7 19.76 8.095 21 9.447 21h5.106C15.905 21 17 19.76 17 18.23V5.77C17 4.24 15.905 3 14.553 3H9.447C8.095 3 7 4.24 7 5.77z" stroke="currentColor" stroke-linecap="round" stroke-linejoin="round"/></svg><svg fill="none" viewBox="0 0 24 24" id="ico-pixta-plus" xmlns="http://www.w3.org/2000/svg"><path d="M11.1 3.004c-1.215.023-2.439.098-3.754.226a4.529 4.529 0 00-4.054 3.959c-.396 3.248-.384 5.99.037 9.492.253 2.104 1.897 3.763 3.979 4.01 3.416.404 6.135.407 9.431.01 2.06-.248 3.684-1.892 3.938-3.973a42.1 42.1 0 00.3-3.728" stroke="currentColor" stroke-linecap="round"/><circle cx="17.999" cy="6.005" r="4" stroke="currentColor" stroke-linecap="round" stroke-linejoin="round"/><path d="M19.25 6.004h-2.5M18 4.754v2.5M3.504 12.5l.791-.794a2.41 2.41 0 013.41 0L12 16.001" stroke="currentColor" stroke-linecap="round" stroke-linejoin="round"/><path d="M7.502 20.496l5.794-5.79a2.411 2.411 0 013.41 0l3.29 3.291" stroke="currentColor" stroke-linecap="round" stroke-linejoin="round"/></svg><svg fill="none" viewBox="0 0 24 24" id="ico-plane" xmlns="http://www.w3.org/2000/svg"><path clip-rule="evenodd" d="M10.934 19.308L21.18 7.138c.71-.84.103-2.14-.997-2.138l-15.907.028c-1.141.003-1.703 1.388-.895 2.206l4.667 4.725.622 6.618c.107 1.144 1.53 1.604 2.264.731z" stroke="currentColor" stroke-linecap="round" stroke-linejoin="round"/><path d="M8.037 11.946l13.314-6.208" stroke="currentColor" stroke-linecap="round" stroke-linejoin="round"/></svg><svg fill="none" viewBox="0 0 24 24" id="ico-play" xmlns="http://www.w3.org/2000/svg"><path clip-rule="evenodd" d="M16.925 11.121l-6.339-3.962A1.037 1.037 0 009 8.038v7.923c0 .814.896 1.311 1.586.879l6.338-3.962a1.035 1.035 0 00.001-1.757v0z" stroke="currentColor" stroke-linecap="round" stroke-linejoin="round"/></svg><svg fill="none" viewBox="0 0 24 24" id="ico-plus" xmlns="http://www.w3.org/2000/svg"><path d="M12 6.343v11.314M17.657 12H6.343" stroke="currentColor" stroke-linecap="round" stroke-linejoin="round"/></svg><svg fill="none" viewBox="0 0 24 24" id="ico-plus-lg" xmlns="http://www.w3.org/2000/svg"><path d="M12 5v14M5 12h14" stroke="currentColor" stroke-linecap="round" stroke-linejoin="round"/></svg><svg fill="none" viewBox="0 0 24 24" id="ico-points-horizontal" xmlns="http://www.w3.org/2000/svg"><path d="M6.498 11.997c0-.275-.225-.5-.5-.497-.276 0-.5.225-.5.5s.224.5.5.5c.275 0 .5-.225.5-.503M12.5 11.997c0-.275-.225-.5-.5-.497-.275 0-.5.225-.5.5s.225.5.5.5.5-.225.5-.503M18.503 11.997c0-.275-.225-.5-.5-.497-.276 0-.5.225-.5.5s.224.5.5.5c.275 0 .5-.225.5-.503" stroke="currentColor" stroke-linecap="round" stroke-linejoin="round"/></svg><svg fill="none" viewBox="0 0 24 24" id="ico-points-order" xmlns="http://www.w3.org/2000/svg"><path d="M14.497 17.502c-.275 0-.5.225-.497.5 0 .276.225.5.5.5s.5-.224.5-.5c0-.275-.225-.5-.503-.5M8.497 17.502c-.275 0-.5.225-.497.5 0 .276.225.5.5.5s.5-.224.5-.5c0-.275-.225-.5-.503-.5M14.497 11.5c-.275 0-.5.225-.497.5 0 .275.225.5.5.5s.5-.225.5-.5-.225-.5-.503-.5M8.497 11.5c-.275 0-.5.225-.497.5 0 .275.225.5.5.5s.5-.225.5-.5-.225-.5-.503-.5M14.497 5.497c-.275 0-.5.225-.497.5 0 .276.225.5.5.5s.5-.224.5-.5c0-.275-.225-.5-.503-.5M8.497 5.497c-.275 0-.5.225-.497.5 0 .276.225.5.5.5s.5-.224.5-.5c0-.275-.225-.5-.503-.5" stroke="currentColor" stroke-linecap="round" stroke-linejoin="round"/></svg><svg fill="none" viewBox="0 0 24 24" id="ico-points-vertical" xmlns="http://www.w3.org/2000/svg"><path d="M11.997 17.502c-.275 0-.5.225-.497.5 0 .276.225.5.5.5s.5-.224.5-.5c0-.275-.225-.5-.503-.5M11.997 11.5c-.275 0-.5.225-.497.5 0 .275.225.5.5.5s.5-.225.5-.5-.225-.5-.503-.5M11.997 5.497c-.275 0-.5.225-.497.5 0 .276.225.5.5.5s.5-.224.5-.5c0-.275-.225-.5-.503-.5" stroke="currentColor" stroke-linecap="round" stroke-linejoin="round"/></svg><svg fill="none" viewBox="0 0 24 24" id="ico-poll" xmlns="http://www.w3.org/2000/svg"><path d="M11 5h10M11 12h10M11 19h10M3.02 18.508l1.653 1.488L8 17M6.414 3.586a2 2 0 11-2.828 2.828 2 2 0 012.828-2.828M6.414 10.586a2 2 0 11-2.828 2.828 2 2 0 012.828-2.828" stroke="currentColor" stroke-linecap="round" stroke-linejoin="round"/></svg><svg fill="none" viewBox="0 0 24 24" id="ico-post" xmlns="http://www.w3.org/2000/svg"><path clip-rule="evenodd" d="M5.462 21h13.076A2.453 2.453 0 0021 18.553V5.447A2.453 2.453 0 0018.538 3H5.462A2.453 2.453 0 003 5.447v13.106A2.453 2.453 0 005.462 21z" stroke="currentColor" stroke-linecap="round" stroke-linejoin="round"/><path stroke="currentColor" d="M3 8h18"/></svg><svg fill="none" viewBox="0 0 24 24" id="ico-profile" xmlns="http://www.w3.org/2000/svg"><path d="M14.817 4.167A3.984 3.984 0 119.183 9.8a3.984 3.984 0 015.634-5.634M12 14.008c4.554 0 9 1.967 9 4.992v1a1 1 0 01-1 1H4a1 1 0 01-1-1v-1c0-3.026 4.446-4.992 9-4.992" stroke="currentColor" stroke-linecap="round" stroke-linejoin="round"/></svg><svg fill="none" viewBox="0 0 24 24" id="ico-publish" xmlns="http://www.w3.org/2000/svg"><path d="M17.5 8C12 7.5 5 9 5 20M15 11l3-3-3-3" stroke="currentColor" stroke-linecap="round" stroke-linejoin="round"/></svg><svg fill="none" viewBox="0 0 24 24" id="ico-recipe" xmlns="http://www.w3.org/2000/svg"><path d="M8 7h4M8 11h4M8 15h4" stroke="currentColor" stroke-linecap="round" stroke-linejoin="round"/><path clip-rule="evenodd" d="M11.776 20.888l-3.329-1.665a.998.998 0 00-.894 0l-2.829 1.415A.5.5 0 014 20.191V4a1 1 0 011-1h14a1 1 0 011 1v16.191a.5.5 0 01-.724.447l-2.829-1.415a.998.998 0 00-.894 0l-3.329 1.665a.498.498 0 01-.448 0v0z" stroke="currentColor" stroke-linecap="round" stroke-linejoin="round"/><path d="M16 6.99c-.003 0-.005.002-.005.005S15.997 7 16 7s.005-.002.005-.005-.002-.005-.005-.005M16 10.99c-.003 0-.005.002-.005.005S15.997 11 16 11s.005-.002.005-.005-.002-.005-.005-.005M16 14.99c-.003 0-.005.002-.005.005S15.997 15 16 15s.005-.002.005-.005-.002-.005-.005-.005" stroke="currentColor" stroke-linecap="round" stroke-linejoin="round"/></svg><svg fill="none" viewBox="0 0 24 24" id="ico-reels" xmlns="http://www.w3.org/2000/svg"><path clip-rule="evenodd" d="M15.885 21h-7.77A5.116 5.116 0 013 15.885v-7.77A5.116 5.116 0 018.115 3h7.768A5.116 5.116 0 0121 8.115v7.768A5.116 5.116 0 0115.885 21z" stroke="currentColor" stroke-linecap="round" stroke-linejoin="round"/><path d="M6.938 3l3.402 5.83M13.13 3l3.401 5.83M3 9h18" stroke="currentColor"/><path d="M9.873 12.485h.002-.002zm.127 4.96v-4.887l4.238 2.437L10 17.445z" fill="currentColor" stroke="currentColor" stroke-linejoin="round"/></svg><svg fill="none" viewBox="0 0 24 24" id="ico-repeat" xmlns="http://www.w3.org/2000/svg"><path d="M19.992 12.032a7.965 7.965 0 01-2.335 5.625 8 8 0 01-11.314 0 8 8 0 01-1.366-1.831M4.004 11.87a7.969 7.969 0 012.339-5.527 8 8 0 0111.314 0 8 8 0 011.366 1.831" stroke="currentColor" stroke-linecap="round" stroke-linejoin="round"/><path d="M15.953 8.175h3.535V4.639M8.047 15.825H4.512v3.536" stroke="currentColor" stroke-linecap="round" stroke-linejoin="round"/></svg><svg fill="none" viewBox="0 0 24 24" id="ico-repost" xmlns="http://www.w3.org/2000/svg"><path d="M13 19H7a2 2 0 01-2-2V5M11 5h6a2 2 0 012 2v12" stroke="currentColor" stroke-linecap="round" stroke-linejoin="round"/><path d="M7.5 7.5L5 5 2.5 7.5M16 16l3 3 3-3" stroke="currentColor" stroke-linecap="round" stroke-linejoin="round"/></svg><svg fill="none" viewBox="0 0 24 24" id="ico-school" xmlns="http://www.w3.org/2000/svg"><path clip-rule="evenodd" d="M18 21H6a2 2 0 01-2-2V5a2 2 0 012-2h12a2 2 0 012 2v14a2 2 0 01-2 2z" stroke="currentColor" stroke-linecap="round" stroke-linejoin="round"/><path d="M16 3v18M12 3v6l-2-1-2 1V3" stroke="currentColor" stroke-linecap="round" stroke-linejoin="round"/></svg><svg fill="none" viewBox="0 0 24 24" id="ico-setting-content-plan" xmlns="http://www.w3.org/2000/svg"><path d="M15 3v2M7 3v2M3 8h16M19 10V6a2 2 0 00-2-2H5a2 2 0 00-2 2v11a2 2 0 002 2h6" stroke="currentColor" stroke-linecap="round" stroke-linejoin="round"/><path d="M6.999 10.75a.25.25 0 10.002.5.25.25 0 00-.002-.5M6.999 14.75a.25.25 0 10.002.5.25.25 0 00-.002-.5M10.75 11.001a.25.25 0 10.5-.002.25.25 0 00-.5.002" stroke="currentColor" stroke-linecap="round" stroke-linejoin="round"/><path clip-rule="evenodd" d="M17.293 20.707l4.414-4.414a.999.999 0 000-1.414l-1.586-1.586a.999.999 0 00-1.414 0l-4.414 4.414a1 1 0 00-.293.707V21h2.586a1 1 0 00.707-.293v0z" stroke="currentColor" stroke-linecap="round" stroke-linejoin="round"/></svg><svg fill="none" viewBox="0 0 24 24" id="ico-setting-general" xmlns="http://www.w3.org/2000/svg"><path d="M15 17.5h5M17.5 15v5" stroke="currentColor" stroke-linecap="round" stroke-linejoin="round"/><path clip-rule="evenodd" d="M8 10H5a2 2 0 01-2-2V5a2 2 0 012-2h3a2 2 0 012 2v3a2 2 0 01-2 2zM19 10h-3a2 2 0 01-2-2V5a2 2 0 012-2h3a2 2 0 012 2v3a2 2 0 01-2 2zM8 21H5a2 2 0 01-2-2v-3a2 2 0 012-2h3a2 2 0 012 2v3a2 2 0 01-2 2z" stroke="currentColor" stroke-linecap="round" stroke-linejoin="round"/></svg><svg fill="none" viewBox="0 0 24 24" id="ico-setting-location" xmlns="http://www.w3.org/2000/svg"><path clip-rule="evenodd" d="M12 13v0a3 3 0 01-3-3v0a3 3 0 013-3v0a3 3 0 013 3v0a3 3 0 01-3 3z" stroke="currentColor" stroke-linecap="round" stroke-linejoin="round"/><path clip-rule="evenodd" d="M12 21s-7-5.75-7-11a7 7 0 1114 0c0 5.25-7 11-7 11z" stroke="currentColor" stroke-linecap="round" stroke-linejoin="round"/></svg><svg fill="none" viewBox="0 0 24 24" id="ico-setting-notification" xmlns="http://www.w3.org/2000/svg"><path d="M9.708 18.344v.365A2.292 2.292 0 0012 21v0a2.292 2.292 0 002.292-2.292v-.365M13.833 5.751v-.918C13.833 3.821 13.013 3 12 3v0a1.833 1.833 0 00-1.833 1.833v.918" stroke="currentColor" stroke-linecap="round" stroke-linejoin="round"/><path clip-rule="evenodd" d="M6.563 10.188v0a4.53 4.53 0 014.531-4.531h1.813a4.53 4.53 0 014.531 4.531v2.797a2 2 0 00.586 1.414l.641.641a2 2 0 01.586 1.414v0a1.89 1.89 0 01-1.89 1.89H6.64a1.89 1.89 0 01-1.89-1.89v0a2 2 0 01.586-1.414l.641-.641a2 2 0 00.586-1.414v-2.797z" stroke="currentColor" stroke-linecap="round" stroke-linejoin="round"/></svg><svg fill="none" viewBox="0 0 24 24" id="ico-setting-quick-answer" xmlns="http://www.w3.org/2000/svg"><path d="M14 10.499L11.502 13l-1.5-1.5" stroke="currentColor" stroke-linecap="round" stroke-linejoin="round"/><path clip-rule="evenodd" d="M12 3.997c-4.972 0-9.004 3.36-9.004 7.5a7.13 7.13 0 003.632 6 6.455 6.455 0 01-.894 1.643.87.87 0 00.96 1.327 10.722 10.722 0 003.345-1.65c.647.121 1.303.182 1.961.18 4.972 0 9.004-3.36 9.004-7.5 0-4.14-4.032-7.5-9.004-7.5z" stroke="currentColor" stroke-linecap="round" stroke-linejoin="round"/></svg><svg fill="none" viewBox="0 0 24 24" id="ico-setting-quick-link" xmlns="http://www.w3.org/2000/svg"><path d="M3 3h7M3 6h7M3 9h3M15.869 9.131a3.004 3.004 0 014.25 0v0a3.004 3.004 0 010 4.25l-4.997 4.997a3.004 3.004 0 01-4.25 0v0a3.004 3.004 0 010-4.25l.747-.747" stroke="currentColor" stroke-linecap="round" stroke-linejoin="round"/><path d="M9.131 20.12a3.004 3.004 0 01-4.25 0v0a3.004 3.004 0 010-4.25l4.997-4.997a3.004 3.004 0 014.25 0v0a3.004 3.004 0 010 4.25l-.778.777" stroke="currentColor" stroke-linecap="round" stroke-linejoin="round"/></svg><svg fill="none" viewBox="0 0 24 24" id="ico-setting-rss" xmlns="http://www.w3.org/2000/svg"><path clip-rule="evenodd" d="M5.773 20a1.773 1.773 0 110-3.547 1.773 1.773 0 010 3.547z" stroke="currentColor" stroke-linecap="round" stroke-linejoin="round"/><path d="M4 12.909c4.609-.693 7.783 2.482 7.091 7.091M4 8.478C11.056 7.785 16.215 12.944 15.522 20M4 4.046c9.504-.692 16.646 6.45 15.954 15.954" stroke="currentColor" stroke-linecap="round" stroke-linejoin="round"/></svg><svg fill="none" viewBox="0 0 24 24" id="ico-setting-rubric" xmlns="http://www.w3.org/2000/svg"><path d="M9.165 10.146a.367.367 0 11-.52.518.367.367 0 01.52-.518" stroke="currentColor" stroke-linecap="round" stroke-linejoin="round"/><path clip-rule="evenodd" d="M11.71 6.29l7.21 7.21a1.977 1.977 0 010 2.796l-4.124 4.124a1.977 1.977 0 01-2.796 0l-7.21-7.21a.99.99 0 01-.29-.699V6.989A.99.99 0 015.489 6h5.523c.262 0 .513.104.698.29v0z" stroke="currentColor" stroke-linecap="round" stroke-linejoin="round"/><path d="M19.5 10l-6.506-6.423A2 2 0 0011.589 3H7.5" stroke="currentColor" stroke-linecap="round" stroke-linejoin="round"/></svg><svg fill="none" viewBox="0 0 24 24" id="ico-setting-short-link" xmlns="http://www.w3.org/2000/svg"><path d="M15.964 6.036a3.535 3.535 0 015 0v0a3.535 3.535 0 010 5l-5.879 5.879a3.535 3.535 0 01-5 0v0a3.535 3.535 0 010-5l.879-.879" stroke="currentColor" stroke-linecap="round" stroke-linejoin="round"/><path d="M8.036 18.964a3.535 3.535 0 01-5 0v0a3.535 3.535 0 010-5l5.879-5.879a3.535 3.535 0 015 0v0a3.535 3.535 0 010 5L13 14" stroke="currentColor" stroke-linecap="round" stroke-linejoin="round"/></svg><svg fill="none" viewBox="0 0 24 24" id="ico-setting-signature" xmlns="http://www.w3.org/2000/svg"><path clip-rule="evenodd" d="M17.381 4.618v0a2.123 2.123 0 010 3.001L7.39 17.61a2 2 0 01-.93.527l-3.464.866.867-3.464a2 2 0 01.526-.93l9.992-9.991a2.122 2.122 0 013 0z" stroke="currentColor" stroke-linecap="round" stroke-linejoin="round"/><path d="M15.501 9.499l-3-3.001M21.004 18.003l-1.095 1.094a3.095 3.095 0 01-4.376 0v0a3.101 3.101 0 00-4.378 0" stroke="currentColor" stroke-linecap="round" stroke-linejoin="round"/></svg><svg fill="none" viewBox="0 0 24 24" id="ico-setting-step" xmlns="http://www.w3.org/2000/svg"><path d="M7 9.75l-2 2-2-2" stroke="currentColor" stroke-linecap="round" stroke-linejoin="round"/><path clip-rule="evenodd" d="M18.5 3a2.5 2.5 0 110 5 2.5 2.5 0 010-5z" stroke="currentColor"/><path d="M16 5.5H7a2 2 0 00-2 2v4.25M17 14.25l2-2 2 2" stroke="currentColor" stroke-linecap="round" stroke-linejoin="round"/><path clip-rule="evenodd" d="M5.5 21a2.5 2.5 0 110-5 2.5 2.5 0 010 5z" stroke="currentColor"/><path d="M8 18.5h9a2 2 0 002-2v-4.25" stroke="currentColor" stroke-linecap="round" stroke-linejoin="round"/></svg><svg fill="none" viewBox="0 0 24 24" id="ico-setting-tag" xmlns="http://www.w3.org/2000/svg"><path d="M8.7 18L9.85 6M14.15 18L15.3 6M18.6 9.3h-12M18 14.7H6" stroke="currentColor" stroke-linecap="round" stroke-linejoin="round"/></svg><svg fill="none" viewBox="0 0 24 24" id="ico-setting-team" xmlns="http://www.w3.org/2000/svg"><path d="M2 19c0-2.2 1.8-4 4-4h4c2.2 0 4 1.8 4 4M10.5 6c1.4 1.4 1.4 3.6 0 4.9-1.4 1.3-3.6 1.4-4.9 0C4.3 9.5 4.2 7.4 5.5 6c1.3-1.4 3.6-1.3 5 0M16 14h3c1.7 0 3 1.3 3 3M19.3 6.7c1 1 1 2.6 0 3.5-1 .9-2.6 1-3.5 0-.9-1-1-2.6 0-3.5.9-.9 2.5-.9 3.5 0" stroke="currentColor" stroke-linecap="round" stroke-linejoin="round"/></svg><svg fill="none" viewBox="0 0 24 24" id="ico-setting-utm" xmlns="http://www.w3.org/2000/svg"><path d="M8.999 12H6.998a4.002 4.002 0 01-4.002-4.002v0a4.002 4.002 0 014.002-4.001h2M14 3.997h2.002a4.002 4.002 0 014.001 4.001M6.998 7.998H15" stroke="currentColor" stroke-linecap="round" stroke-linejoin="round"/><circle cx="16.502" cy="15.501" r="4.502" stroke="currentColor" stroke-linecap="round" stroke-linejoin="round"/><path d="M15.001 15.502h3.002M16.502 14v3.002" stroke="currentColor" stroke-linecap="round" stroke-linejoin="round"/></svg><svg fill="none" viewBox="0 0 24 24" id="ico-share" xmlns="http://www.w3.org/2000/svg"><path clip-rule="evenodd" d="M11.082 8.95a9.67 9.67 0 00-8.586 9.604v.612a11.405 11.405 0 018.586-4.119v3.229a1.223 1.223 0 001.98.959l7.993-6.312a1.18 1.18 0 000-1.852L13.06 4.759a1.222 1.222 0 00-1.98.96v3.23z" stroke="currentColor" stroke-linecap="round" stroke-linejoin="round"/></svg><svg fill="none" viewBox="0 0 24 24" id="ico-share-chain" xmlns="http://www.w3.org/2000/svg"><path d="M13.53 7.52l-4.06 3.04M16.405 4.642a2.032 2.032 0 11-2.874 2.874 2.032 2.032 0 012.874-2.874M13.53 16.48l-4.06-3.04M16.405 16.484a2.032 2.032 0 11-2.874 2.873 2.032 2.032 0 012.874-2.873M9.465 10.564a2.03 2.03 0 11-2.87 2.871 2.03 2.03 0 012.87-2.87" stroke="currentColor" stroke-linecap="round" stroke-linejoin="round"/></svg><svg fill="none" viewBox="0 0 24 24" id="ico-signature" xmlns="http://www.w3.org/2000/svg"><path clip-rule="evenodd" d="M10.63 14.782l8.49-8.489a.999.999 0 011.414 0l1.078 1.078a.999.999 0 010 1.414l-8.491 8.491a1.999 1.999 0 01-.955.532l-1.648.39a.67.67 0 01-.806-.806l.386-1.65c.085-.364.27-.696.533-.96z" stroke="currentColor" stroke-linecap="round" stroke-linejoin="round"/><path d="M17.53 7.875l2.5 2.5M7 21h-.151a4.849 4.849 0 01-1.969-9.28l3.96-1.76A3.636 3.636 0 007.363 3H7" stroke="currentColor" stroke-linecap="round" stroke-linejoin="round"/></svg><svg fill="none" viewBox="0 0 24 24" id="ico-signtaure" xmlns="http://www.w3.org/2000/svg"><path clip-rule="evenodd" d="M10.631 17.437l8.489-8.489a.999.999 0 011.414 0l1.078 1.078a.999.999 0 010 1.414l-8.491 8.491a1.999 1.999 0 01-.955.532l-1.648.389a.67.67 0 01-.806-.805l.386-1.651c.085-.363.27-.695.533-.959v0z" stroke="currentColor" stroke-linecap="round" stroke-linejoin="round"/><path d="M17.53 10.53l2.5 2.5M7 21h-.151A4.849 4.849 0 012 16.151v0a4.848 4.848 0 012.88-4.431l3.96-1.76A3.636 3.636 0 0011 6.637v0A3.637 3.637 0 007.363 3H7" stroke="currentColor" stroke-linecap="round" stroke-linejoin="round"/></svg><svg fill="none" viewBox="0 0 24 24" id="ico-smile" xmlns="http://www.w3.org/2000/svg"><path d="M3 12a9 9 0 019-9 9 9 0 019 9M21 12a9 9 0 01-9 9 9 9 0 01-9-9M8.5 9v1M15.5 9v1" stroke="currentColor" stroke-linecap="round" stroke-linejoin="round"/><path d="M15.5 14.688S14.187 16 12 16c-2.188 0-3.5-1.312-3.5-1.312" stroke="currentColor" stroke-linecap="round" stroke-linejoin="round"/></svg><svg fill="none" viewBox="0 0 24 24" id="ico-spelling" xmlns="http://www.w3.org/2000/svg"><path d="M6 19l6.002-14 2.498 5.5M8.182 14H11M17 21a4 4 0 110-8 4 4 0 010 8" stroke="currentColor" stroke-linecap="round" stroke-linejoin="round"/><path d="M18.5 16.5l-1.944 1.833L15.222 17M4 19h4" stroke="currentColor" stroke-linecap="round" stroke-linejoin="round"/></svg><svg fill="none" viewBox="0 0 24 24" id="ico-story" xmlns="http://www.w3.org/2000/svg"><path d="M7.735 19.945a9.055 9.055 0 006.301.82M3.21 14.13a8.963 8.963 0 002.564 4.404M3.795 8.206A8.898 8.898 0 003 11.103M6.04 5.187a9.283 9.283 0 00-.17.2M16.605 19.728A9.05 9.05 0 0021 12c0-4.963-4.047-9-9.022-9" stroke="currentColor" stroke-linecap="round"/></svg><svg fill="none" viewBox="0 0 24 24" id="ico-story-plus" xmlns="http://www.w3.org/2000/svg"><path d="M12 9.67v4.66M14.33 12H9.67" stroke="currentColor" stroke-linecap="round" stroke-linejoin="round"/><path d="M7.735 19.945a9.055 9.055 0 006.301.82M3.21 14.13a8.963 8.963 0 002.564 4.404M3.795 8.206A8.898 8.898 0 003 11.103M6.04 5.187a9.283 9.283 0 00-.17.2M16.605 19.728A9.05 9.05 0 0021 12c0-4.963-4.047-9-9.022-9" stroke="currentColor" stroke-linecap="round"/></svg><svg fill="none" viewBox="0 0 24 24" id="ico-subscribe" xmlns="http://www.w3.org/2000/svg"><path d="M3 9.355V18.4A2.6 2.6 0 005.6 21h12.8a2.6 2.6 0 002.6-2.6V9.355" stroke="currentColor" stroke-linecap="round" stroke-linejoin="round"/><path d="M12.001 2a4.5 4.5 0 014.5 4.499C16.501 8.932 14.433 11 12 11a4.5 4.5 0 01.001-9" stroke="currentColor" stroke-linecap="round" stroke-linejoin="round"/><path d="M13.741 5.628l-2.188 2.188-1.312-1.313" stroke="currentColor" stroke-linecap="round" stroke-linejoin="round"/><path d="M16.471 7h2.174A2.355 2.355 0 0121 9.355v0c0 .781-.387 1.511-1.033 1.949l-5.725 3.881a3.994 3.994 0 01-4.485-.001l-5.726-3.881A2.35 2.35 0 013 9.355v0A2.355 2.355 0 015.355 7h2.174" stroke="currentColor" stroke-linecap="round" stroke-linejoin="round"/></svg><svg fill="none" viewBox="0 0 24 24" id="ico-support-chat" xmlns="http://www.w3.org/2000/svg"><path d="M10.1 19.3l-3.5 1.8v-3.2C4.4 16.3 3 14 3 11.3c0-4.5 4-8.2 9-8.2s9 3.6 9 8.2v0c0 4.5-4 8.2-9 8.2-.6 0-1.3-.1-1.9-.2M15.9 13.7c-2.2 2.2-5.7 2.2-7.9 0M10 8.7v1M14 8.7v1" stroke="currentColor" stroke-linecap="round" stroke-linejoin="round"/></svg><svg fill="none" viewBox="0 0 24 24" id="ico-target" xmlns="http://www.w3.org/2000/svg"><path d="M14.04 9.96l-2.51 2.51" stroke="currentColor" stroke-linecap="round" stroke-linejoin="round"/><path clip-rule="evenodd" d="M14 5.997V10h4.003l4.001-4.002-2.668-1.333-1.333-2.668L14 5.998z" stroke="currentColor" stroke-linecap="round" stroke-linejoin="round"/><path d="M11 3.972A8.524 8.524 0 1020.03 13M16.212 13A4.727 4.727 0 1111 7.788" stroke="currentColor" stroke-linecap="round" stroke-linejoin="round"/></svg><svg fill="none" viewBox="0 0 24 24" id="ico-team" xmlns="http://www.w3.org/2000/svg"><path d="M4.937 5.971a8.627 8.627 0 00-2.204 3.988M9.29 20.443a8.653 8.653 0 004.397-.188M2.734 14.041a8.627 8.627 0 002.204 3.988M19.405 14.464a8.64 8.64 0 01-2.212 3.678M17.193 5.858a8.65 8.65 0 012.212 3.678M9.29 3.557a8.653 8.653 0 014.397.188" stroke="currentColor" stroke-linecap="round" stroke-linejoin="round"/><path d="M21.534 10.232a2.5 2.5 0 11-3.536 3.536 2.5 2.5 0 013.536-3.536M8.827 17.57a2.5 2.5 0 11-3.536 3.535 2.5 2.5 0 013.536-3.536M8.827 2.895A2.5 2.5 0 115.29 6.431a2.5 2.5 0 013.536-3.536" stroke="currentColor" stroke-linecap="round" stroke-linejoin="round"/></svg><svg fill="none" viewBox="0 0 24 24" id="ico-telegram" xmlns="http://www.w3.org/2000/svg"><path d="M16.941 20.86c1.258.517 1.73-.565 1.73-.565L22 4.609c-.026-1.057-1.547-.417-1.547-.417L1.817 11.05s-.89.295-.812.811c.079.516.786.762.786.762L6.483 14.1s1.415 4.352 1.704 5.188c.262.811.498.836.498.836.262.098.498-.074.498-.074l3.04-2.581 4.718 3.392zm.813-13.472s.655-.37.629 0c0 0 .105.049-.236.393-.314.295-7.732 6.54-8.728 7.376a.255.255 0 00-.131.22l-.289 2.312c-.052.246-.393.27-.471.049l-1.232-3.786a.35.35 0 01.157-.418l10.3-6.146z" fill="currentColor"/></svg><svg fill="none" viewBox="0 0 24 24" id="ico-theme-auto" xmlns="http://www.w3.org/2000/svg"><path d="M11 17a5 5 0 010-10M11 2v2M11 20v2M3.5 4.5L5 6M1 12h2M3.5 19.5L5 18M23 16.588a6.376 6.376 0 01-3.175 1.36 6.134 6.134 0 01-3.354-.503 5.967 5.967 0 01-2.54-2.2 5.888 5.888 0 01-.93-3.213 5.99 5.99 0 01.966-3.223 6.193 6.193 0 015.924-2.765c1.145.14 2.224.644 3.109 1.368-2.143 0-5 1.764-5 4.588 0 2.823 2.5 4.588 5 4.588z" stroke="currentColor" stroke-linecap="round" stroke-linejoin="round"/></svg><svg fill="none" viewBox="0 0 24 24" id="ico-theme-dark" xmlns="http://www.w3.org/2000/svg"><path d="M14 6V4M13 5h2M19 7v4M21 9h-4" stroke="currentColor" stroke-linecap="round" stroke-linejoin="round"/><path clip-rule="evenodd" d="M17.4 16c-2.5.8-5.4.3-7.4-1.7-2.5-2.5-2.7-6.5-.7-9.3C5.2 5.4 2 8.8 2 13c0 4.4 3.6 8 8 8 3.3 0 6.2-2.1 7.4-5z" stroke="currentColor" stroke-linecap="round" stroke-linejoin="round"/></svg><svg fill="none" viewBox="0 0 24 24" id="ico-theme-light" xmlns="http://www.w3.org/2000/svg"><path d="M12 18.25v2.5M12 3.25v2.5" stroke="currentColor" stroke-linecap="round" stroke-linejoin="round"/><path clip-rule="evenodd" d="M12 15a3 3 0 100-6 3 3 0 000 6z" stroke="currentColor" stroke-linecap="round" stroke-linejoin="round"/><path d="M7.58 16.42l-1.77 1.77M18.19 5.81l-1.77 1.77M5.75 12h-2.5M20.75 12h-2.5M7.58 7.58L5.81 5.81M18.19 18.19l-1.77-1.77" stroke="currentColor" stroke-linecap="round" stroke-linejoin="round"/></svg><svg fill="none" viewBox="0 0 24 24" id="ico-thumbs-up" xmlns="http://www.w3.org/2000/svg"><path clip-rule="evenodd" d="M6.944 19H5.056A1.056 1.056 0 014 17.944v-7.388C4 9.973 4.473 9.5 5.056 9.5h1.888C7.527 9.5 8 9.973 8 10.556v7.388C8 18.527 7.527 19 6.944 19v0z" stroke="currentColor" stroke-linecap="round" stroke-linejoin="round"/><path d="M8 10.572l3.649-4.751a1.734 1.734 0 012.714-.046v0c.265.32.409.725.409 1.14v3.272h3.096a1.8 1.8 0 011.496.799l.329.49a1.8 1.8 0 01.234 1.5l-1.359 4.722A1.8 1.8 0 0116.839 19H10.55a1.8 1.8 0 01-1.318-.574L8 17.1" stroke="currentColor" stroke-linecap="round" stroke-linejoin="round"/></svg><svg fill="none" viewBox="0 0 24 24" id="ico-time" xmlns="http://www.w3.org/2000/svg"><path d="M15.5 15l-3.781-1.936V8" stroke="currentColor" stroke-linecap="round" stroke-linejoin="round"/><path d="M18.364 5.636a9 9 0 010 12.728 9 9 0 110-12.728" stroke="currentColor" stroke-linecap="round" stroke-linejoin="round"/></svg><svg fill="none" viewBox="0 0 24 24" id="ico-trash" xmlns="http://www.w3.org/2000/svg"><path d="M5 7h14M18 7v11a2 2 0 01-2 2H8a2 2 0 01-2-2V7M15 3.75H9M10 11v5M14 11v5" stroke="currentColor" stroke-linecap="round" stroke-linejoin="round"/></svg><svg fill="none" viewBox="0 0 24 24" id="ico-triangle-fill" xmlns="http://www.w3.org/2000/svg"><path fill-rule="evenodd" clip-rule="evenodd" d="M10.293 4.793L2.86 16.957C2.045 18.29 3.004 20 4.566 20h14.868c1.562 0 2.521-1.71 1.707-3.043L13.707 4.793c-.78-1.277-2.634-1.277-3.414 0z" fill="currentColor" stroke="currentColor" stroke-linecap="round" stroke-linejoin="round"/></svg><svg fill="none" viewBox="0 0 24 24" id="ico-triangle-warning" xmlns="http://www.w3.org/2000/svg"><path d="M12 12.12V8.38M11.999 15.125a.25.25 0 10.002.5.25.25 0 00-.002-.5" stroke="currentColor" stroke-linecap="round" stroke-linejoin="round"/><path clip-rule="evenodd" d="M14.029 3.139l7.659 13.404c.89 1.558-.235 3.497-2.029 3.497H4.341c-1.795 0-2.92-1.939-2.029-3.497L9.971 3.139c.897-1.571 3.161-1.571 4.058 0z" stroke="currentColor" stroke-linecap="round" stroke-linejoin="round"/></svg><svg fill="none" viewBox="0 0 24 24" id="ico-twitter" xmlns="http://www.w3.org/2000/svg"><path d="M19.984 7.994v.515C19.984 13.842 15.848 20 8.31 20c-2.33 0-4.477-.67-6.309-1.803.314.025.654.051.969.051a8.391 8.391 0 005.104-1.726c-1.806-.026-3.324-1.211-3.822-2.809.262.052.498.078.786.078.366 0 .733-.052 1.073-.155-1.885-.36-3.298-1.984-3.298-3.942v-.051c.55.309 1.178.489 1.858.515a4.03 4.03 0 01-1.283-5.41c2.016 2.447 5.053 4.044 8.456 4.225a3.605 3.605 0 01-.105-.928c0-2.241 1.833-4.045 4.11-4.045 1.178 0 2.251.49 2.984 1.262a8.423 8.423 0 002.618-.979c-.314.954-.968 1.727-1.806 2.242A7.96 7.96 0 0022 5.881a7.433 7.433 0 01-2.016 2.113z" fill="currentColor"/></svg><svg fill="none" viewBox="0 0 24 24" id="ico-typograf" xmlns="http://www.w3.org/2000/svg"><path d="M9 19h6M12 6.077V19M18 7.154V5.529c0-.292-.299-.529-.667-.529H6.667C6.299 5 6 5.237 6 5.529v1.625" stroke="currentColor" stroke-linecap="round" stroke-linejoin="round"/></svg><svg fill="none" viewBox="0 0 24 24" id="ico-user-plus" xmlns="http://www.w3.org/2000/svg"><path d="M15 5.2c1.7 1.7 1.7 4.4 0 6-1.7 1.6-4.4 1.7-6 0-1.6-1.7-1.7-4.4 0-6 1.7-1.6 4.3-1.6 6 0M4 20c0-2.5 2-4.5 4.5-4.5h2.6M17.5 20.5v-5M15 18h5" stroke="currentColor" stroke-linecap="round" stroke-linejoin="round"/></svg><svg fill="none" viewBox="0 0 24 24" id="ico-v2" xmlns="http://www.w3.org/2000/svg"><path d="M6 7.5l3-3M6 7.5l3 3M6 7.5h6a6 6 0 11-6 6" stroke="currentColor" stroke-linecap="round" stroke-linejoin="round"/></svg><svg fill="none" viewBox="0 0 24 24" id="ico-video" xmlns="http://www.w3.org/2000/svg"><path clip-rule="evenodd" d="M13.125 17.75H5.25A2.25 2.25 0 013 15.5v-7a2.25 2.25 0 012.25-2.25h7.875a2.25 2.25 0 012.25 2.25v7a2.25 2.25 0 01-2.25 2.25z" stroke="currentColor" stroke-linecap="round" stroke-linejoin="round"/><path d="M15.375 13.097l3.795 3.054c.736.593 1.83.069 1.83-.876v-6.55c0-.945-1.094-1.469-1.83-.876l-3.795 3.054" stroke="currentColor" stroke-linecap="round" stroke-linejoin="round"/></svg><svg fill="none" viewBox="0 0 24 24" id="ico-video-cover" xmlns="http://www.w3.org/2000/svg"><path d="M7.5 3H5.25A2.25 2.25 0 003 5.25V7.5M3 16.5v2.25A2.25 2.25 0 005.25 21H7.5M16.5 21h2.25A2.25 2.25 0 0021 18.75V16.5M21 7.5V5.25A2.25 2.25 0 0018.75 3H16.5" stroke="currentColor" stroke-linecap="round" stroke-linejoin="round"/><path clip-rule="evenodd" d="M13.275 10.763a1.75 1.75 0 11-2.477 2.475 1.75 1.75 0 012.477-2.475z" stroke="currentColor" stroke-linecap="round" stroke-linejoin="round"/><path clip-rule="evenodd" d="M15.125 9l-.912-1.516A1.001 1.001 0 0013.356 7h-2.739c-.355 0-.684.189-.864.496L8.875 9H7.5c-.69 0-1.25.56-1.25 1.25v4.5c0 .69.56 1.25 1.25 1.25h9c.69 0 1.25-.56 1.25-1.25v-4.5c0-.69-.56-1.25-1.249-1.25h-1.376v0z" stroke="currentColor" stroke-linecap="round" stroke-linejoin="round"/></svg><svg fill="none" viewBox="0 0 24 24" id="ico-view-feed" xmlns="http://www.w3.org/2000/svg"><path clip-rule="evenodd" d="M19.857 7H4.143A1.143 1.143 0 013 5.857V4.143C3 3.51 3.511 3 4.143 3h15.714C20.49 3 21 3.511 21 4.143v1.714C21 6.49 20.489 7 19.857 7zM19.857 14H4.143A1.143 1.143 0 013 12.857v-1.714C3 10.51 3.511 10 4.143 10h15.714c.632 0 1.143.511 1.143 1.143v1.714C21 13.49 20.489 14 19.857 14zM19.857 21H4.143A1.143 1.143 0 013 19.857v-1.714C3 17.51 3.511 17 4.143 17h15.714c.632 0 1.143.511 1.143 1.143v1.714C21 20.49 20.489 21 19.857 21z" stroke="currentColor" stroke-linecap="round" stroke-linejoin="round"/></svg><svg fill="none" viewBox="0 0 24 24" id="ico-view-instagram" xmlns="http://www.w3.org/2000/svg"><path clip-rule="evenodd" d="M5.857 7H4.143A1.143 1.143 0 013 5.857V4.143C3 3.51 3.511 3 4.143 3h1.714C6.49 3 7 3.511 7 4.143v1.714C7 6.49 6.489 7 5.857 7zM5.857 14H4.143A1.143 1.143 0 013 12.857v-1.714C3 10.51 3.511 10 4.143 10h1.714C6.49 10 7 10.511 7 11.143v1.714C7 13.49 6.489 14 5.857 14zM5.857 21H4.143A1.143 1.143 0 013 19.857v-1.714C3 17.51 3.511 17 4.143 17h1.714C6.49 17 7 17.511 7 18.143v1.714C7 20.49 6.489 21 5.857 21zM12.857 7h-1.714A1.143 1.143 0 0110 5.857V4.143C10 3.51 10.511 3 11.143 3h1.714C13.49 3 14 3.511 14 4.143v1.714C14 6.49 13.489 7 12.857 7zM12.857 14h-1.714A1.143 1.143 0 0110 12.857v-1.714c0-.632.511-1.143 1.143-1.143h1.714c.632 0 1.143.511 1.143 1.143v1.714C14 13.49 13.489 14 12.857 14zM12.857 21h-1.714A1.143 1.143 0 0110 19.857v-1.714c0-.632.511-1.143 1.143-1.143h1.714c.632 0 1.143.511 1.143 1.143v1.714C14 20.49 13.489 21 12.857 21zM19.857 7h-1.714A1.143 1.143 0 0117 5.857V4.143C17 3.51 17.511 3 18.143 3h1.714C20.49 3 21 3.511 21 4.143v1.714C21 6.49 20.489 7 19.857 7zM19.857 14h-1.714A1.143 1.143 0 0117 12.857v-1.714c0-.632.511-1.143 1.143-1.143h1.714c.632 0 1.143.511 1.143 1.143v1.714C21 13.49 20.489 14 19.857 14zM19.857 21h-1.714A1.143 1.143 0 0117 19.857v-1.714c0-.632.511-1.143 1.143-1.143h1.714c.632 0 1.143.511 1.143 1.143v1.714C21 20.49 20.489 21 19.857 21z" stroke="currentColor" stroke-linecap="round" stroke-linejoin="round"/></svg><svg fill="none" viewBox="0 0 24 24" id="ico-view-month" xmlns="http://www.w3.org/2000/svg"><rect x="2.996" y="2.996" width="18.008" height="18.008" rx="3" stroke="currentColor" stroke-linecap="round" stroke-linejoin="round"/><path d="M21.004 7.998H2.996M13.75 11.45a.049.049 0 100 .098.049.049 0 000-.098M10.248 14.451a.048.048 0 00-.048.05.05.05 0 00.084.033.05.05 0 00-.036-.083M6.747 14.451a.048.048 0 00-.05.05.05.05 0 10.049-.049M10.248 17.453a.048.048 0 00-.048.05.05.05 0 00.084.034.05.05 0 00-.036-.084M6.747 17.453a.048.048 0 00-.05.05.05.05 0 00.085.034.05.05 0 00-.036-.084M17.251 11.45a.048.048 0 00-.048.05.05.05 0 10.048-.05" stroke="currentColor" stroke-linecap="round" stroke-linejoin="round"/><path d="M13.75 11.45a.05.05 0 00-.034.085.05.05 0 00.084-.035.049.049 0 00-.05-.05M13.75 14.451a.049.049 0 100 .098.049.049 0 000-.098M17.251 14.452a.048.048 0 00-.048.049.049.049 0 10.048-.049" stroke="currentColor" stroke-linecap="round" stroke-linejoin="round"/><path d="M13.75 14.453a.05.05 0 00-.034.084.05.05 0 00.084-.035.049.049 0 00-.05-.049" stroke="currentColor" stroke-linecap="round" stroke-linejoin="round"/></svg><svg fill="none" viewBox="0 0 24 24" id="ico-view-week" xmlns="http://www.w3.org/2000/svg"><rect x="2.996" y="2.996" width="18.008" height="18.008" rx="3" stroke="currentColor" stroke-linecap="round" stroke-linejoin="round"/><path d="M21.004 7.998H2.996M17.323 14.5H6.677M13.75 11.45a.049.049 0 100 .098.049.049 0 000-.098M10.248 17.453a.048.048 0 00-.048.05.05.05 0 00.084.034.05.05 0 00-.036-.084M6.747 17.453a.048.048 0 00-.05.05.05.05 0 00.085.034.05.05 0 00-.036-.084M17.251 11.45a.048.048 0 00-.048.05.05.05 0 10.048-.05" stroke="currentColor" stroke-linecap="round" stroke-linejoin="round"/><path d="M13.75 11.45a.05.05 0 00-.034.085.05.05 0 00.084-.035.049.049 0 00-.05-.05" stroke="currentColor" stroke-linecap="round" stroke-linejoin="round"/></svg><svg fill="none" viewBox="0 0 24 24" id="ico-vkontakte" xmlns="http://www.w3.org/2000/svg"><path d="M4.88 6.5H1.59s-.826.027-.523.79c.303.762 2.068 4.733 4.112 7.09 2.044 2.358 4.913 3.6 6.255 3.6h1.796s.537 0 .599-.69c.062-.69.268-2.061.877-2.061.61 0 .806.276 1.115.66.31.385 1.3 1.351 1.693 1.637.392.287.857.474 1.641.474h3.18s.588-.128.65-.66c.061-.533-2.694-3.393-3.304-3.877 0 0-.288-.256-.31-.611-.02-.355.114-.543.342-.819.227-.276 2.436-2.82 3.22-4.596 0 0 .351-.927-.557-.927h-3.922s-.434-.069-.63.424c-.196.494-1.673 3.68-2.911 4.665 0 0-.32.276-.63.217-.31-.06-.433-.542-.433-.809V7.171s0-.937-1.146-1.085c-1.146-.148-2.746-.088-3.376.05-.63.138-.887.453-1.042.7 0 0 1.105.276 1.239 1.085.134.809.195 2.584-.02 3.412 0 0-.166.523-.59.513-.422-.01-1-.75-1.3-1.173-.3-.424-1.868-3.304-2.003-3.62-.134-.316-.402-.552-.733-.552z" fill="currentColor"/></svg><svg fill="none" viewBox="0 0 24 24" id="ico-work" xmlns="http://www.w3.org/2000/svg"><path d="M2.996 18.01l1.226 1.104 2.47-2.223M2.996 12.007l1.226 1.104L6.69 10.89M11 18.503h10.004M11 12.5h10.004M2.996 6.004L4.222 7.11 6.69 4.886M11 6.498h10.004" stroke="currentColor" stroke-linecap="round" stroke-linejoin="round"/></svg><svg fill="none" viewBox="0 0 24 24" id="ico-x" xmlns="http://www.w3.org/2000/svg"><path d="M8 8l8 8M16 8l-8 8" stroke="currentColor" stroke-linecap="round" stroke-linejoin="round"/></svg><svg fill="none" viewBox="0 0 24 24" id="ico-x-lg" xmlns="http://www.w3.org/2000/svg"><path d="M22.293.293a1 1 0 111.414 1.414L13.414 12l10.293 10.293a1 1 0 01-1.414 1.414L12 13.414 1.707 23.707a1 1 0 01-1.414-1.414L10.586 12 .293 1.707A1 1 0 011.707.293L12 10.586 22.293.293z" fill="currentColor"/></svg><svg fill="none" viewBox="0 0 24 24" id="ico-x-md" xmlns="http://www.w3.org/2000/svg"><path d="M6 6l13 12M18 6L6 18" stroke="currentColor" stroke-linecap="round" stroke-linejoin="round"/></svg></svg>